G75*
%MOIN*%
%OFA0B0*%
%FSLAX25Y25*%
%IPPOS*%
%LPD*%
%AMOC8*
5,1,8,0,0,1.08239X$1,22.5*
%
%ADD10C,0.00000*%
%ADD11C,0.00700*%
%ADD12C,0.00500*%
%ADD13C,0.00400*%
%ADD14C,0.00100*%
D10*
X0013611Y0013611D02*
X0013611Y0210461D01*
X0210461Y0210461D01*
X0210461Y0013611D01*
X0013611Y0013611D01*
X0031997Y0177194D02*
X0031999Y0177278D01*
X0032005Y0177361D01*
X0032015Y0177444D01*
X0032029Y0177527D01*
X0032046Y0177609D01*
X0032068Y0177690D01*
X0032093Y0177769D01*
X0032122Y0177848D01*
X0032155Y0177925D01*
X0032191Y0178000D01*
X0032231Y0178074D01*
X0032274Y0178146D01*
X0032321Y0178215D01*
X0032371Y0178282D01*
X0032424Y0178347D01*
X0032480Y0178409D01*
X0032538Y0178469D01*
X0032600Y0178526D01*
X0032664Y0178579D01*
X0032731Y0178630D01*
X0032800Y0178677D01*
X0032871Y0178722D01*
X0032944Y0178762D01*
X0033019Y0178799D01*
X0033096Y0178833D01*
X0033174Y0178863D01*
X0033253Y0178889D01*
X0033334Y0178912D01*
X0033416Y0178930D01*
X0033498Y0178945D01*
X0033581Y0178956D01*
X0033664Y0178963D01*
X0033748Y0178966D01*
X0033832Y0178965D01*
X0033915Y0178960D01*
X0033999Y0178951D01*
X0034081Y0178938D01*
X0034163Y0178922D01*
X0034244Y0178901D01*
X0034325Y0178877D01*
X0034403Y0178849D01*
X0034481Y0178817D01*
X0034557Y0178781D01*
X0034631Y0178742D01*
X0034703Y0178700D01*
X0034773Y0178654D01*
X0034841Y0178605D01*
X0034906Y0178553D01*
X0034969Y0178498D01*
X0035029Y0178440D01*
X0035087Y0178379D01*
X0035141Y0178315D01*
X0035193Y0178249D01*
X0035241Y0178181D01*
X0035286Y0178110D01*
X0035327Y0178037D01*
X0035366Y0177963D01*
X0035400Y0177887D01*
X0035431Y0177809D01*
X0035458Y0177730D01*
X0035482Y0177649D01*
X0035501Y0177568D01*
X0035517Y0177486D01*
X0035529Y0177403D01*
X0035537Y0177319D01*
X0035541Y0177236D01*
X0035541Y0177152D01*
X0035537Y0177069D01*
X0035529Y0176985D01*
X0035517Y0176902D01*
X0035501Y0176820D01*
X0035482Y0176739D01*
X0035458Y0176658D01*
X0035431Y0176579D01*
X0035400Y0176501D01*
X0035366Y0176425D01*
X0035327Y0176351D01*
X0035286Y0176278D01*
X0035241Y0176207D01*
X0035193Y0176139D01*
X0035141Y0176073D01*
X0035087Y0176009D01*
X0035029Y0175948D01*
X0034969Y0175890D01*
X0034906Y0175835D01*
X0034841Y0175783D01*
X0034773Y0175734D01*
X0034703Y0175688D01*
X0034631Y0175646D01*
X0034557Y0175607D01*
X0034481Y0175571D01*
X0034403Y0175539D01*
X0034325Y0175511D01*
X0034244Y0175487D01*
X0034163Y0175466D01*
X0034081Y0175450D01*
X0033999Y0175437D01*
X0033915Y0175428D01*
X0033832Y0175423D01*
X0033748Y0175422D01*
X0033664Y0175425D01*
X0033581Y0175432D01*
X0033498Y0175443D01*
X0033416Y0175458D01*
X0033334Y0175476D01*
X0033253Y0175499D01*
X0033174Y0175525D01*
X0033096Y0175555D01*
X0033019Y0175589D01*
X0032944Y0175626D01*
X0032871Y0175666D01*
X0032800Y0175711D01*
X0032731Y0175758D01*
X0032664Y0175809D01*
X0032600Y0175862D01*
X0032538Y0175919D01*
X0032480Y0175979D01*
X0032424Y0176041D01*
X0032371Y0176106D01*
X0032321Y0176173D01*
X0032274Y0176242D01*
X0032231Y0176314D01*
X0032191Y0176388D01*
X0032155Y0176463D01*
X0032122Y0176540D01*
X0032093Y0176619D01*
X0032068Y0176698D01*
X0032046Y0176779D01*
X0032029Y0176861D01*
X0032015Y0176944D01*
X0032005Y0177027D01*
X0031999Y0177110D01*
X0031997Y0177194D01*
X0031997Y0194517D02*
X0031999Y0194601D01*
X0032005Y0194684D01*
X0032015Y0194767D01*
X0032029Y0194850D01*
X0032046Y0194932D01*
X0032068Y0195013D01*
X0032093Y0195092D01*
X0032122Y0195171D01*
X0032155Y0195248D01*
X0032191Y0195323D01*
X0032231Y0195397D01*
X0032274Y0195469D01*
X0032321Y0195538D01*
X0032371Y0195605D01*
X0032424Y0195670D01*
X0032480Y0195732D01*
X0032538Y0195792D01*
X0032600Y0195849D01*
X0032664Y0195902D01*
X0032731Y0195953D01*
X0032800Y0196000D01*
X0032871Y0196045D01*
X0032944Y0196085D01*
X0033019Y0196122D01*
X0033096Y0196156D01*
X0033174Y0196186D01*
X0033253Y0196212D01*
X0033334Y0196235D01*
X0033416Y0196253D01*
X0033498Y0196268D01*
X0033581Y0196279D01*
X0033664Y0196286D01*
X0033748Y0196289D01*
X0033832Y0196288D01*
X0033915Y0196283D01*
X0033999Y0196274D01*
X0034081Y0196261D01*
X0034163Y0196245D01*
X0034244Y0196224D01*
X0034325Y0196200D01*
X0034403Y0196172D01*
X0034481Y0196140D01*
X0034557Y0196104D01*
X0034631Y0196065D01*
X0034703Y0196023D01*
X0034773Y0195977D01*
X0034841Y0195928D01*
X0034906Y0195876D01*
X0034969Y0195821D01*
X0035029Y0195763D01*
X0035087Y0195702D01*
X0035141Y0195638D01*
X0035193Y0195572D01*
X0035241Y0195504D01*
X0035286Y0195433D01*
X0035327Y0195360D01*
X0035366Y0195286D01*
X0035400Y0195210D01*
X0035431Y0195132D01*
X0035458Y0195053D01*
X0035482Y0194972D01*
X0035501Y0194891D01*
X0035517Y0194809D01*
X0035529Y0194726D01*
X0035537Y0194642D01*
X0035541Y0194559D01*
X0035541Y0194475D01*
X0035537Y0194392D01*
X0035529Y0194308D01*
X0035517Y0194225D01*
X0035501Y0194143D01*
X0035482Y0194062D01*
X0035458Y0193981D01*
X0035431Y0193902D01*
X0035400Y0193824D01*
X0035366Y0193748D01*
X0035327Y0193674D01*
X0035286Y0193601D01*
X0035241Y0193530D01*
X0035193Y0193462D01*
X0035141Y0193396D01*
X0035087Y0193332D01*
X0035029Y0193271D01*
X0034969Y0193213D01*
X0034906Y0193158D01*
X0034841Y0193106D01*
X0034773Y0193057D01*
X0034703Y0193011D01*
X0034631Y0192969D01*
X0034557Y0192930D01*
X0034481Y0192894D01*
X0034403Y0192862D01*
X0034325Y0192834D01*
X0034244Y0192810D01*
X0034163Y0192789D01*
X0034081Y0192773D01*
X0033999Y0192760D01*
X0033915Y0192751D01*
X0033832Y0192746D01*
X0033748Y0192745D01*
X0033664Y0192748D01*
X0033581Y0192755D01*
X0033498Y0192766D01*
X0033416Y0192781D01*
X0033334Y0192799D01*
X0033253Y0192822D01*
X0033174Y0192848D01*
X0033096Y0192878D01*
X0033019Y0192912D01*
X0032944Y0192949D01*
X0032871Y0192989D01*
X0032800Y0193034D01*
X0032731Y0193081D01*
X0032664Y0193132D01*
X0032600Y0193185D01*
X0032538Y0193242D01*
X0032480Y0193302D01*
X0032424Y0193364D01*
X0032371Y0193429D01*
X0032321Y0193496D01*
X0032274Y0193565D01*
X0032231Y0193637D01*
X0032191Y0193711D01*
X0032155Y0193786D01*
X0032122Y0193863D01*
X0032093Y0193942D01*
X0032068Y0194021D01*
X0032046Y0194102D01*
X0032029Y0194184D01*
X0032015Y0194267D01*
X0032005Y0194350D01*
X0031999Y0194433D01*
X0031997Y0194517D01*
D11*
X0032875Y0150975D02*
X0034977Y0150975D01*
X0036027Y0149924D01*
X0031824Y0145721D01*
X0032875Y0144670D01*
X0034977Y0144670D01*
X0036027Y0145721D01*
X0036027Y0149924D01*
X0032875Y0150975D02*
X0031824Y0149924D01*
X0031824Y0145721D01*
X0029582Y0144670D02*
X0029582Y0148873D01*
X0027480Y0150975D01*
X0025378Y0148873D01*
X0025378Y0144670D01*
X0025378Y0147822D02*
X0029582Y0147822D01*
X0027480Y0140739D02*
X0029582Y0138637D01*
X0029582Y0134433D01*
X0031824Y0134433D02*
X0036027Y0134433D01*
X0033926Y0134433D02*
X0033926Y0140739D01*
X0031824Y0138637D01*
X0029582Y0137586D02*
X0025378Y0137586D01*
X0025378Y0138637D02*
X0027480Y0140739D01*
X0025378Y0138637D02*
X0025378Y0134433D01*
X0025378Y0130503D02*
X0028531Y0130503D01*
X0029582Y0129452D01*
X0029582Y0128401D01*
X0028531Y0127350D01*
X0025378Y0127350D01*
X0025378Y0124197D02*
X0025378Y0130503D01*
X0028531Y0127350D02*
X0029582Y0126299D01*
X0029582Y0125248D01*
X0028531Y0124197D01*
X0025378Y0124197D01*
X0025378Y0120266D02*
X0028531Y0120266D01*
X0029582Y0119216D01*
X0029582Y0118165D01*
X0028531Y0117114D01*
X0025378Y0117114D01*
X0025378Y0120266D02*
X0025378Y0113961D01*
X0028531Y0113961D01*
X0029582Y0115012D01*
X0029582Y0116063D01*
X0028531Y0117114D01*
X0031824Y0119216D02*
X0032875Y0120266D01*
X0034977Y0120266D01*
X0036027Y0119216D01*
X0036027Y0118165D01*
X0034977Y0117114D01*
X0036027Y0116063D01*
X0036027Y0115012D01*
X0034977Y0113961D01*
X0032875Y0113961D01*
X0031824Y0115012D01*
X0033926Y0117114D02*
X0034977Y0117114D01*
X0036027Y0124197D02*
X0031824Y0124197D01*
X0036027Y0128401D01*
X0036027Y0129452D01*
X0034977Y0130503D01*
X0032875Y0130503D01*
X0031824Y0129452D01*
X0028925Y0110030D02*
X0025772Y0110030D01*
X0025772Y0103725D01*
X0028925Y0103725D01*
X0029976Y0104776D01*
X0029976Y0105827D01*
X0028925Y0106877D01*
X0025772Y0106877D01*
X0028925Y0106877D02*
X0029976Y0107928D01*
X0029976Y0108979D01*
X0028925Y0110030D01*
X0032218Y0106877D02*
X0036421Y0106877D01*
X0035370Y0103725D02*
X0035370Y0110030D01*
X0032218Y0106877D01*
X0035370Y0100188D02*
X0032218Y0097035D01*
X0036421Y0097035D01*
X0035370Y0093882D02*
X0035370Y0100188D01*
X0029976Y0098086D02*
X0029976Y0093882D01*
X0029976Y0097035D02*
X0025772Y0097035D01*
X0025772Y0098086D02*
X0027874Y0100188D01*
X0029976Y0098086D01*
X0025772Y0098086D02*
X0025772Y0093882D01*
X0026823Y0090345D02*
X0028925Y0090345D01*
X0029976Y0089294D01*
X0029976Y0088243D01*
X0028925Y0087192D01*
X0029976Y0086142D01*
X0029976Y0085091D01*
X0028925Y0084040D01*
X0026823Y0084040D01*
X0025772Y0085091D01*
X0027874Y0087192D02*
X0028925Y0087192D01*
X0025772Y0089294D02*
X0026823Y0090345D01*
X0032218Y0085091D02*
X0033268Y0085091D01*
X0033268Y0084040D01*
X0032218Y0084040D01*
X0032218Y0085091D01*
X0035440Y0085091D02*
X0036491Y0084040D01*
X0038593Y0084040D01*
X0039644Y0085091D01*
X0039644Y0086142D01*
X0038593Y0087192D01*
X0037542Y0087192D01*
X0038593Y0087192D02*
X0039644Y0088243D01*
X0039644Y0089294D01*
X0038593Y0090345D01*
X0036491Y0090345D01*
X0035440Y0089294D01*
X0041886Y0090345D02*
X0041886Y0086142D01*
X0043988Y0084040D01*
X0046089Y0086142D01*
X0046089Y0090345D01*
X0041816Y0080109D02*
X0038663Y0080109D01*
X0038663Y0073804D01*
X0041816Y0073804D01*
X0042867Y0074854D01*
X0042867Y0079058D01*
X0041816Y0080109D01*
X0036421Y0080109D02*
X0036421Y0073804D01*
X0032218Y0080109D01*
X0032218Y0073804D01*
X0029976Y0074854D02*
X0029976Y0076956D01*
X0027874Y0076956D01*
X0029976Y0074854D02*
X0028925Y0073804D01*
X0026823Y0073804D01*
X0025772Y0074854D01*
X0025772Y0079058D01*
X0026823Y0080109D01*
X0028925Y0080109D01*
X0029976Y0079058D01*
X0182859Y0079452D02*
X0182859Y0075248D01*
X0183910Y0074197D01*
X0186011Y0074197D01*
X0187062Y0075248D01*
X0187062Y0077350D01*
X0184960Y0077350D01*
X0182859Y0079452D02*
X0183910Y0080503D01*
X0186011Y0080503D01*
X0187062Y0079452D01*
X0189304Y0080503D02*
X0193508Y0074197D01*
X0193508Y0080503D01*
X0195750Y0080503D02*
X0198902Y0080503D01*
X0199953Y0079452D01*
X0199953Y0075248D01*
X0198902Y0074197D01*
X0195750Y0074197D01*
X0195750Y0080503D01*
X0191406Y0084827D02*
X0193508Y0086929D01*
X0193508Y0091133D01*
X0189304Y0091133D02*
X0189304Y0086929D01*
X0191406Y0084827D01*
X0187062Y0085878D02*
X0187062Y0087980D01*
X0186011Y0089031D01*
X0184960Y0089031D01*
X0182859Y0087980D01*
X0182859Y0091133D01*
X0187062Y0091133D01*
X0186011Y0094670D02*
X0182859Y0094670D01*
X0182859Y0100975D01*
X0186011Y0100975D01*
X0187062Y0099924D01*
X0187062Y0098873D01*
X0186011Y0097822D01*
X0182859Y0097822D01*
X0186011Y0097822D02*
X0187062Y0096771D01*
X0187062Y0095721D01*
X0186011Y0094670D01*
X0189304Y0094670D02*
X0189304Y0095721D01*
X0193508Y0099924D01*
X0193508Y0100975D01*
X0189304Y0100975D01*
X0190355Y0104906D02*
X0189304Y0105957D01*
X0189304Y0107008D01*
X0190355Y0108059D01*
X0192457Y0108059D01*
X0193508Y0107008D01*
X0193508Y0105957D01*
X0192457Y0104906D01*
X0190355Y0104906D01*
X0190355Y0108059D02*
X0189304Y0109109D01*
X0189304Y0110160D01*
X0190355Y0111211D01*
X0192457Y0111211D01*
X0193508Y0110160D01*
X0193508Y0109109D01*
X0192457Y0108059D01*
X0187062Y0109109D02*
X0186011Y0108059D01*
X0182859Y0108059D01*
X0182859Y0111211D02*
X0182859Y0104906D01*
X0186011Y0104906D01*
X0187062Y0105957D01*
X0187062Y0107008D01*
X0186011Y0108059D01*
X0187062Y0109109D02*
X0187062Y0110160D01*
X0186011Y0111211D01*
X0182859Y0111211D01*
X0182859Y0114748D02*
X0186011Y0114748D01*
X0187062Y0115799D01*
X0187062Y0116850D01*
X0186011Y0117901D01*
X0182859Y0117901D01*
X0186011Y0117901D02*
X0187062Y0118952D01*
X0187062Y0120003D01*
X0186011Y0121054D01*
X0182859Y0121054D01*
X0182859Y0114748D01*
X0189304Y0115799D02*
X0190355Y0114748D01*
X0192457Y0114748D01*
X0193508Y0115799D01*
X0193508Y0120003D01*
X0192457Y0121054D01*
X0190355Y0121054D01*
X0189304Y0120003D01*
X0189304Y0118952D01*
X0190355Y0117901D01*
X0193508Y0117901D01*
X0193508Y0124591D02*
X0189304Y0124591D01*
X0191406Y0124591D02*
X0191406Y0130896D01*
X0189304Y0128795D01*
X0187062Y0128795D02*
X0186011Y0127744D01*
X0182859Y0127744D01*
X0182859Y0130896D02*
X0182859Y0124591D01*
X0186011Y0124591D01*
X0187062Y0125642D01*
X0187062Y0126693D01*
X0186011Y0127744D01*
X0187062Y0128795D02*
X0187062Y0129845D01*
X0186011Y0130896D01*
X0182859Y0130896D01*
X0182859Y0135221D02*
X0186011Y0135221D01*
X0187062Y0136272D01*
X0187062Y0137323D01*
X0186011Y0138374D01*
X0182859Y0138374D01*
X0182859Y0141526D02*
X0182859Y0135221D01*
X0186011Y0138374D02*
X0187062Y0139424D01*
X0187062Y0140475D01*
X0186011Y0141526D01*
X0182859Y0141526D01*
X0182859Y0145457D02*
X0186011Y0145457D01*
X0187062Y0146508D01*
X0187062Y0147559D01*
X0186011Y0148610D01*
X0182859Y0148610D01*
X0186011Y0148610D02*
X0187062Y0149661D01*
X0187062Y0150712D01*
X0186011Y0151762D01*
X0182859Y0151762D01*
X0182859Y0145457D01*
X0189304Y0145457D02*
X0193508Y0145457D01*
X0191406Y0145457D02*
X0191406Y0151762D01*
X0189304Y0149661D01*
X0195750Y0148610D02*
X0197851Y0149661D01*
X0198902Y0149661D01*
X0199953Y0148610D01*
X0199953Y0146508D01*
X0198902Y0145457D01*
X0196801Y0145457D01*
X0195750Y0146508D01*
X0195750Y0148610D02*
X0195750Y0151762D01*
X0199953Y0151762D01*
X0198902Y0141526D02*
X0195750Y0138374D01*
X0199953Y0138374D01*
X0198902Y0141526D02*
X0198902Y0135221D01*
X0198902Y0130896D02*
X0196801Y0130896D01*
X0195750Y0129845D01*
X0197851Y0127744D02*
X0198902Y0127744D01*
X0199953Y0126693D01*
X0199953Y0125642D01*
X0198902Y0124591D01*
X0196801Y0124591D01*
X0195750Y0125642D01*
X0198902Y0127744D02*
X0199953Y0128795D01*
X0199953Y0129845D01*
X0198902Y0130896D01*
X0193508Y0135221D02*
X0189304Y0135221D01*
X0191406Y0135221D02*
X0191406Y0141526D01*
X0189304Y0139424D01*
X0187062Y0085878D02*
X0186011Y0084827D01*
X0183910Y0084827D01*
X0182859Y0085878D01*
X0189304Y0080503D02*
X0189304Y0074197D01*
D12*
X0193429Y0075102D02*
X0193429Y0076603D01*
X0193429Y0075852D02*
X0197182Y0075852D01*
X0197933Y0075102D01*
X0197933Y0074351D01*
X0197182Y0073600D01*
X0197182Y0078204D02*
X0197933Y0078955D01*
X0197933Y0080456D01*
X0197182Y0081207D01*
X0196431Y0081207D01*
X0195681Y0080456D01*
X0195681Y0079706D01*
X0195681Y0080456D02*
X0194930Y0081207D01*
X0194179Y0081207D01*
X0193429Y0080456D01*
X0193429Y0078955D01*
X0194179Y0078204D01*
X0212671Y0062082D02*
X0214173Y0060581D01*
X0212671Y0062082D02*
X0217175Y0062082D01*
X0217175Y0060581D02*
X0217175Y0063583D01*
X0216425Y0058229D02*
X0212671Y0058229D01*
X0212671Y0058979D02*
X0212671Y0057478D01*
X0216425Y0058229D02*
X0217175Y0057478D01*
X0217175Y0056727D01*
X0216425Y0055977D01*
X0194925Y0046396D02*
X0191922Y0046396D01*
X0193424Y0046396D02*
X0193424Y0041893D01*
X0190321Y0041893D02*
X0187318Y0041893D01*
X0187318Y0046396D01*
X0190321Y0046396D01*
X0188820Y0044144D02*
X0187318Y0044144D01*
X0185717Y0043394D02*
X0185717Y0042643D01*
X0184966Y0041893D01*
X0183465Y0041893D01*
X0182715Y0042643D01*
X0183465Y0044144D02*
X0184966Y0044144D01*
X0185717Y0043394D01*
X0185717Y0045646D02*
X0184966Y0046396D01*
X0183465Y0046396D01*
X0182715Y0045646D01*
X0182715Y0044895D01*
X0183465Y0044144D01*
X0181113Y0046396D02*
X0178111Y0046396D01*
X0178111Y0041893D01*
X0181113Y0041893D01*
X0179612Y0044144D02*
X0178111Y0044144D01*
X0176509Y0044144D02*
X0175759Y0043394D01*
X0173507Y0043394D01*
X0175008Y0043394D02*
X0176509Y0041893D01*
X0173507Y0041893D02*
X0173507Y0046396D01*
X0175759Y0046396D01*
X0176509Y0045646D01*
X0176509Y0044144D01*
X0167011Y0057818D02*
X0164759Y0059319D01*
X0167011Y0060820D01*
X0164759Y0062322D02*
X0164759Y0057818D01*
X0163158Y0058568D02*
X0163158Y0061571D01*
X0160155Y0058568D01*
X0160906Y0057818D01*
X0162407Y0057818D01*
X0163158Y0058568D01*
X0160155Y0058568D02*
X0160155Y0061571D01*
X0160906Y0062322D01*
X0162407Y0062322D01*
X0163158Y0061571D01*
X0158554Y0057818D02*
X0155552Y0057818D01*
X0157053Y0057818D02*
X0157053Y0062322D01*
X0155552Y0060820D01*
X0155454Y0066318D02*
X0153953Y0067819D01*
X0154703Y0067819D02*
X0152452Y0067819D01*
X0152452Y0066318D02*
X0152452Y0070822D01*
X0154703Y0070822D01*
X0155454Y0070071D01*
X0155454Y0068570D01*
X0154703Y0067819D01*
X0155552Y0069629D02*
X0158554Y0069629D01*
X0158557Y0068570D02*
X0159307Y0068570D01*
X0160058Y0067819D01*
X0160058Y0067068D01*
X0159307Y0066318D01*
X0157806Y0066318D01*
X0157055Y0067068D01*
X0157053Y0069629D02*
X0157053Y0074133D01*
X0155552Y0072631D01*
X0157806Y0070822D02*
X0157055Y0070071D01*
X0157806Y0070822D02*
X0159307Y0070822D01*
X0160058Y0070071D01*
X0160058Y0069320D01*
X0159307Y0068570D01*
X0160906Y0069629D02*
X0160155Y0070379D01*
X0163158Y0073382D01*
X0163158Y0070379D01*
X0162407Y0069629D01*
X0160906Y0069629D01*
X0160155Y0070379D02*
X0160155Y0073382D01*
X0160906Y0074133D01*
X0162407Y0074133D01*
X0163158Y0073382D01*
X0164759Y0074133D02*
X0164759Y0069629D01*
X0164759Y0071130D02*
X0167011Y0072631D01*
X0164759Y0071130D02*
X0167011Y0069629D01*
X0159307Y0078129D02*
X0159307Y0082633D01*
X0157055Y0080381D01*
X0160058Y0080381D01*
X0155454Y0080381D02*
X0154703Y0079630D01*
X0152452Y0079630D01*
X0153953Y0079630D02*
X0155454Y0078129D01*
X0155454Y0080381D02*
X0155454Y0081882D01*
X0154703Y0082633D01*
X0152452Y0082633D01*
X0152452Y0078129D01*
X0152712Y0046003D02*
X0154964Y0046003D01*
X0155715Y0045252D01*
X0155715Y0043751D01*
X0154964Y0043000D01*
X0152712Y0043000D01*
X0152712Y0041499D02*
X0152712Y0046003D01*
X0151111Y0046003D02*
X0148108Y0046003D01*
X0148108Y0041499D01*
X0151111Y0041499D01*
X0149610Y0043751D02*
X0148108Y0043751D01*
X0146507Y0043000D02*
X0146507Y0042249D01*
X0145756Y0041499D01*
X0144255Y0041499D01*
X0143504Y0042249D01*
X0141903Y0042249D02*
X0141903Y0046003D01*
X0143504Y0045252D02*
X0143504Y0044501D01*
X0144255Y0043751D01*
X0145756Y0043751D01*
X0146507Y0043000D01*
X0146507Y0045252D02*
X0145756Y0046003D01*
X0144255Y0046003D01*
X0143504Y0045252D01*
X0141903Y0042249D02*
X0141152Y0041499D01*
X0139651Y0041499D01*
X0138900Y0042249D01*
X0138900Y0046003D01*
X0154213Y0043000D02*
X0155715Y0041499D01*
X0087326Y0040937D02*
X0082822Y0040937D01*
X0084323Y0039436D01*
X0086575Y0037885D02*
X0086575Y0037134D01*
X0087326Y0037134D01*
X0087326Y0037885D01*
X0086575Y0037885D01*
X0087326Y0039436D02*
X0087326Y0042439D01*
X0086575Y0044040D02*
X0087326Y0044791D01*
X0087326Y0047043D01*
X0084323Y0047043D01*
X0085074Y0048644D02*
X0085074Y0050145D01*
X0087326Y0048644D02*
X0082822Y0048644D01*
X0082822Y0051647D01*
X0084323Y0044040D02*
X0086575Y0044040D01*
X0086575Y0035533D02*
X0083572Y0035533D01*
X0086575Y0032530D01*
X0087326Y0033281D01*
X0087326Y0034782D01*
X0086575Y0035533D01*
X0083572Y0035533D02*
X0082822Y0034782D01*
X0082822Y0033281D01*
X0083572Y0032530D01*
X0086575Y0032530D01*
X0071326Y0033281D02*
X0071326Y0034782D01*
X0070575Y0035533D01*
X0070575Y0037134D02*
X0071326Y0037885D01*
X0071326Y0039386D01*
X0070575Y0040137D01*
X0069824Y0040137D01*
X0069074Y0039386D01*
X0069074Y0038636D01*
X0069074Y0039386D02*
X0068323Y0040137D01*
X0067572Y0040137D01*
X0066822Y0039386D01*
X0066822Y0037885D01*
X0067572Y0037134D01*
X0067572Y0035533D02*
X0066822Y0034782D01*
X0066822Y0033281D01*
X0067572Y0032530D01*
X0070575Y0032530D01*
X0071326Y0033281D01*
X0052563Y0047322D02*
X0052563Y0049574D01*
X0051812Y0050324D01*
X0049561Y0050324D01*
X0049561Y0047322D01*
X0047959Y0048823D02*
X0044957Y0048823D01*
X0044957Y0049574D02*
X0045707Y0050324D01*
X0047209Y0050324D01*
X0047959Y0049574D01*
X0047959Y0048823D01*
X0047209Y0047322D02*
X0045707Y0047322D01*
X0044957Y0048072D01*
X0044957Y0049574D01*
X0043355Y0049574D02*
X0043355Y0048823D01*
X0040353Y0048823D01*
X0040353Y0049574D02*
X0041103Y0050324D01*
X0042605Y0050324D01*
X0043355Y0049574D01*
X0042605Y0047322D02*
X0041103Y0047322D01*
X0040353Y0048072D01*
X0040353Y0049574D01*
X0038768Y0050324D02*
X0038017Y0050324D01*
X0036516Y0048823D01*
X0036516Y0047322D02*
X0036516Y0050324D01*
X0034915Y0050324D02*
X0034915Y0046571D01*
X0034164Y0045820D01*
X0033413Y0045820D01*
X0032663Y0047322D02*
X0031912Y0048072D01*
X0031912Y0049574D01*
X0032663Y0050324D01*
X0034915Y0050324D01*
X0034915Y0047322D02*
X0032663Y0047322D01*
X0031912Y0055322D02*
X0034915Y0055322D01*
X0036516Y0055322D02*
X0039519Y0055322D01*
X0041120Y0055322D02*
X0043372Y0055322D01*
X0044123Y0056072D01*
X0044123Y0059075D01*
X0043372Y0059825D01*
X0041120Y0059825D01*
X0041120Y0055322D01*
X0038017Y0057574D02*
X0036516Y0057574D01*
X0036516Y0059825D02*
X0036516Y0055322D01*
X0036516Y0059825D02*
X0039519Y0059825D01*
X0045724Y0059075D02*
X0046475Y0059825D01*
X0047976Y0059825D01*
X0048727Y0059075D01*
X0048727Y0058324D01*
X0045724Y0055322D01*
X0048727Y0055322D01*
X0044835Y0044770D02*
X0041832Y0044770D01*
X0044835Y0041767D01*
X0045585Y0042518D01*
X0045585Y0044019D01*
X0044835Y0044770D01*
X0041832Y0044770D02*
X0041082Y0044019D01*
X0041082Y0042518D01*
X0041832Y0041767D01*
X0044835Y0041767D01*
X0044835Y0040166D02*
X0045585Y0039415D01*
X0045585Y0037914D01*
X0044835Y0037163D01*
X0044835Y0035562D02*
X0045585Y0034811D01*
X0045585Y0033310D01*
X0044835Y0032559D01*
X0043334Y0034061D02*
X0043334Y0034811D01*
X0044084Y0035562D01*
X0044835Y0035562D01*
X0043334Y0034811D02*
X0042583Y0035562D01*
X0041832Y0035562D01*
X0041082Y0034811D01*
X0041082Y0033310D01*
X0041832Y0032559D01*
X0041832Y0037163D02*
X0041082Y0037914D01*
X0041082Y0039415D01*
X0041832Y0040166D01*
X0042583Y0040166D01*
X0043334Y0039415D01*
X0044084Y0040166D01*
X0044835Y0040166D01*
X0043334Y0039415D02*
X0043334Y0038665D01*
X0037085Y0037066D02*
X0037085Y0034063D01*
X0034083Y0037066D01*
X0033332Y0037066D01*
X0032582Y0036315D01*
X0032582Y0034814D01*
X0033332Y0034063D01*
X0033332Y0032462D02*
X0034834Y0032462D01*
X0035584Y0031711D01*
X0035584Y0029459D01*
X0037085Y0029459D02*
X0032582Y0029459D01*
X0032582Y0031711D01*
X0033332Y0032462D01*
X0035584Y0030961D02*
X0037085Y0032462D01*
X0031912Y0055322D02*
X0031912Y0059825D01*
X0030204Y0143890D02*
X0030955Y0144641D01*
X0030955Y0145391D01*
X0030204Y0146142D01*
X0026451Y0146142D01*
X0026451Y0145391D02*
X0026451Y0146893D01*
X0028703Y0148494D02*
X0028703Y0151497D01*
X0030955Y0150746D02*
X0026451Y0150746D01*
X0028703Y0148494D01*
X0073751Y0160579D02*
X0073751Y0162080D01*
X0074502Y0162831D01*
X0077504Y0159828D01*
X0078255Y0160579D01*
X0078255Y0162080D01*
X0077504Y0162831D01*
X0074502Y0162831D01*
X0073751Y0160579D02*
X0074502Y0159828D01*
X0077504Y0159828D01*
X0077504Y0164432D02*
X0077504Y0165183D01*
X0078255Y0165183D01*
X0078255Y0164432D01*
X0077504Y0164432D01*
X0078255Y0166734D02*
X0078255Y0169737D01*
X0078255Y0168236D02*
X0073751Y0168236D01*
X0075252Y0166734D01*
X0075252Y0171338D02*
X0077504Y0171338D01*
X0078255Y0172089D01*
X0078255Y0174341D01*
X0075252Y0174341D01*
X0076003Y0175942D02*
X0076003Y0177443D01*
X0078255Y0175942D02*
X0073751Y0175942D01*
X0073751Y0178945D01*
X0087549Y0193253D02*
X0088300Y0192503D01*
X0089801Y0192503D01*
X0090552Y0193253D01*
X0090552Y0197007D01*
X0092153Y0196256D02*
X0092904Y0197007D01*
X0094405Y0197007D01*
X0095156Y0196256D01*
X0094405Y0194755D02*
X0092904Y0194755D01*
X0092153Y0195505D01*
X0092153Y0196256D01*
X0093654Y0197757D02*
X0093654Y0191752D01*
X0092904Y0192503D02*
X0094405Y0192503D01*
X0095156Y0193253D01*
X0095156Y0194004D01*
X0094405Y0194755D01*
X0096757Y0194755D02*
X0099760Y0194755D01*
X0099009Y0192503D02*
X0099009Y0197007D01*
X0096757Y0194755D01*
X0092904Y0192503D02*
X0092153Y0193253D01*
X0087549Y0193253D02*
X0087549Y0197007D01*
X0087549Y0200003D02*
X0087549Y0200753D01*
X0090552Y0203756D01*
X0090552Y0204507D01*
X0087549Y0204507D01*
X0084447Y0204507D02*
X0084447Y0200003D01*
X0085948Y0200003D02*
X0082945Y0200003D01*
X0081344Y0202255D02*
X0080593Y0201504D01*
X0078341Y0201504D01*
X0078341Y0200003D02*
X0078341Y0204507D01*
X0080593Y0204507D01*
X0081344Y0203756D01*
X0081344Y0202255D01*
X0082945Y0203005D02*
X0084447Y0204507D01*
X0092153Y0203756D02*
X0092153Y0200753D01*
X0095156Y0203756D01*
X0095156Y0200753D01*
X0094405Y0200003D01*
X0092904Y0200003D01*
X0092153Y0200753D01*
X0092153Y0203756D02*
X0092904Y0204507D01*
X0094405Y0204507D01*
X0095156Y0203756D01*
X0096757Y0203756D02*
X0097508Y0204507D01*
X0099009Y0204507D01*
X0099760Y0203756D01*
X0099760Y0203005D01*
X0096757Y0200003D01*
X0099760Y0200003D01*
X0092003Y0178945D02*
X0092003Y0175942D01*
X0089751Y0178194D01*
X0094255Y0178194D01*
X0093504Y0174341D02*
X0094255Y0173590D01*
X0094255Y0172089D01*
X0093504Y0171338D01*
X0090502Y0171338D01*
X0089751Y0172089D01*
X0089751Y0173590D01*
X0090502Y0174341D01*
X0098227Y0174995D02*
X0098227Y0171242D01*
X0098978Y0170491D01*
X0100479Y0170491D01*
X0101230Y0171242D01*
X0101230Y0174995D01*
X0102831Y0174244D02*
X0102831Y0173494D01*
X0103582Y0172743D01*
X0105083Y0172743D01*
X0105834Y0171992D01*
X0105834Y0171242D01*
X0105083Y0170491D01*
X0103582Y0170491D01*
X0102831Y0171242D01*
X0104332Y0169740D02*
X0104332Y0175745D01*
X0103582Y0174995D02*
X0105083Y0174995D01*
X0105834Y0174244D01*
X0107435Y0173494D02*
X0108936Y0174995D01*
X0108936Y0170491D01*
X0107435Y0170491D02*
X0110438Y0170491D01*
X0103582Y0174995D02*
X0102831Y0174244D01*
X0076740Y0200753D02*
X0075989Y0200003D01*
X0074488Y0200003D01*
X0073737Y0200753D01*
X0073737Y0203756D01*
X0074488Y0204507D01*
X0075989Y0204507D01*
X0076740Y0203756D01*
X0072136Y0204507D02*
X0072136Y0200003D01*
X0069133Y0200003D02*
X0069133Y0204507D01*
X0070635Y0203005D01*
X0072136Y0204507D01*
X0133751Y0145250D02*
X0138255Y0145250D01*
X0138255Y0146751D02*
X0138255Y0143748D01*
X0137504Y0142147D02*
X0138255Y0141396D01*
X0138255Y0139895D01*
X0137504Y0139144D01*
X0134502Y0139144D01*
X0133751Y0139895D01*
X0133751Y0141396D01*
X0134502Y0142147D01*
X0135252Y0143748D02*
X0133751Y0145250D01*
X0149751Y0147552D02*
X0154255Y0147552D01*
X0154255Y0149053D02*
X0154255Y0146050D01*
X0154255Y0144499D02*
X0154255Y0143748D01*
X0153504Y0143748D01*
X0153504Y0144499D01*
X0154255Y0144499D01*
X0153504Y0142147D02*
X0150502Y0142147D01*
X0153504Y0139144D01*
X0154255Y0139895D01*
X0154255Y0141396D01*
X0153504Y0142147D01*
X0150502Y0142147D02*
X0149751Y0141396D01*
X0149751Y0139895D01*
X0150502Y0139144D01*
X0153504Y0139144D01*
X0151252Y0146050D02*
X0149751Y0147552D01*
X0151252Y0155258D02*
X0153504Y0155258D01*
X0154255Y0156009D01*
X0154255Y0158261D01*
X0151252Y0158261D01*
X0152003Y0159862D02*
X0152003Y0161363D01*
X0154255Y0159862D02*
X0149751Y0159862D01*
X0149751Y0162865D01*
X0157179Y0175891D02*
X0156428Y0176642D01*
X0156428Y0178143D01*
X0157179Y0178894D01*
X0160181Y0175891D01*
X0160932Y0176642D01*
X0160932Y0178143D01*
X0160181Y0178894D01*
X0157179Y0178894D01*
X0157929Y0182797D02*
X0156428Y0184299D01*
X0160932Y0184299D01*
X0160932Y0185800D02*
X0160932Y0182797D01*
X0160932Y0181246D02*
X0160932Y0180495D01*
X0160181Y0180495D01*
X0160181Y0181246D01*
X0160932Y0181246D01*
X0160181Y0187401D02*
X0157929Y0187401D01*
X0160181Y0187401D02*
X0160932Y0188152D01*
X0160932Y0190404D01*
X0157929Y0190404D01*
X0158680Y0192005D02*
X0158680Y0193506D01*
X0160932Y0192005D02*
X0156428Y0192005D01*
X0156428Y0195008D01*
X0172428Y0195008D02*
X0173179Y0193506D01*
X0174680Y0192005D01*
X0174680Y0194257D01*
X0175431Y0195008D01*
X0176181Y0195008D01*
X0176932Y0194257D01*
X0176932Y0192756D01*
X0176181Y0192005D01*
X0174680Y0192005D01*
X0176181Y0190404D02*
X0176932Y0189653D01*
X0176932Y0188152D01*
X0176181Y0187401D01*
X0173179Y0187401D01*
X0172428Y0188152D01*
X0172428Y0189653D01*
X0173179Y0190404D01*
X0160181Y0175891D02*
X0157179Y0175891D01*
X0190062Y0176116D02*
X0194566Y0176116D01*
X0194566Y0174615D02*
X0194566Y0177617D01*
X0191563Y0174615D02*
X0190062Y0176116D01*
X0190813Y0173013D02*
X0192314Y0173013D01*
X0193064Y0172263D01*
X0193064Y0170011D01*
X0193064Y0171512D02*
X0194566Y0173013D01*
X0194566Y0170011D02*
X0190062Y0170011D01*
X0190062Y0172263D01*
X0190813Y0173013D01*
X0198562Y0173861D02*
X0198562Y0175363D01*
X0199313Y0176113D01*
X0200063Y0176113D01*
X0200814Y0175363D01*
X0201564Y0176113D01*
X0202315Y0176113D01*
X0203066Y0175363D01*
X0203066Y0173861D01*
X0202315Y0173111D01*
X0200814Y0174612D02*
X0200814Y0175363D01*
X0199313Y0173111D02*
X0198562Y0173861D01*
X0199313Y0177715D02*
X0198562Y0178465D01*
X0198562Y0179966D01*
X0199313Y0180717D01*
X0200063Y0180717D01*
X0200814Y0179966D01*
X0201564Y0180717D01*
X0202315Y0180717D01*
X0203066Y0179966D01*
X0203066Y0178465D01*
X0202315Y0177715D01*
X0200814Y0179216D02*
X0200814Y0179966D01*
X0202315Y0182318D02*
X0199313Y0182318D01*
X0198562Y0183069D01*
X0198562Y0184570D01*
X0199313Y0185321D01*
X0202315Y0182318D01*
X0203066Y0183069D01*
X0203066Y0184570D01*
X0202315Y0185321D01*
X0199313Y0185321D01*
X0197843Y0192676D02*
X0196342Y0192676D01*
X0195591Y0193427D01*
X0195591Y0194928D01*
X0196342Y0195679D01*
X0197843Y0195679D01*
X0198594Y0194928D01*
X0198594Y0194177D01*
X0195591Y0194177D01*
X0194007Y0195679D02*
X0193256Y0195679D01*
X0191755Y0194177D01*
X0191755Y0192676D02*
X0191755Y0195679D01*
X0191755Y0200676D02*
X0194757Y0200676D01*
X0196359Y0200676D02*
X0199361Y0200676D01*
X0200963Y0200676D02*
X0203214Y0200676D01*
X0203965Y0201427D01*
X0203965Y0204429D01*
X0203214Y0205180D01*
X0200963Y0205180D01*
X0200963Y0200676D01*
X0203198Y0197180D02*
X0203198Y0192676D01*
X0200946Y0192676D01*
X0200195Y0193427D01*
X0200195Y0194928D01*
X0200946Y0195679D01*
X0203198Y0195679D01*
X0205566Y0200676D02*
X0208569Y0200676D01*
X0207068Y0200676D02*
X0207068Y0205180D01*
X0205566Y0203679D01*
X0199361Y0205180D02*
X0196359Y0205180D01*
X0196359Y0200676D01*
X0196359Y0202928D02*
X0197860Y0202928D01*
X0191755Y0205180D02*
X0191755Y0200676D01*
D13*
X0158569Y0183961D02*
X0153965Y0183961D01*
X0153965Y0187031D01*
X0156267Y0185496D02*
X0156267Y0183961D01*
X0155499Y0182427D02*
X0158569Y0182427D01*
X0158569Y0180125D01*
X0157801Y0179357D01*
X0155499Y0179357D01*
X0154732Y0177823D02*
X0157801Y0174754D01*
X0158569Y0175521D01*
X0158569Y0177055D01*
X0157801Y0177823D01*
X0154732Y0177823D01*
X0153965Y0177055D01*
X0153965Y0175521D01*
X0154732Y0174754D01*
X0157801Y0174754D01*
X0158569Y0173219D02*
X0158569Y0170150D01*
X0158569Y0171684D02*
X0153965Y0171684D01*
X0155499Y0170150D01*
X0133569Y0170917D02*
X0133569Y0172452D01*
X0132801Y0173219D01*
X0132801Y0174754D02*
X0133569Y0175521D01*
X0133569Y0177055D01*
X0132801Y0177823D01*
X0131267Y0177823D01*
X0130499Y0177055D01*
X0130499Y0176288D01*
X0131267Y0174754D01*
X0128965Y0174754D01*
X0128965Y0177823D01*
X0129732Y0173219D02*
X0128965Y0172452D01*
X0128965Y0170917D01*
X0129732Y0170150D01*
X0132801Y0170150D01*
X0133569Y0170917D01*
X0148988Y0110856D02*
X0148220Y0110089D01*
X0148220Y0107019D01*
X0148988Y0106252D01*
X0150522Y0106252D01*
X0151290Y0107019D01*
X0152824Y0106252D02*
X0155894Y0109321D01*
X0155894Y0110089D01*
X0155126Y0110856D01*
X0153592Y0110856D01*
X0152824Y0110089D01*
X0151290Y0110089D02*
X0150522Y0110856D01*
X0148988Y0110856D01*
X0152824Y0106252D02*
X0155894Y0106252D01*
X0155126Y0085856D02*
X0153592Y0085856D01*
X0152824Y0085089D01*
X0152824Y0082019D01*
X0155894Y0085089D01*
X0155894Y0082019D01*
X0155126Y0081252D01*
X0153592Y0081252D01*
X0152824Y0082019D01*
X0151290Y0081252D02*
X0148220Y0081252D01*
X0149755Y0081252D02*
X0149755Y0085856D01*
X0148220Y0084321D01*
X0155126Y0085856D02*
X0155894Y0085089D01*
X0157428Y0084321D02*
X0157428Y0082019D01*
X0158196Y0081252D01*
X0160498Y0081252D01*
X0160498Y0084321D01*
X0162032Y0083554D02*
X0163567Y0083554D01*
X0162032Y0085856D02*
X0165102Y0085856D01*
X0162032Y0085856D02*
X0162032Y0081252D01*
D14*
X0037498Y0185905D02*
X0037498Y0187406D01*
X0036498Y0187406D02*
X0037498Y0185905D01*
X0036498Y0185905D02*
X0036498Y0187406D01*
X0036016Y0187406D02*
X0035515Y0187406D01*
X0035766Y0187406D02*
X0035766Y0185905D01*
X0036016Y0185905D02*
X0035515Y0185905D01*
X0034793Y0186406D02*
X0034042Y0186406D01*
X0034042Y0185905D02*
X0034042Y0187406D01*
X0034793Y0187406D01*
X0035043Y0187156D01*
X0035043Y0186656D01*
X0034793Y0186406D01*
X0033570Y0186656D02*
X0033570Y0186155D01*
X0033320Y0185905D01*
X0032819Y0185905D01*
X0032569Y0186155D01*
X0032569Y0186656D02*
X0033069Y0186906D01*
X0033320Y0186906D01*
X0033570Y0186656D01*
X0033570Y0187406D02*
X0032569Y0187406D01*
X0032569Y0186656D01*
X0032096Y0186656D02*
X0031096Y0186656D01*
X0030623Y0186906D02*
X0030373Y0186656D01*
X0029622Y0186656D01*
X0029622Y0187406D02*
X0030373Y0187406D01*
X0030623Y0187156D01*
X0030623Y0186906D01*
X0030373Y0186656D02*
X0030623Y0186406D01*
X0030623Y0186155D01*
X0030373Y0185905D01*
X0029622Y0185905D01*
X0029622Y0187406D01*
X0029141Y0187406D02*
X0028640Y0187406D01*
X0028890Y0187406D02*
X0028890Y0185905D01*
X0028640Y0185905D02*
X0029141Y0185905D01*
X0028168Y0185905D02*
X0028168Y0187406D01*
X0027167Y0187406D02*
X0028168Y0185905D01*
X0027167Y0185905D02*
X0027167Y0187406D01*
X0026685Y0187406D02*
X0026185Y0187406D01*
X0026435Y0187406D02*
X0026435Y0185905D01*
X0026185Y0185905D02*
X0026685Y0185905D01*
X0025712Y0185905D02*
X0025712Y0187406D01*
X0025212Y0186906D01*
X0024712Y0187406D01*
X0024712Y0185905D01*
X0024239Y0186656D02*
X0023238Y0186656D01*
X0022766Y0186906D02*
X0022516Y0186656D01*
X0021765Y0186656D01*
X0021293Y0186406D02*
X0021293Y0186155D01*
X0021042Y0185905D01*
X0020542Y0185905D01*
X0020292Y0186155D01*
X0019819Y0186155D02*
X0019819Y0187406D01*
X0020292Y0187156D02*
X0020292Y0186906D01*
X0020542Y0186656D01*
X0021042Y0186656D01*
X0021293Y0186406D01*
X0021765Y0185905D02*
X0022516Y0185905D01*
X0022766Y0186155D01*
X0022766Y0186406D01*
X0022516Y0186656D01*
X0022766Y0186906D02*
X0022766Y0187156D01*
X0022516Y0187406D01*
X0021765Y0187406D01*
X0021765Y0185905D01*
X0021293Y0187156D02*
X0021042Y0187406D01*
X0020542Y0187406D01*
X0020292Y0187156D01*
X0019819Y0186155D02*
X0019569Y0185905D01*
X0019069Y0185905D01*
X0018819Y0186155D01*
X0018819Y0187406D01*
X0019069Y0190905D02*
X0019319Y0190905D01*
X0019569Y0191155D01*
X0019569Y0192406D01*
X0019319Y0192406D02*
X0019819Y0192406D01*
X0020292Y0192156D02*
X0020542Y0192406D01*
X0021042Y0192406D01*
X0021293Y0192156D01*
X0021293Y0191906D01*
X0020292Y0190905D01*
X0021293Y0190905D01*
X0019069Y0190905D02*
X0018819Y0191155D01*
M02*
