G75*
%MOIN*%
%OFA0B0*%
%FSLAX25Y25*%
%IPPOS*%
%LPD*%
%AMOC8*
5,1,8,0,0,1.08239X$1,22.5*
%
%ADD10C,0.00000*%
%ADD11OC8,0.05200*%
%ADD12R,0.11417X0.09843*%
%ADD13R,0.09843X0.11417*%
%ADD14C,0.07400*%
%ADD15R,0.09843X0.01969*%
%ADD16R,0.09843X0.07874*%
%ADD17C,0.05200*%
%ADD18C,0.05150*%
%ADD19C,0.05937*%
%ADD20C,0.01600*%
%ADD21C,0.01000*%
%ADD22R,0.03962X0.03962*%
%ADD23C,0.04000*%
D10*
X0013611Y0013611D02*
X0013611Y0210461D01*
X0210461Y0210461D01*
X0210461Y0013611D01*
X0013611Y0013611D01*
X0031997Y0177194D02*
X0031999Y0177278D01*
X0032005Y0177361D01*
X0032015Y0177444D01*
X0032029Y0177527D01*
X0032046Y0177609D01*
X0032068Y0177690D01*
X0032093Y0177769D01*
X0032122Y0177848D01*
X0032155Y0177925D01*
X0032191Y0178000D01*
X0032231Y0178074D01*
X0032274Y0178146D01*
X0032321Y0178215D01*
X0032371Y0178282D01*
X0032424Y0178347D01*
X0032480Y0178409D01*
X0032538Y0178469D01*
X0032600Y0178526D01*
X0032664Y0178579D01*
X0032731Y0178630D01*
X0032800Y0178677D01*
X0032871Y0178722D01*
X0032944Y0178762D01*
X0033019Y0178799D01*
X0033096Y0178833D01*
X0033174Y0178863D01*
X0033253Y0178889D01*
X0033334Y0178912D01*
X0033416Y0178930D01*
X0033498Y0178945D01*
X0033581Y0178956D01*
X0033664Y0178963D01*
X0033748Y0178966D01*
X0033832Y0178965D01*
X0033915Y0178960D01*
X0033999Y0178951D01*
X0034081Y0178938D01*
X0034163Y0178922D01*
X0034244Y0178901D01*
X0034325Y0178877D01*
X0034403Y0178849D01*
X0034481Y0178817D01*
X0034557Y0178781D01*
X0034631Y0178742D01*
X0034703Y0178700D01*
X0034773Y0178654D01*
X0034841Y0178605D01*
X0034906Y0178553D01*
X0034969Y0178498D01*
X0035029Y0178440D01*
X0035087Y0178379D01*
X0035141Y0178315D01*
X0035193Y0178249D01*
X0035241Y0178181D01*
X0035286Y0178110D01*
X0035327Y0178037D01*
X0035366Y0177963D01*
X0035400Y0177887D01*
X0035431Y0177809D01*
X0035458Y0177730D01*
X0035482Y0177649D01*
X0035501Y0177568D01*
X0035517Y0177486D01*
X0035529Y0177403D01*
X0035537Y0177319D01*
X0035541Y0177236D01*
X0035541Y0177152D01*
X0035537Y0177069D01*
X0035529Y0176985D01*
X0035517Y0176902D01*
X0035501Y0176820D01*
X0035482Y0176739D01*
X0035458Y0176658D01*
X0035431Y0176579D01*
X0035400Y0176501D01*
X0035366Y0176425D01*
X0035327Y0176351D01*
X0035286Y0176278D01*
X0035241Y0176207D01*
X0035193Y0176139D01*
X0035141Y0176073D01*
X0035087Y0176009D01*
X0035029Y0175948D01*
X0034969Y0175890D01*
X0034906Y0175835D01*
X0034841Y0175783D01*
X0034773Y0175734D01*
X0034703Y0175688D01*
X0034631Y0175646D01*
X0034557Y0175607D01*
X0034481Y0175571D01*
X0034403Y0175539D01*
X0034325Y0175511D01*
X0034244Y0175487D01*
X0034163Y0175466D01*
X0034081Y0175450D01*
X0033999Y0175437D01*
X0033915Y0175428D01*
X0033832Y0175423D01*
X0033748Y0175422D01*
X0033664Y0175425D01*
X0033581Y0175432D01*
X0033498Y0175443D01*
X0033416Y0175458D01*
X0033334Y0175476D01*
X0033253Y0175499D01*
X0033174Y0175525D01*
X0033096Y0175555D01*
X0033019Y0175589D01*
X0032944Y0175626D01*
X0032871Y0175666D01*
X0032800Y0175711D01*
X0032731Y0175758D01*
X0032664Y0175809D01*
X0032600Y0175862D01*
X0032538Y0175919D01*
X0032480Y0175979D01*
X0032424Y0176041D01*
X0032371Y0176106D01*
X0032321Y0176173D01*
X0032274Y0176242D01*
X0032231Y0176314D01*
X0032191Y0176388D01*
X0032155Y0176463D01*
X0032122Y0176540D01*
X0032093Y0176619D01*
X0032068Y0176698D01*
X0032046Y0176779D01*
X0032029Y0176861D01*
X0032015Y0176944D01*
X0032005Y0177027D01*
X0031999Y0177110D01*
X0031997Y0177194D01*
X0031997Y0194517D02*
X0031999Y0194601D01*
X0032005Y0194684D01*
X0032015Y0194767D01*
X0032029Y0194850D01*
X0032046Y0194932D01*
X0032068Y0195013D01*
X0032093Y0195092D01*
X0032122Y0195171D01*
X0032155Y0195248D01*
X0032191Y0195323D01*
X0032231Y0195397D01*
X0032274Y0195469D01*
X0032321Y0195538D01*
X0032371Y0195605D01*
X0032424Y0195670D01*
X0032480Y0195732D01*
X0032538Y0195792D01*
X0032600Y0195849D01*
X0032664Y0195902D01*
X0032731Y0195953D01*
X0032800Y0196000D01*
X0032871Y0196045D01*
X0032944Y0196085D01*
X0033019Y0196122D01*
X0033096Y0196156D01*
X0033174Y0196186D01*
X0033253Y0196212D01*
X0033334Y0196235D01*
X0033416Y0196253D01*
X0033498Y0196268D01*
X0033581Y0196279D01*
X0033664Y0196286D01*
X0033748Y0196289D01*
X0033832Y0196288D01*
X0033915Y0196283D01*
X0033999Y0196274D01*
X0034081Y0196261D01*
X0034163Y0196245D01*
X0034244Y0196224D01*
X0034325Y0196200D01*
X0034403Y0196172D01*
X0034481Y0196140D01*
X0034557Y0196104D01*
X0034631Y0196065D01*
X0034703Y0196023D01*
X0034773Y0195977D01*
X0034841Y0195928D01*
X0034906Y0195876D01*
X0034969Y0195821D01*
X0035029Y0195763D01*
X0035087Y0195702D01*
X0035141Y0195638D01*
X0035193Y0195572D01*
X0035241Y0195504D01*
X0035286Y0195433D01*
X0035327Y0195360D01*
X0035366Y0195286D01*
X0035400Y0195210D01*
X0035431Y0195132D01*
X0035458Y0195053D01*
X0035482Y0194972D01*
X0035501Y0194891D01*
X0035517Y0194809D01*
X0035529Y0194726D01*
X0035537Y0194642D01*
X0035541Y0194559D01*
X0035541Y0194475D01*
X0035537Y0194392D01*
X0035529Y0194308D01*
X0035517Y0194225D01*
X0035501Y0194143D01*
X0035482Y0194062D01*
X0035458Y0193981D01*
X0035431Y0193902D01*
X0035400Y0193824D01*
X0035366Y0193748D01*
X0035327Y0193674D01*
X0035286Y0193601D01*
X0035241Y0193530D01*
X0035193Y0193462D01*
X0035141Y0193396D01*
X0035087Y0193332D01*
X0035029Y0193271D01*
X0034969Y0193213D01*
X0034906Y0193158D01*
X0034841Y0193106D01*
X0034773Y0193057D01*
X0034703Y0193011D01*
X0034631Y0192969D01*
X0034557Y0192930D01*
X0034481Y0192894D01*
X0034403Y0192862D01*
X0034325Y0192834D01*
X0034244Y0192810D01*
X0034163Y0192789D01*
X0034081Y0192773D01*
X0033999Y0192760D01*
X0033915Y0192751D01*
X0033832Y0192746D01*
X0033748Y0192745D01*
X0033664Y0192748D01*
X0033581Y0192755D01*
X0033498Y0192766D01*
X0033416Y0192781D01*
X0033334Y0192799D01*
X0033253Y0192822D01*
X0033174Y0192848D01*
X0033096Y0192878D01*
X0033019Y0192912D01*
X0032944Y0192949D01*
X0032871Y0192989D01*
X0032800Y0193034D01*
X0032731Y0193081D01*
X0032664Y0193132D01*
X0032600Y0193185D01*
X0032538Y0193242D01*
X0032480Y0193302D01*
X0032424Y0193364D01*
X0032371Y0193429D01*
X0032321Y0193496D01*
X0032274Y0193565D01*
X0032231Y0193637D01*
X0032191Y0193711D01*
X0032155Y0193786D01*
X0032122Y0193863D01*
X0032093Y0193942D01*
X0032068Y0194021D01*
X0032046Y0194102D01*
X0032029Y0194184D01*
X0032015Y0194267D01*
X0032005Y0194350D01*
X0031999Y0194433D01*
X0031997Y0194517D01*
D11*
X0084005Y0178296D03*
X0084005Y0168296D03*
X0113611Y0192253D03*
X0108611Y0199753D03*
X0118611Y0199753D03*
X0166682Y0194359D03*
X0166682Y0184359D03*
X0179005Y0198926D03*
X0189005Y0198926D03*
X0200816Y0201761D03*
X0200816Y0161761D03*
X0144005Y0150894D03*
X0144005Y0140894D03*
X0144202Y0071879D03*
X0144202Y0060068D03*
X0184202Y0060068D03*
X0184202Y0071879D03*
X0077076Y0044280D03*
X0077076Y0034280D03*
X0043335Y0021209D03*
X0029162Y0053572D03*
X0019162Y0053572D03*
X0043335Y0061209D03*
D12*
X0150225Y0096052D03*
X0175816Y0096052D03*
D13*
X0143769Y0172154D03*
X0143769Y0197745D03*
D14*
X0205383Y0148650D03*
X0205383Y0138650D03*
X0205383Y0128650D03*
X0205383Y0118650D03*
X0205383Y0108650D03*
X0205383Y0098650D03*
X0205383Y0088650D03*
X0205383Y0078650D03*
X0205225Y0059635D03*
X0205225Y0049635D03*
X0205225Y0039635D03*
X0205225Y0029635D03*
X0205225Y0019635D03*
X0196057Y0017743D03*
X0196057Y0035543D03*
X0170457Y0035543D03*
X0161450Y0035149D03*
X0170457Y0017743D03*
X0161450Y0017349D03*
X0135850Y0017349D03*
X0135850Y0035149D03*
X0075619Y0080737D03*
X0075619Y0090737D03*
X0075619Y0100737D03*
X0019005Y0097548D03*
X0019005Y0107548D03*
X0019005Y0117548D03*
X0019005Y0127548D03*
X0019005Y0137548D03*
X0019005Y0147548D03*
X0019005Y0087548D03*
X0019005Y0077548D03*
D15*
X0043611Y0179556D03*
X0043611Y0182706D03*
X0043611Y0185855D03*
X0043611Y0189005D03*
X0043611Y0192154D03*
D16*
X0043611Y0203572D03*
X0021957Y0203572D03*
X0021957Y0168139D03*
X0043611Y0168139D03*
D17*
X0091877Y0164241D02*
X0097077Y0164241D01*
X0097077Y0154241D02*
X0091877Y0154241D01*
X0091877Y0144241D02*
X0097077Y0144241D01*
X0097077Y0134241D02*
X0091877Y0134241D01*
X0091877Y0124241D02*
X0097077Y0124241D01*
X0097077Y0114241D02*
X0091877Y0114241D01*
X0091877Y0104241D02*
X0097077Y0104241D01*
X0097077Y0094241D02*
X0091877Y0094241D01*
X0091877Y0084241D02*
X0097077Y0084241D01*
X0097077Y0074241D02*
X0091877Y0074241D01*
X0091877Y0064241D02*
X0097077Y0064241D01*
X0097077Y0054241D02*
X0091877Y0054241D01*
X0091877Y0044241D02*
X0097077Y0044241D01*
X0097077Y0034241D02*
X0091877Y0034241D01*
X0121877Y0034241D02*
X0127077Y0034241D01*
X0127077Y0044241D02*
X0121877Y0044241D01*
X0121877Y0054241D02*
X0127077Y0054241D01*
X0127077Y0064241D02*
X0121877Y0064241D01*
X0121877Y0074241D02*
X0127077Y0074241D01*
X0127077Y0084241D02*
X0121877Y0084241D01*
X0121877Y0094241D02*
X0127077Y0094241D01*
X0127077Y0104241D02*
X0121877Y0104241D01*
X0121877Y0114241D02*
X0127077Y0114241D01*
X0127077Y0124241D02*
X0121877Y0124241D01*
X0121877Y0134241D02*
X0127077Y0134241D01*
X0127077Y0144241D02*
X0121877Y0144241D01*
X0121877Y0154241D02*
X0127077Y0154241D01*
X0127077Y0164241D02*
X0121877Y0164241D01*
D18*
X0083454Y0199595D03*
X0075580Y0199595D03*
X0067706Y0199595D03*
D19*
X0059831Y0199595D03*
X0091328Y0199595D03*
D20*
X0088414Y0196682D01*
X0088414Y0186839D01*
X0084674Y0178965D02*
X0084005Y0178296D01*
X0084477Y0178769D01*
X0084477Y0195411D01*
X0084477Y0198650D01*
X0084674Y0178965D02*
X0096288Y0178965D01*
X0109576Y0192253D01*
X0113611Y0192253D01*
X0108611Y0199753D02*
X0108611Y0203099D01*
X0112036Y0206524D01*
X0134989Y0206524D01*
X0143769Y0197745D01*
X0163296Y0197745D01*
X0166682Y0194359D01*
X0174438Y0194359D01*
X0179005Y0198926D01*
X0189005Y0198926D02*
X0197981Y0198926D01*
X0200816Y0201761D01*
X0143532Y0151406D02*
X0139819Y0155119D01*
X0130698Y0164241D01*
X0124477Y0164241D01*
X0094162Y0154556D02*
X0062036Y0154556D01*
X0055028Y0147548D01*
X0019005Y0147548D01*
X0019005Y0137548D02*
X0070619Y0137548D01*
X0076603Y0143532D01*
X0093769Y0143532D01*
X0094477Y0144241D01*
X0092745Y0115973D02*
X0076603Y0115973D01*
X0065028Y0127548D01*
X0019005Y0127548D01*
X0019005Y0117548D02*
X0059280Y0117548D01*
X0068729Y0108099D01*
X0090619Y0108099D01*
X0094477Y0104241D01*
X0094477Y0114241D02*
X0092745Y0115973D01*
X0077981Y0100737D02*
X0075619Y0100737D01*
X0077981Y0100737D02*
X0094477Y0084241D01*
X0087981Y0080737D02*
X0094477Y0074241D01*
X0087981Y0080737D02*
X0075619Y0080737D01*
X0068729Y0072666D02*
X0086052Y0072666D01*
X0094477Y0064241D01*
X0094477Y0054241D02*
X0093217Y0052981D01*
X0080540Y0052981D01*
X0064792Y0068729D01*
X0060855Y0068729D01*
X0032036Y0097548D01*
X0019005Y0097548D01*
X0019005Y0107548D02*
X0033847Y0107548D01*
X0068729Y0072666D01*
X0043335Y0061209D02*
X0035698Y0053572D01*
X0029162Y0053572D01*
X0019162Y0053572D02*
X0017548Y0051957D01*
X0017548Y0037233D01*
X0021485Y0033296D01*
X0029359Y0033296D01*
X0072666Y0045107D02*
X0081111Y0045107D01*
X0093611Y0045107D01*
X0094477Y0044241D01*
X0072666Y0045107D02*
X0030225Y0087548D01*
X0019005Y0087548D01*
X0056918Y0186839D02*
X0050422Y0193335D01*
X0043611Y0192154D01*
X0124477Y0114241D02*
X0126209Y0115973D01*
X0139595Y0115973D01*
D21*
X0144111Y0102711D02*
X0156711Y0102711D01*
X0157611Y0101811D01*
X0157611Y0090111D01*
X0155811Y0088311D01*
X0119811Y0088311D01*
X0117111Y0085611D01*
X0117111Y0082911D01*
X0121611Y0078411D01*
X0128811Y0078411D01*
X0136011Y0071211D01*
X0144111Y0071211D01*
X0144202Y0071879D01*
X0141411Y0074811D02*
X0149511Y0082911D01*
X0175611Y0082911D01*
X0199911Y0107211D01*
X0199911Y0112611D01*
X0205311Y0118011D01*
X0205383Y0118650D01*
X0201711Y0124311D02*
X0205311Y0127911D01*
X0205383Y0128650D01*
X0201711Y0124311D02*
X0125211Y0124311D01*
X0124477Y0124241D01*
X0124477Y0134241D02*
X0125211Y0135111D01*
X0202611Y0135111D01*
X0205311Y0137811D01*
X0205383Y0138650D01*
X0205311Y0148611D02*
X0205383Y0148650D01*
X0205311Y0148611D02*
X0193611Y0136911D01*
X0142311Y0136911D01*
X0135111Y0144111D01*
X0125211Y0144111D01*
X0124477Y0144241D01*
X0117111Y0150411D02*
X0117111Y0111711D01*
X0124311Y0104511D01*
X0124477Y0104241D01*
X0119811Y0100011D02*
X0141411Y0100011D01*
X0144111Y0102711D01*
X0149511Y0096411D02*
X0150225Y0096052D01*
X0149511Y0096411D02*
X0130611Y0096411D01*
X0128811Y0098211D01*
X0098211Y0098211D01*
X0094611Y0094611D01*
X0094477Y0094241D01*
X0115311Y0104511D02*
X0119811Y0100011D01*
X0115311Y0104511D02*
X0115311Y0143211D01*
X0094611Y0163911D01*
X0094477Y0164241D01*
X0094611Y0172911D02*
X0117111Y0150411D01*
X0139611Y0149511D02*
X0139611Y0154911D01*
X0139819Y0155119D01*
X0139611Y0149511D02*
X0143211Y0145911D01*
X0143211Y0141411D01*
X0144005Y0140894D01*
X0143769Y0172154D02*
X0143211Y0172911D01*
X0143211Y0174711D01*
X0118911Y0199011D01*
X0118611Y0199753D01*
X0094611Y0172911D02*
X0064911Y0172911D01*
X0047811Y0190011D01*
X0040611Y0190011D01*
X0043611Y0189005D01*
X0043611Y0185855D02*
X0040611Y0186411D01*
X0046011Y0186411D01*
X0061311Y0171111D01*
X0059511Y0167511D02*
X0083811Y0167511D01*
X0084005Y0168296D01*
X0059511Y0167511D02*
X0046911Y0180111D01*
X0040611Y0180111D01*
X0043611Y0179556D01*
X0043611Y0182706D02*
X0039711Y0184611D01*
X0031611Y0184611D01*
X0030711Y0185511D01*
X0028011Y0185511D01*
X0023511Y0181011D01*
X0023511Y0175611D01*
X0025311Y0173811D01*
X0025311Y0151311D01*
X0070311Y0199011D02*
X0073911Y0195411D01*
X0084477Y0195411D01*
X0070311Y0199011D02*
X0068511Y0199011D01*
X0067706Y0199595D01*
X0175816Y0096052D02*
X0175611Y0095511D01*
X0164811Y0084711D01*
X0125211Y0084711D01*
X0124477Y0084241D01*
X0137811Y0074811D02*
X0141411Y0074811D01*
X0143211Y0067611D02*
X0164811Y0067611D01*
X0205311Y0108111D01*
X0205383Y0108650D01*
X0205383Y0098650D02*
X0205311Y0098211D01*
X0201711Y0098211D01*
X0169311Y0065811D01*
X0144111Y0065811D01*
X0139611Y0061311D01*
X0139611Y0059511D01*
X0125211Y0045111D01*
X0124477Y0044241D01*
X0127911Y0039711D02*
X0118911Y0039711D01*
X0094611Y0064011D01*
X0094477Y0064241D01*
X0094611Y0045111D02*
X0094477Y0044241D01*
X0094611Y0045111D02*
X0105411Y0045111D01*
X0122511Y0028011D01*
X0143211Y0028011D01*
X0174711Y0059511D01*
X0183711Y0059511D01*
X0184202Y0060068D01*
X0184611Y0059511D01*
X0193611Y0050511D01*
X0204411Y0050511D01*
X0205225Y0049635D01*
X0204411Y0029811D02*
X0194511Y0029811D01*
X0175611Y0048711D01*
X0175611Y0055011D01*
X0184202Y0060068D02*
X0184611Y0060411D01*
X0184611Y0071211D01*
X0184202Y0071879D01*
X0180111Y0072111D02*
X0180111Y0073911D01*
X0194511Y0088311D01*
X0205311Y0088311D01*
X0205383Y0088650D01*
X0180111Y0072111D02*
X0137811Y0029811D01*
X0133311Y0029811D01*
X0129711Y0033411D01*
X0125211Y0033411D01*
X0124477Y0034241D01*
X0127911Y0039711D02*
X0132411Y0035211D01*
X0135111Y0035211D01*
X0135850Y0035149D01*
X0136011Y0035211D01*
X0144111Y0043311D01*
X0144111Y0059511D01*
X0144202Y0060068D01*
X0143211Y0067611D02*
X0130611Y0055011D01*
X0125211Y0055011D01*
X0124477Y0054241D01*
X0106311Y0041511D02*
X0124311Y0023511D01*
X0200811Y0023511D01*
X0204411Y0019911D01*
X0205225Y0019635D01*
X0205225Y0029635D02*
X0204411Y0029811D01*
X0106311Y0041511D02*
X0103611Y0041511D01*
X0094477Y0034241D02*
X0093711Y0033411D01*
X0090111Y0029811D01*
X0075711Y0029811D01*
X0073011Y0032511D01*
X0073011Y0037911D01*
X0027111Y0083811D01*
X0077511Y0038811D02*
X0081111Y0042411D01*
X0081111Y0045107D01*
X0081111Y0045111D01*
X0077511Y0038811D02*
X0077511Y0034311D01*
X0077076Y0034280D01*
D22*
X0029359Y0033296D03*
X0139595Y0115973D03*
X0143532Y0151406D03*
X0094162Y0154556D03*
X0088414Y0186839D03*
X0056918Y0186839D03*
D23*
X0061311Y0171111D03*
X0025311Y0151311D03*
X0027111Y0083811D03*
X0103611Y0041511D03*
X0137811Y0074811D03*
X0175611Y0055011D03*
M02*
