G75*
%MOIN*%
%OFA0B0*%
%FSLAX25Y25*%
%IPPOS*%
%LPD*%
%AMOC8*
5,1,8,0,0,1.08239X$1,22.5*
%
%ADD10C,0.00000*%
%ADD11OC8,0.05200*%
%ADD12C,0.07400*%
%ADD13C,0.05200*%
%ADD14C,0.05150*%
%ADD15C,0.05937*%
%ADD16C,0.01600*%
%ADD17R,0.03962X0.03962*%
%ADD18C,0.01000*%
%ADD19C,0.04000*%
D10*
X0013611Y0013611D02*
X0013611Y0210461D01*
X0210461Y0210461D01*
X0210461Y0013611D01*
X0013611Y0013611D01*
X0031997Y0177194D02*
X0031999Y0177278D01*
X0032005Y0177361D01*
X0032015Y0177444D01*
X0032029Y0177527D01*
X0032046Y0177609D01*
X0032068Y0177690D01*
X0032093Y0177769D01*
X0032122Y0177848D01*
X0032155Y0177925D01*
X0032191Y0178000D01*
X0032231Y0178074D01*
X0032274Y0178146D01*
X0032321Y0178215D01*
X0032371Y0178282D01*
X0032424Y0178347D01*
X0032480Y0178409D01*
X0032538Y0178469D01*
X0032600Y0178526D01*
X0032664Y0178579D01*
X0032731Y0178630D01*
X0032800Y0178677D01*
X0032871Y0178722D01*
X0032944Y0178762D01*
X0033019Y0178799D01*
X0033096Y0178833D01*
X0033174Y0178863D01*
X0033253Y0178889D01*
X0033334Y0178912D01*
X0033416Y0178930D01*
X0033498Y0178945D01*
X0033581Y0178956D01*
X0033664Y0178963D01*
X0033748Y0178966D01*
X0033832Y0178965D01*
X0033915Y0178960D01*
X0033999Y0178951D01*
X0034081Y0178938D01*
X0034163Y0178922D01*
X0034244Y0178901D01*
X0034325Y0178877D01*
X0034403Y0178849D01*
X0034481Y0178817D01*
X0034557Y0178781D01*
X0034631Y0178742D01*
X0034703Y0178700D01*
X0034773Y0178654D01*
X0034841Y0178605D01*
X0034906Y0178553D01*
X0034969Y0178498D01*
X0035029Y0178440D01*
X0035087Y0178379D01*
X0035141Y0178315D01*
X0035193Y0178249D01*
X0035241Y0178181D01*
X0035286Y0178110D01*
X0035327Y0178037D01*
X0035366Y0177963D01*
X0035400Y0177887D01*
X0035431Y0177809D01*
X0035458Y0177730D01*
X0035482Y0177649D01*
X0035501Y0177568D01*
X0035517Y0177486D01*
X0035529Y0177403D01*
X0035537Y0177319D01*
X0035541Y0177236D01*
X0035541Y0177152D01*
X0035537Y0177069D01*
X0035529Y0176985D01*
X0035517Y0176902D01*
X0035501Y0176820D01*
X0035482Y0176739D01*
X0035458Y0176658D01*
X0035431Y0176579D01*
X0035400Y0176501D01*
X0035366Y0176425D01*
X0035327Y0176351D01*
X0035286Y0176278D01*
X0035241Y0176207D01*
X0035193Y0176139D01*
X0035141Y0176073D01*
X0035087Y0176009D01*
X0035029Y0175948D01*
X0034969Y0175890D01*
X0034906Y0175835D01*
X0034841Y0175783D01*
X0034773Y0175734D01*
X0034703Y0175688D01*
X0034631Y0175646D01*
X0034557Y0175607D01*
X0034481Y0175571D01*
X0034403Y0175539D01*
X0034325Y0175511D01*
X0034244Y0175487D01*
X0034163Y0175466D01*
X0034081Y0175450D01*
X0033999Y0175437D01*
X0033915Y0175428D01*
X0033832Y0175423D01*
X0033748Y0175422D01*
X0033664Y0175425D01*
X0033581Y0175432D01*
X0033498Y0175443D01*
X0033416Y0175458D01*
X0033334Y0175476D01*
X0033253Y0175499D01*
X0033174Y0175525D01*
X0033096Y0175555D01*
X0033019Y0175589D01*
X0032944Y0175626D01*
X0032871Y0175666D01*
X0032800Y0175711D01*
X0032731Y0175758D01*
X0032664Y0175809D01*
X0032600Y0175862D01*
X0032538Y0175919D01*
X0032480Y0175979D01*
X0032424Y0176041D01*
X0032371Y0176106D01*
X0032321Y0176173D01*
X0032274Y0176242D01*
X0032231Y0176314D01*
X0032191Y0176388D01*
X0032155Y0176463D01*
X0032122Y0176540D01*
X0032093Y0176619D01*
X0032068Y0176698D01*
X0032046Y0176779D01*
X0032029Y0176861D01*
X0032015Y0176944D01*
X0032005Y0177027D01*
X0031999Y0177110D01*
X0031997Y0177194D01*
X0031997Y0194517D02*
X0031999Y0194601D01*
X0032005Y0194684D01*
X0032015Y0194767D01*
X0032029Y0194850D01*
X0032046Y0194932D01*
X0032068Y0195013D01*
X0032093Y0195092D01*
X0032122Y0195171D01*
X0032155Y0195248D01*
X0032191Y0195323D01*
X0032231Y0195397D01*
X0032274Y0195469D01*
X0032321Y0195538D01*
X0032371Y0195605D01*
X0032424Y0195670D01*
X0032480Y0195732D01*
X0032538Y0195792D01*
X0032600Y0195849D01*
X0032664Y0195902D01*
X0032731Y0195953D01*
X0032800Y0196000D01*
X0032871Y0196045D01*
X0032944Y0196085D01*
X0033019Y0196122D01*
X0033096Y0196156D01*
X0033174Y0196186D01*
X0033253Y0196212D01*
X0033334Y0196235D01*
X0033416Y0196253D01*
X0033498Y0196268D01*
X0033581Y0196279D01*
X0033664Y0196286D01*
X0033748Y0196289D01*
X0033832Y0196288D01*
X0033915Y0196283D01*
X0033999Y0196274D01*
X0034081Y0196261D01*
X0034163Y0196245D01*
X0034244Y0196224D01*
X0034325Y0196200D01*
X0034403Y0196172D01*
X0034481Y0196140D01*
X0034557Y0196104D01*
X0034631Y0196065D01*
X0034703Y0196023D01*
X0034773Y0195977D01*
X0034841Y0195928D01*
X0034906Y0195876D01*
X0034969Y0195821D01*
X0035029Y0195763D01*
X0035087Y0195702D01*
X0035141Y0195638D01*
X0035193Y0195572D01*
X0035241Y0195504D01*
X0035286Y0195433D01*
X0035327Y0195360D01*
X0035366Y0195286D01*
X0035400Y0195210D01*
X0035431Y0195132D01*
X0035458Y0195053D01*
X0035482Y0194972D01*
X0035501Y0194891D01*
X0035517Y0194809D01*
X0035529Y0194726D01*
X0035537Y0194642D01*
X0035541Y0194559D01*
X0035541Y0194475D01*
X0035537Y0194392D01*
X0035529Y0194308D01*
X0035517Y0194225D01*
X0035501Y0194143D01*
X0035482Y0194062D01*
X0035458Y0193981D01*
X0035431Y0193902D01*
X0035400Y0193824D01*
X0035366Y0193748D01*
X0035327Y0193674D01*
X0035286Y0193601D01*
X0035241Y0193530D01*
X0035193Y0193462D01*
X0035141Y0193396D01*
X0035087Y0193332D01*
X0035029Y0193271D01*
X0034969Y0193213D01*
X0034906Y0193158D01*
X0034841Y0193106D01*
X0034773Y0193057D01*
X0034703Y0193011D01*
X0034631Y0192969D01*
X0034557Y0192930D01*
X0034481Y0192894D01*
X0034403Y0192862D01*
X0034325Y0192834D01*
X0034244Y0192810D01*
X0034163Y0192789D01*
X0034081Y0192773D01*
X0033999Y0192760D01*
X0033915Y0192751D01*
X0033832Y0192746D01*
X0033748Y0192745D01*
X0033664Y0192748D01*
X0033581Y0192755D01*
X0033498Y0192766D01*
X0033416Y0192781D01*
X0033334Y0192799D01*
X0033253Y0192822D01*
X0033174Y0192848D01*
X0033096Y0192878D01*
X0033019Y0192912D01*
X0032944Y0192949D01*
X0032871Y0192989D01*
X0032800Y0193034D01*
X0032731Y0193081D01*
X0032664Y0193132D01*
X0032600Y0193185D01*
X0032538Y0193242D01*
X0032480Y0193302D01*
X0032424Y0193364D01*
X0032371Y0193429D01*
X0032321Y0193496D01*
X0032274Y0193565D01*
X0032231Y0193637D01*
X0032191Y0193711D01*
X0032155Y0193786D01*
X0032122Y0193863D01*
X0032093Y0193942D01*
X0032068Y0194021D01*
X0032046Y0194102D01*
X0032029Y0194184D01*
X0032015Y0194267D01*
X0032005Y0194350D01*
X0031999Y0194433D01*
X0031997Y0194517D01*
D11*
X0084005Y0178296D03*
X0084005Y0168296D03*
X0113611Y0192253D03*
X0108611Y0199753D03*
X0118611Y0199753D03*
X0166682Y0194359D03*
X0166682Y0184359D03*
X0179005Y0198926D03*
X0189005Y0198926D03*
X0200816Y0201761D03*
X0200816Y0161761D03*
X0144005Y0150894D03*
X0144005Y0140894D03*
X0144202Y0071879D03*
X0144202Y0060068D03*
X0184202Y0060068D03*
X0184202Y0071879D03*
X0077076Y0044280D03*
X0077076Y0034280D03*
X0043335Y0021209D03*
X0029162Y0053572D03*
X0019162Y0053572D03*
X0043335Y0061209D03*
D12*
X0019005Y0077548D03*
X0019005Y0087548D03*
X0019005Y0097548D03*
X0019005Y0107548D03*
X0019005Y0117548D03*
X0019005Y0127548D03*
X0019005Y0137548D03*
X0019005Y0147548D03*
X0075619Y0100737D03*
X0075619Y0090737D03*
X0075619Y0080737D03*
X0135850Y0035149D03*
X0135850Y0017349D03*
X0161450Y0017349D03*
X0170457Y0017743D03*
X0161450Y0035149D03*
X0170457Y0035543D03*
X0196057Y0035543D03*
X0205225Y0039635D03*
X0205225Y0029635D03*
X0205225Y0019635D03*
X0196057Y0017743D03*
X0205225Y0049635D03*
X0205225Y0059635D03*
X0205383Y0078650D03*
X0205383Y0088650D03*
X0205383Y0098650D03*
X0205383Y0108650D03*
X0205383Y0118650D03*
X0205383Y0128650D03*
X0205383Y0138650D03*
X0205383Y0148650D03*
D13*
X0127077Y0144241D02*
X0121877Y0144241D01*
X0121877Y0154241D02*
X0127077Y0154241D01*
X0127077Y0164241D02*
X0121877Y0164241D01*
X0097077Y0164241D02*
X0091877Y0164241D01*
X0091877Y0154241D02*
X0097077Y0154241D01*
X0097077Y0144241D02*
X0091877Y0144241D01*
X0091877Y0134241D02*
X0097077Y0134241D01*
X0097077Y0124241D02*
X0091877Y0124241D01*
X0091877Y0114241D02*
X0097077Y0114241D01*
X0097077Y0104241D02*
X0091877Y0104241D01*
X0091877Y0094241D02*
X0097077Y0094241D01*
X0097077Y0084241D02*
X0091877Y0084241D01*
X0091877Y0074241D02*
X0097077Y0074241D01*
X0097077Y0064241D02*
X0091877Y0064241D01*
X0091877Y0054241D02*
X0097077Y0054241D01*
X0097077Y0044241D02*
X0091877Y0044241D01*
X0091877Y0034241D02*
X0097077Y0034241D01*
X0121877Y0034241D02*
X0127077Y0034241D01*
X0127077Y0044241D02*
X0121877Y0044241D01*
X0121877Y0054241D02*
X0127077Y0054241D01*
X0127077Y0064241D02*
X0121877Y0064241D01*
X0121877Y0074241D02*
X0127077Y0074241D01*
X0127077Y0084241D02*
X0121877Y0084241D01*
X0121877Y0094241D02*
X0127077Y0094241D01*
X0127077Y0104241D02*
X0121877Y0104241D01*
X0121877Y0114241D02*
X0127077Y0114241D01*
X0127077Y0124241D02*
X0121877Y0124241D01*
X0121877Y0134241D02*
X0127077Y0134241D01*
D14*
X0083454Y0199595D03*
X0075580Y0199595D03*
X0067706Y0199595D03*
D15*
X0059831Y0199595D03*
X0091328Y0199595D03*
D16*
X0095380Y0197440D02*
X0104984Y0197440D01*
X0104411Y0198013D02*
X0106871Y0195553D01*
X0110351Y0195553D01*
X0112811Y0198013D01*
X0112811Y0201492D01*
X0110351Y0203953D01*
X0106871Y0203953D01*
X0104411Y0201492D01*
X0104411Y0198013D01*
X0104411Y0199038D02*
X0095896Y0199038D01*
X0095896Y0198687D02*
X0095896Y0200504D01*
X0095201Y0202183D01*
X0093915Y0203468D01*
X0092236Y0204164D01*
X0090419Y0204164D01*
X0088740Y0203468D01*
X0087455Y0202183D01*
X0087177Y0201514D01*
X0086993Y0201960D01*
X0085818Y0203134D01*
X0084284Y0203770D01*
X0082623Y0203770D01*
X0081089Y0203134D01*
X0079914Y0201960D01*
X0079517Y0201000D01*
X0079119Y0201960D01*
X0077944Y0203134D01*
X0076410Y0203770D01*
X0074749Y0203770D01*
X0073215Y0203134D01*
X0072040Y0201960D01*
X0071643Y0201000D01*
X0071245Y0201960D01*
X0070070Y0203134D01*
X0068536Y0203770D01*
X0066875Y0203770D01*
X0065341Y0203134D01*
X0064166Y0201960D01*
X0063982Y0201514D01*
X0063704Y0202183D01*
X0062419Y0203468D01*
X0060740Y0204164D01*
X0058923Y0204164D01*
X0057244Y0203468D01*
X0055959Y0202183D01*
X0055263Y0200504D01*
X0055263Y0198687D01*
X0055959Y0197007D01*
X0057244Y0195722D01*
X0058923Y0195027D01*
X0060740Y0195027D01*
X0062419Y0195722D01*
X0063704Y0197007D01*
X0063982Y0197676D01*
X0064166Y0197230D01*
X0065341Y0196056D01*
X0066875Y0195420D01*
X0068536Y0195420D01*
X0070070Y0196056D01*
X0071245Y0197230D01*
X0071643Y0198191D01*
X0072040Y0197230D01*
X0073215Y0196056D01*
X0074749Y0195420D01*
X0076410Y0195420D01*
X0077944Y0196056D01*
X0079119Y0197230D01*
X0079517Y0198191D01*
X0079914Y0197230D01*
X0081089Y0196056D01*
X0082623Y0195420D01*
X0084284Y0195420D01*
X0085818Y0196056D01*
X0086993Y0197230D01*
X0087177Y0197676D01*
X0087455Y0197007D01*
X0088740Y0195722D01*
X0090419Y0195027D01*
X0092236Y0195027D01*
X0093915Y0195722D01*
X0095201Y0197007D01*
X0095896Y0198687D01*
X0095841Y0200637D02*
X0104411Y0200637D01*
X0105154Y0202235D02*
X0095148Y0202235D01*
X0093033Y0203834D02*
X0106752Y0203834D01*
X0110470Y0203834D02*
X0116470Y0203834D01*
X0116788Y0204153D02*
X0114211Y0201575D01*
X0114211Y0199753D01*
X0118611Y0199753D01*
X0118611Y0204153D01*
X0120434Y0204153D01*
X0123011Y0201575D01*
X0123011Y0199753D01*
X0118611Y0199753D01*
X0118611Y0199753D01*
X0118611Y0204153D01*
X0116788Y0204153D01*
X0118611Y0203834D02*
X0118611Y0203834D01*
X0118611Y0202235D02*
X0118611Y0202235D01*
X0118611Y0200637D02*
X0118611Y0200637D01*
X0118611Y0199753D02*
X0118611Y0199753D01*
X0118611Y0199753D01*
X0114211Y0199753D01*
X0114211Y0197930D01*
X0116788Y0195353D01*
X0118611Y0195353D01*
X0120434Y0195353D01*
X0123011Y0197930D01*
X0123011Y0199753D01*
X0118611Y0199753D01*
X0118611Y0195353D01*
X0118611Y0199753D01*
X0118611Y0199753D01*
X0118611Y0199038D02*
X0118611Y0199038D01*
X0118611Y0197440D02*
X0118611Y0197440D01*
X0118611Y0195841D02*
X0118611Y0195841D01*
X0117561Y0194243D02*
X0162482Y0194243D01*
X0162482Y0195841D02*
X0120922Y0195841D01*
X0122521Y0197440D02*
X0163823Y0197440D01*
X0164942Y0198559D02*
X0162482Y0196099D01*
X0162482Y0192619D01*
X0164942Y0190159D01*
X0168422Y0190159D01*
X0170882Y0192619D01*
X0170882Y0196099D01*
X0168422Y0198559D01*
X0164942Y0198559D01*
X0169541Y0197440D02*
X0174805Y0197440D01*
X0174805Y0197186D02*
X0177265Y0194726D01*
X0180744Y0194726D01*
X0183205Y0197186D01*
X0183205Y0200666D01*
X0180744Y0203126D01*
X0177265Y0203126D01*
X0174805Y0200666D01*
X0174805Y0197186D01*
X0174805Y0199038D02*
X0123011Y0199038D01*
X0123011Y0200637D02*
X0174805Y0200637D01*
X0176374Y0202235D02*
X0122351Y0202235D01*
X0120752Y0203834D02*
X0196949Y0203834D01*
X0196616Y0203500D02*
X0196616Y0200021D01*
X0199076Y0197561D01*
X0202555Y0197561D01*
X0205016Y0200021D01*
X0205016Y0203500D01*
X0202855Y0205661D01*
X0205661Y0205661D01*
X0205661Y0153950D01*
X0204328Y0153950D01*
X0202380Y0153144D01*
X0200890Y0151653D01*
X0200083Y0149705D01*
X0200083Y0147596D01*
X0200890Y0145648D01*
X0202380Y0144157D01*
X0203604Y0143650D01*
X0202380Y0143144D01*
X0200890Y0141653D01*
X0200083Y0139705D01*
X0200083Y0137596D01*
X0200890Y0135648D01*
X0202380Y0134157D01*
X0203604Y0133650D01*
X0202380Y0133144D01*
X0200890Y0131653D01*
X0200083Y0129705D01*
X0200083Y0127596D01*
X0200890Y0125648D01*
X0202380Y0124157D01*
X0203604Y0123650D01*
X0202380Y0123144D01*
X0200890Y0121653D01*
X0200083Y0119705D01*
X0200083Y0117596D01*
X0200890Y0115648D01*
X0202380Y0114157D01*
X0203604Y0113650D01*
X0202380Y0113144D01*
X0200890Y0111653D01*
X0200083Y0109705D01*
X0200083Y0107596D01*
X0200890Y0105648D01*
X0202380Y0104157D01*
X0203604Y0103650D01*
X0202380Y0103144D01*
X0200890Y0101653D01*
X0200083Y0099705D01*
X0200083Y0097596D01*
X0200890Y0095648D01*
X0202380Y0094157D01*
X0203604Y0093650D01*
X0202499Y0093193D01*
X0199311Y0096381D01*
X0199311Y0113481D01*
X0198081Y0114711D01*
X0153981Y0158811D01*
X0151281Y0158811D01*
X0117811Y0192281D01*
X0117811Y0193992D01*
X0115351Y0196453D01*
X0111871Y0196453D01*
X0109411Y0193992D01*
X0109411Y0190513D01*
X0111871Y0188053D01*
X0115351Y0188053D01*
X0115725Y0188427D01*
X0148311Y0155841D01*
X0149541Y0154611D01*
X0152241Y0154611D01*
X0195111Y0111741D01*
X0195111Y0094641D01*
X0200083Y0089670D01*
X0200083Y0087596D01*
X0200890Y0085648D01*
X0202380Y0084157D01*
X0203327Y0083765D01*
X0203271Y0083747D01*
X0202500Y0083354D01*
X0201800Y0082846D01*
X0201188Y0082233D01*
X0200679Y0081533D01*
X0200286Y0080762D01*
X0200018Y0079938D01*
X0199883Y0079083D01*
X0199883Y0078850D01*
X0205183Y0078850D01*
X0205183Y0078450D01*
X0205583Y0078450D01*
X0205583Y0073150D01*
X0205661Y0073150D01*
X0205661Y0064935D01*
X0204171Y0064935D01*
X0202223Y0064128D01*
X0200732Y0062637D01*
X0199925Y0060689D01*
X0199925Y0058895D01*
X0194541Y0053511D01*
X0178886Y0053511D01*
X0179211Y0054295D01*
X0179211Y0055727D01*
X0178663Y0057050D01*
X0177650Y0058063D01*
X0176327Y0058611D01*
X0174981Y0058611D01*
X0132381Y0101211D01*
X0130641Y0101211D01*
X0129741Y0100311D01*
X0128565Y0100311D01*
X0129456Y0100680D01*
X0130638Y0101862D01*
X0131277Y0103405D01*
X0131277Y0105076D01*
X0130638Y0106620D01*
X0129456Y0107802D01*
X0127913Y0108441D01*
X0121042Y0108441D01*
X0119498Y0107802D01*
X0118317Y0106620D01*
X0117677Y0105076D01*
X0117677Y0103405D01*
X0118317Y0101862D01*
X0119498Y0100680D01*
X0120390Y0100311D01*
X0119781Y0100311D01*
X0117411Y0102681D01*
X0117411Y0117081D01*
X0116181Y0118311D01*
X0101221Y0133271D01*
X0101277Y0133405D01*
X0101277Y0135076D01*
X0100638Y0136620D01*
X0099456Y0137802D01*
X0097913Y0138441D01*
X0091042Y0138441D01*
X0089498Y0137802D01*
X0088317Y0136620D01*
X0087677Y0135076D01*
X0087677Y0133405D01*
X0088317Y0131862D01*
X0089267Y0130911D01*
X0089181Y0130911D01*
X0063411Y0156681D01*
X0063411Y0168120D01*
X0064363Y0169072D01*
X0064911Y0170395D01*
X0064911Y0171827D01*
X0064363Y0173150D01*
X0063350Y0174163D01*
X0062027Y0174711D01*
X0060595Y0174711D01*
X0059272Y0174163D01*
X0058259Y0173150D01*
X0057711Y0171827D01*
X0057711Y0170395D01*
X0058259Y0169072D01*
X0059211Y0168120D01*
X0059211Y0154941D01*
X0086211Y0127941D01*
X0087441Y0126711D01*
X0088408Y0126711D01*
X0088317Y0126620D01*
X0087677Y0125076D01*
X0087677Y0123405D01*
X0088317Y0121862D01*
X0089498Y0120680D01*
X0091042Y0120041D01*
X0097913Y0120041D01*
X0098407Y0120246D01*
X0101511Y0117141D01*
X0101511Y0044502D01*
X0101277Y0044268D01*
X0101277Y0045076D01*
X0100638Y0046620D01*
X0099456Y0047802D01*
X0097913Y0048441D01*
X0091042Y0048441D01*
X0089498Y0047802D01*
X0088317Y0046620D01*
X0087677Y0045076D01*
X0087677Y0043405D01*
X0088317Y0041862D01*
X0089498Y0040680D01*
X0091042Y0040041D01*
X0097913Y0040041D01*
X0099456Y0040680D01*
X0100011Y0041235D01*
X0100011Y0040795D01*
X0100559Y0039472D01*
X0101572Y0038459D01*
X0102895Y0037911D01*
X0104327Y0037911D01*
X0105650Y0038459D01*
X0106663Y0039472D01*
X0107211Y0040795D01*
X0107211Y0042227D01*
X0106663Y0043550D01*
X0105711Y0044502D01*
X0105711Y0118881D01*
X0104481Y0120111D01*
X0101251Y0123341D01*
X0101277Y0123405D01*
X0101277Y0123675D01*
X0111411Y0113541D01*
X0111411Y0099141D01*
X0115911Y0094641D01*
X0117141Y0093411D01*
X0117677Y0093411D01*
X0117677Y0093405D01*
X0118317Y0091862D01*
X0119498Y0090680D01*
X0121042Y0090041D01*
X0127913Y0090041D01*
X0129456Y0090680D01*
X0130638Y0091862D01*
X0131277Y0093405D01*
X0131277Y0095076D01*
X0130849Y0096111D01*
X0131481Y0096111D01*
X0131511Y0096141D01*
X0172011Y0055641D01*
X0172011Y0054295D01*
X0172336Y0053511D01*
X0166581Y0053511D01*
X0148402Y0071690D01*
X0148402Y0073618D01*
X0145941Y0076079D01*
X0142462Y0076079D01*
X0141411Y0075028D01*
X0141411Y0075527D01*
X0140863Y0076850D01*
X0139850Y0077863D01*
X0138527Y0078411D01*
X0137095Y0078411D01*
X0135772Y0077863D01*
X0134759Y0076850D01*
X0134211Y0075527D01*
X0134211Y0074181D01*
X0128308Y0068277D01*
X0127913Y0068441D01*
X0121042Y0068441D01*
X0119498Y0067802D01*
X0118317Y0066620D01*
X0117677Y0065076D01*
X0117677Y0063405D01*
X0118317Y0061862D01*
X0119498Y0060680D01*
X0121042Y0060041D01*
X0127913Y0060041D01*
X0129456Y0060680D01*
X0130638Y0061862D01*
X0131277Y0063405D01*
X0131277Y0065076D01*
X0131210Y0065240D01*
X0137181Y0071211D01*
X0138527Y0071211D01*
X0139850Y0071759D01*
X0140002Y0071910D01*
X0140002Y0070139D01*
X0142462Y0067679D01*
X0145941Y0067679D01*
X0146207Y0067945D01*
X0163611Y0050541D01*
X0163611Y0040641D01*
X0165889Y0038364D01*
X0165842Y0038252D01*
X0164453Y0039642D01*
X0162505Y0040449D01*
X0160396Y0040449D01*
X0158448Y0039642D01*
X0156957Y0038151D01*
X0156150Y0036203D01*
X0156150Y0034095D01*
X0156957Y0032147D01*
X0158448Y0030656D01*
X0160396Y0029849D01*
X0162505Y0029849D01*
X0164453Y0030656D01*
X0165944Y0032147D01*
X0166065Y0032439D01*
X0167454Y0031049D01*
X0169402Y0030243D01*
X0171511Y0030243D01*
X0173459Y0031049D01*
X0174950Y0032540D01*
X0175757Y0034488D01*
X0175757Y0036597D01*
X0174950Y0038545D01*
X0173459Y0040036D01*
X0171511Y0040843D01*
X0169402Y0040843D01*
X0169365Y0040827D01*
X0167811Y0042381D01*
X0167811Y0049311D01*
X0196281Y0049311D01*
X0197511Y0050541D01*
X0202167Y0055197D01*
X0202223Y0055142D01*
X0203447Y0054635D01*
X0202223Y0054128D01*
X0200732Y0052637D01*
X0199925Y0050689D01*
X0199925Y0048580D01*
X0200732Y0046632D01*
X0202223Y0045142D01*
X0203169Y0044750D01*
X0203114Y0044732D01*
X0202343Y0044339D01*
X0201642Y0043830D01*
X0201030Y0043218D01*
X0200521Y0042517D01*
X0200128Y0041746D01*
X0199861Y0040923D01*
X0199725Y0040068D01*
X0199725Y0039835D01*
X0205025Y0039835D01*
X0205025Y0039435D01*
X0199725Y0039435D01*
X0199725Y0039369D01*
X0199059Y0040036D01*
X0197111Y0040843D01*
X0195002Y0040843D01*
X0193054Y0040036D01*
X0191564Y0038545D01*
X0190757Y0036597D01*
X0190757Y0034488D01*
X0191564Y0032540D01*
X0193054Y0031049D01*
X0195002Y0030243D01*
X0197111Y0030243D01*
X0199059Y0031049D01*
X0200550Y0032540D01*
X0201357Y0034488D01*
X0201357Y0035725D01*
X0201642Y0035439D01*
X0202343Y0034931D01*
X0203114Y0034538D01*
X0203169Y0034520D01*
X0202223Y0034128D01*
X0200732Y0032637D01*
X0199925Y0030689D01*
X0199925Y0028580D01*
X0200732Y0026632D01*
X0202223Y0025142D01*
X0203447Y0024635D01*
X0202223Y0024128D01*
X0200732Y0022637D01*
X0200124Y0021170D01*
X0199059Y0022236D01*
X0197111Y0023043D01*
X0195002Y0023043D01*
X0193054Y0022236D01*
X0191564Y0020745D01*
X0190757Y0018797D01*
X0190757Y0018411D01*
X0175919Y0018411D01*
X0175821Y0019030D01*
X0175554Y0019854D01*
X0175161Y0020625D01*
X0174652Y0021326D01*
X0174040Y0021938D01*
X0173339Y0022447D01*
X0172568Y0022840D01*
X0171745Y0023107D01*
X0170890Y0023243D01*
X0170657Y0023243D01*
X0170657Y0018411D01*
X0170257Y0018411D01*
X0170257Y0023243D01*
X0170024Y0023243D01*
X0169169Y0023107D01*
X0168345Y0022840D01*
X0167574Y0022447D01*
X0166874Y0021938D01*
X0166262Y0021326D01*
X0165753Y0020625D01*
X0165725Y0020570D01*
X0164453Y0021842D01*
X0162505Y0022649D01*
X0160396Y0022649D01*
X0158448Y0021842D01*
X0156957Y0020351D01*
X0156154Y0018411D01*
X0141251Y0018411D01*
X0141215Y0018637D01*
X0140947Y0019460D01*
X0140554Y0020231D01*
X0140046Y0020932D01*
X0139433Y0021544D01*
X0138733Y0022053D01*
X0137962Y0022446D01*
X0137138Y0022713D01*
X0136283Y0022849D01*
X0136050Y0022849D01*
X0136050Y0018411D01*
X0135650Y0018411D01*
X0135650Y0022849D01*
X0135418Y0022849D01*
X0134562Y0022713D01*
X0133739Y0022446D01*
X0132968Y0022053D01*
X0132267Y0021544D01*
X0131655Y0020932D01*
X0131146Y0020231D01*
X0130753Y0019460D01*
X0130486Y0018637D01*
X0130450Y0018411D01*
X0046760Y0018411D01*
X0047735Y0019387D01*
X0047735Y0021209D01*
X0043336Y0021209D01*
X0043336Y0021209D01*
X0047735Y0021209D01*
X0047735Y0023032D01*
X0045158Y0025609D01*
X0043335Y0025609D01*
X0041513Y0025609D01*
X0038935Y0023032D01*
X0038935Y0021209D01*
X0038935Y0019387D01*
X0039911Y0018411D01*
X0018411Y0018411D01*
X0018411Y0049372D01*
X0020902Y0049372D01*
X0023362Y0051832D01*
X0023362Y0055311D01*
X0020902Y0057772D01*
X0018411Y0057772D01*
X0018411Y0072074D01*
X0018572Y0072048D01*
X0018805Y0072048D01*
X0018805Y0077348D01*
X0019205Y0077348D01*
X0019205Y0077748D01*
X0024505Y0077748D01*
X0024505Y0077981D01*
X0024369Y0078836D01*
X0024102Y0079659D01*
X0023709Y0080431D01*
X0023200Y0081131D01*
X0022588Y0081743D01*
X0021887Y0082252D01*
X0021116Y0082645D01*
X0021061Y0082663D01*
X0022007Y0083055D01*
X0023498Y0084546D01*
X0024305Y0086494D01*
X0024305Y0088602D01*
X0023498Y0090550D01*
X0022007Y0092041D01*
X0020783Y0092548D01*
X0022007Y0093055D01*
X0023498Y0094546D01*
X0024305Y0096494D01*
X0024305Y0098602D01*
X0023498Y0100550D01*
X0022007Y0102041D01*
X0020783Y0102548D01*
X0022007Y0103055D01*
X0023498Y0104546D01*
X0024305Y0106494D01*
X0024305Y0108602D01*
X0023498Y0110550D01*
X0022007Y0112041D01*
X0020783Y0112548D01*
X0022007Y0113055D01*
X0023498Y0114546D01*
X0024305Y0116494D01*
X0024305Y0118602D01*
X0023498Y0120550D01*
X0022007Y0122041D01*
X0020783Y0122548D01*
X0022007Y0123055D01*
X0023498Y0124546D01*
X0024305Y0126494D01*
X0024305Y0128602D01*
X0023498Y0130550D01*
X0022007Y0132041D01*
X0020783Y0132548D01*
X0022007Y0133055D01*
X0023498Y0134546D01*
X0024305Y0136494D01*
X0024305Y0138602D01*
X0023498Y0140550D01*
X0022007Y0142041D01*
X0020783Y0142548D01*
X0022007Y0143055D01*
X0023498Y0144546D01*
X0024305Y0146494D01*
X0024305Y0147831D01*
X0024595Y0147711D01*
X0025011Y0147711D01*
X0025011Y0086802D01*
X0024059Y0085850D01*
X0023511Y0084527D01*
X0023511Y0083095D01*
X0024059Y0081772D01*
X0025072Y0080759D01*
X0026395Y0080211D01*
X0027827Y0080211D01*
X0029150Y0080759D01*
X0030163Y0081772D01*
X0030711Y0083095D01*
X0030711Y0084527D01*
X0030163Y0085850D01*
X0029211Y0086802D01*
X0029211Y0150381D01*
X0028911Y0150681D01*
X0028911Y0152027D01*
X0028363Y0153350D01*
X0027350Y0154363D01*
X0026027Y0154911D01*
X0024595Y0154911D01*
X0023272Y0154363D01*
X0022259Y0153350D01*
X0021759Y0152144D01*
X0020059Y0152848D01*
X0018411Y0152848D01*
X0018411Y0205661D01*
X0198777Y0205661D01*
X0196616Y0203500D01*
X0196616Y0202235D02*
X0191635Y0202235D01*
X0190744Y0203126D02*
X0187265Y0203126D01*
X0184805Y0200666D01*
X0184805Y0197186D01*
X0187265Y0194726D01*
X0190744Y0194726D01*
X0193205Y0197186D01*
X0193205Y0200666D01*
X0190744Y0203126D01*
X0193205Y0200637D02*
X0196616Y0200637D01*
X0197598Y0199038D02*
X0193205Y0199038D01*
X0193205Y0197440D02*
X0205661Y0197440D01*
X0205661Y0199038D02*
X0204033Y0199038D01*
X0205016Y0200637D02*
X0205661Y0200637D01*
X0205661Y0202235D02*
X0205016Y0202235D01*
X0204682Y0203834D02*
X0205661Y0203834D01*
X0205661Y0205432D02*
X0203084Y0205432D01*
X0198548Y0205432D02*
X0018411Y0205432D01*
X0018411Y0203834D02*
X0058126Y0203834D01*
X0056011Y0202235D02*
X0018411Y0202235D01*
X0018411Y0200637D02*
X0031372Y0200637D01*
X0032461Y0201088D02*
X0030046Y0200088D01*
X0028197Y0198239D01*
X0027197Y0195824D01*
X0027197Y0193209D01*
X0028197Y0190794D01*
X0030046Y0188945D01*
X0032461Y0187945D01*
X0035076Y0187945D01*
X0037491Y0188945D01*
X0039340Y0190794D01*
X0040340Y0193209D01*
X0040340Y0195824D01*
X0039340Y0198239D01*
X0037491Y0200088D01*
X0035076Y0201088D01*
X0032461Y0201088D01*
X0036165Y0200637D02*
X0055318Y0200637D01*
X0055263Y0199038D02*
X0038540Y0199038D01*
X0039671Y0197440D02*
X0055779Y0197440D01*
X0057125Y0195841D02*
X0040333Y0195841D01*
X0040340Y0194243D02*
X0109661Y0194243D01*
X0109411Y0192644D02*
X0040106Y0192644D01*
X0039444Y0191046D02*
X0109411Y0191046D01*
X0110477Y0189447D02*
X0091995Y0189447D01*
X0091995Y0189483D02*
X0091058Y0190420D01*
X0085770Y0190420D01*
X0084833Y0189483D01*
X0084833Y0189239D01*
X0060499Y0189239D01*
X0060499Y0189483D01*
X0059562Y0190420D01*
X0054274Y0190420D01*
X0053337Y0189483D01*
X0053337Y0184196D01*
X0054274Y0183258D01*
X0059562Y0183258D01*
X0060499Y0184196D01*
X0060499Y0184439D01*
X0084833Y0184439D01*
X0084833Y0184196D01*
X0085770Y0183258D01*
X0091058Y0183258D01*
X0091995Y0184196D01*
X0091995Y0189483D01*
X0091995Y0187849D02*
X0116303Y0187849D01*
X0117902Y0186250D02*
X0091995Y0186250D01*
X0091995Y0184652D02*
X0119500Y0184652D01*
X0121099Y0183053D02*
X0036795Y0183053D01*
X0037491Y0182765D02*
X0035076Y0183765D01*
X0032461Y0183765D01*
X0030046Y0182765D01*
X0028197Y0180916D01*
X0027197Y0178501D01*
X0027197Y0175887D01*
X0028197Y0173471D01*
X0030046Y0171623D01*
X0032461Y0170622D01*
X0035076Y0170622D01*
X0037491Y0171623D01*
X0039340Y0173471D01*
X0040340Y0175887D01*
X0040340Y0178501D01*
X0039340Y0180916D01*
X0037491Y0182765D01*
X0038801Y0181455D02*
X0081224Y0181455D01*
X0082265Y0182496D02*
X0079805Y0180036D01*
X0079805Y0176556D01*
X0082265Y0174096D01*
X0085744Y0174096D01*
X0088205Y0176556D01*
X0088205Y0180036D01*
X0085744Y0182496D01*
X0082265Y0182496D01*
X0079805Y0179856D02*
X0039779Y0179856D01*
X0040340Y0178258D02*
X0079805Y0178258D01*
X0079805Y0176659D02*
X0040340Y0176659D01*
X0039998Y0175061D02*
X0081300Y0175061D01*
X0082182Y0172696D02*
X0079605Y0170119D01*
X0079605Y0168296D01*
X0079605Y0166474D01*
X0082182Y0163896D01*
X0084005Y0163896D01*
X0085827Y0163896D01*
X0088151Y0166219D01*
X0087677Y0165076D01*
X0087677Y0163405D01*
X0088317Y0161862D01*
X0089498Y0160680D01*
X0091042Y0160041D01*
X0097913Y0160041D01*
X0099456Y0160680D01*
X0100638Y0161862D01*
X0101277Y0163405D01*
X0101277Y0165076D01*
X0100638Y0166620D01*
X0099456Y0167802D01*
X0097913Y0168441D01*
X0091042Y0168441D01*
X0089498Y0167802D01*
X0088405Y0166708D01*
X0088405Y0168296D01*
X0084005Y0168296D01*
X0084005Y0168296D01*
X0088405Y0168296D01*
X0088405Y0170119D01*
X0085827Y0172696D01*
X0084005Y0172696D01*
X0084005Y0168296D01*
X0084005Y0163896D01*
X0084005Y0168296D01*
X0084005Y0168296D01*
X0084005Y0168296D01*
X0084005Y0172696D01*
X0082182Y0172696D01*
X0081350Y0171864D02*
X0064896Y0171864D01*
X0064857Y0170265D02*
X0079751Y0170265D01*
X0079605Y0168667D02*
X0063958Y0168667D01*
X0063411Y0167068D02*
X0079605Y0167068D01*
X0079605Y0168296D02*
X0084005Y0168296D01*
X0084005Y0168296D01*
X0079605Y0168296D01*
X0080609Y0165470D02*
X0063411Y0165470D01*
X0063411Y0163871D02*
X0087677Y0163871D01*
X0087840Y0165470D02*
X0087401Y0165470D01*
X0088405Y0167068D02*
X0088765Y0167068D01*
X0088405Y0168667D02*
X0135486Y0168667D01*
X0137084Y0167068D02*
X0130190Y0167068D01*
X0130638Y0166620D02*
X0129456Y0167802D01*
X0127913Y0168441D01*
X0121042Y0168441D01*
X0119498Y0167802D01*
X0118317Y0166620D01*
X0117677Y0165076D01*
X0117677Y0163405D01*
X0118317Y0161862D01*
X0119498Y0160680D01*
X0121042Y0160041D01*
X0127913Y0160041D01*
X0129456Y0160680D01*
X0130638Y0161862D01*
X0131277Y0163405D01*
X0131277Y0165076D01*
X0130638Y0166620D01*
X0131114Y0165470D02*
X0138683Y0165470D01*
X0140281Y0163871D02*
X0131277Y0163871D01*
X0130808Y0162273D02*
X0141880Y0162273D01*
X0143478Y0160674D02*
X0129441Y0160674D01*
X0128766Y0158319D02*
X0128107Y0158533D01*
X0127423Y0158641D01*
X0124477Y0158641D01*
X0121531Y0158641D01*
X0120847Y0158533D01*
X0120188Y0158319D01*
X0119571Y0158004D01*
X0119011Y0157597D01*
X0118521Y0157107D01*
X0118114Y0156547D01*
X0117800Y0155930D01*
X0117586Y0155271D01*
X0117477Y0154587D01*
X0117477Y0154241D01*
X0124477Y0154241D01*
X0124477Y0154241D01*
X0124477Y0158641D01*
X0124477Y0154241D01*
X0124477Y0154241D01*
X0117477Y0154241D01*
X0117477Y0153895D01*
X0117586Y0153211D01*
X0117800Y0152552D01*
X0118114Y0151935D01*
X0118521Y0151375D01*
X0119011Y0150885D01*
X0119571Y0150478D01*
X0120188Y0150163D01*
X0120847Y0149949D01*
X0121531Y0149841D01*
X0124477Y0149841D01*
X0124477Y0154241D01*
X0124477Y0154241D01*
X0124477Y0149841D01*
X0127423Y0149841D01*
X0128107Y0149949D01*
X0128766Y0150163D01*
X0129383Y0150478D01*
X0129944Y0150885D01*
X0130433Y0151375D01*
X0130840Y0151935D01*
X0131155Y0152552D01*
X0131369Y0153211D01*
X0131477Y0153895D01*
X0131477Y0154241D01*
X0131477Y0154587D01*
X0131369Y0155271D01*
X0131155Y0155930D01*
X0130840Y0156547D01*
X0130433Y0157107D01*
X0129944Y0157597D01*
X0129383Y0158004D01*
X0128766Y0158319D01*
X0130064Y0157477D02*
X0146675Y0157477D01*
X0145077Y0159076D02*
X0063411Y0159076D01*
X0063411Y0160674D02*
X0089513Y0160674D01*
X0088146Y0162273D02*
X0063411Y0162273D01*
X0059211Y0162273D02*
X0018411Y0162273D01*
X0018411Y0163871D02*
X0059211Y0163871D01*
X0059211Y0165470D02*
X0018411Y0165470D01*
X0018411Y0167068D02*
X0059211Y0167068D01*
X0058664Y0168667D02*
X0018411Y0168667D01*
X0018411Y0170265D02*
X0057765Y0170265D01*
X0057726Y0171864D02*
X0037732Y0171864D01*
X0039331Y0173462D02*
X0058571Y0173462D01*
X0064051Y0173462D02*
X0130690Y0173462D01*
X0132289Y0171864D02*
X0086660Y0171864D01*
X0088258Y0170265D02*
X0133887Y0170265D01*
X0136630Y0173462D02*
X0205661Y0173462D01*
X0205661Y0171864D02*
X0138228Y0171864D01*
X0139827Y0170265D02*
X0205661Y0170265D01*
X0205661Y0168667D02*
X0141425Y0168667D01*
X0143024Y0167068D02*
X0205661Y0167068D01*
X0205661Y0165470D02*
X0203329Y0165470D01*
X0202638Y0166161D02*
X0205216Y0163583D01*
X0205216Y0161761D01*
X0200816Y0161761D01*
X0200816Y0161761D01*
X0200816Y0166161D01*
X0202638Y0166161D01*
X0200816Y0166161D02*
X0198993Y0166161D01*
X0196416Y0163583D01*
X0196416Y0161761D01*
X0200816Y0161761D01*
X0200816Y0161761D01*
X0200816Y0166161D01*
X0200816Y0165470D02*
X0200816Y0165470D01*
X0200816Y0163871D02*
X0200816Y0163871D01*
X0200816Y0162273D02*
X0200816Y0162273D01*
X0200816Y0161761D02*
X0200816Y0161761D01*
X0205216Y0161761D01*
X0205216Y0159938D01*
X0202638Y0157361D01*
X0200816Y0157361D01*
X0200816Y0161760D01*
X0200816Y0161760D01*
X0200816Y0157361D01*
X0198993Y0157361D01*
X0196416Y0159938D01*
X0196416Y0161761D01*
X0200816Y0161761D01*
X0200816Y0160674D02*
X0200816Y0160674D01*
X0200816Y0159076D02*
X0200816Y0159076D01*
X0200816Y0157477D02*
X0200816Y0157477D01*
X0202755Y0157477D02*
X0205661Y0157477D01*
X0205661Y0155879D02*
X0156913Y0155879D01*
X0155315Y0157477D02*
X0198877Y0157477D01*
X0197278Y0159076D02*
X0151016Y0159076D01*
X0149418Y0160674D02*
X0196416Y0160674D01*
X0196416Y0162273D02*
X0147819Y0162273D01*
X0146221Y0163871D02*
X0196704Y0163871D01*
X0198302Y0165470D02*
X0144622Y0165470D01*
X0135031Y0175061D02*
X0205661Y0175061D01*
X0205661Y0176659D02*
X0133433Y0176659D01*
X0131834Y0178258D02*
X0205661Y0178258D01*
X0205661Y0179856D02*
X0130236Y0179856D01*
X0128637Y0181455D02*
X0163647Y0181455D01*
X0162482Y0182619D02*
X0164942Y0180159D01*
X0168422Y0180159D01*
X0170882Y0182619D01*
X0170882Y0186099D01*
X0168422Y0188559D01*
X0164942Y0188559D01*
X0162482Y0186099D01*
X0162482Y0182619D01*
X0162482Y0183053D02*
X0127039Y0183053D01*
X0125440Y0184652D02*
X0162482Y0184652D01*
X0162633Y0186250D02*
X0123842Y0186250D01*
X0122243Y0187849D02*
X0164232Y0187849D01*
X0164055Y0191046D02*
X0119046Y0191046D01*
X0117811Y0192644D02*
X0162482Y0192644D01*
X0169308Y0191046D02*
X0205661Y0191046D01*
X0205661Y0192644D02*
X0170882Y0192644D01*
X0170882Y0194243D02*
X0205661Y0194243D01*
X0205661Y0195841D02*
X0191860Y0195841D01*
X0186150Y0195841D02*
X0181860Y0195841D01*
X0183205Y0197440D02*
X0184805Y0197440D01*
X0184805Y0199038D02*
X0183205Y0199038D01*
X0183205Y0200637D02*
X0184805Y0200637D01*
X0186374Y0202235D02*
X0181635Y0202235D01*
X0176150Y0195841D02*
X0170882Y0195841D01*
X0169132Y0187849D02*
X0205661Y0187849D01*
X0205661Y0189447D02*
X0120645Y0189447D01*
X0116300Y0195841D02*
X0115962Y0195841D01*
X0114701Y0197440D02*
X0112238Y0197440D01*
X0112811Y0199038D02*
X0114211Y0199038D01*
X0114211Y0200637D02*
X0112811Y0200637D01*
X0112068Y0202235D02*
X0114871Y0202235D01*
X0111260Y0195841D02*
X0110639Y0195841D01*
X0106583Y0195841D02*
X0094034Y0195841D01*
X0088621Y0195841D02*
X0085300Y0195841D01*
X0087079Y0197440D02*
X0087275Y0197440D01*
X0087507Y0202235D02*
X0086718Y0202235D01*
X0089622Y0203834D02*
X0061537Y0203834D01*
X0063652Y0202235D02*
X0064442Y0202235D01*
X0064080Y0197440D02*
X0063884Y0197440D01*
X0062538Y0195841D02*
X0065859Y0195841D01*
X0069552Y0195841D02*
X0073733Y0195841D01*
X0071954Y0197440D02*
X0071331Y0197440D01*
X0070969Y0202235D02*
X0072316Y0202235D01*
X0078843Y0202235D02*
X0080190Y0202235D01*
X0079828Y0197440D02*
X0079205Y0197440D01*
X0077426Y0195841D02*
X0081607Y0195841D01*
X0084833Y0189447D02*
X0060499Y0189447D01*
X0056918Y0186839D02*
X0088414Y0186839D01*
X0086786Y0181455D02*
X0122697Y0181455D01*
X0124296Y0179856D02*
X0088205Y0179856D01*
X0088205Y0178258D02*
X0125895Y0178258D01*
X0127493Y0176659D02*
X0088205Y0176659D01*
X0086709Y0175061D02*
X0129092Y0175061D01*
X0118765Y0167068D02*
X0100190Y0167068D01*
X0101114Y0165470D02*
X0117840Y0165470D01*
X0117677Y0163871D02*
X0101277Y0163871D01*
X0100808Y0162273D02*
X0118146Y0162273D01*
X0119513Y0160674D02*
X0099441Y0160674D01*
X0097913Y0158441D02*
X0099456Y0157802D01*
X0100638Y0156620D01*
X0101277Y0155076D01*
X0101277Y0153405D01*
X0100638Y0151862D01*
X0099456Y0150680D01*
X0097913Y0150041D01*
X0091042Y0150041D01*
X0089498Y0150680D01*
X0088317Y0151862D01*
X0087677Y0153405D01*
X0087677Y0155076D01*
X0088317Y0156620D01*
X0089498Y0157802D01*
X0091042Y0158441D01*
X0097913Y0158441D01*
X0099781Y0157477D02*
X0118891Y0157477D01*
X0117783Y0155879D02*
X0100945Y0155879D01*
X0101277Y0154280D02*
X0117477Y0154280D01*
X0117757Y0152682D02*
X0100977Y0152682D01*
X0099859Y0151083D02*
X0118813Y0151083D01*
X0119702Y0147886D02*
X0099252Y0147886D01*
X0099456Y0147802D02*
X0097913Y0148441D01*
X0091042Y0148441D01*
X0089498Y0147802D01*
X0088317Y0146620D01*
X0087677Y0145076D01*
X0087677Y0143405D01*
X0088317Y0141862D01*
X0089498Y0140680D01*
X0091042Y0140041D01*
X0097913Y0140041D01*
X0099456Y0140680D01*
X0100638Y0141862D01*
X0101277Y0143405D01*
X0101277Y0145076D01*
X0100638Y0146620D01*
X0099456Y0147802D01*
X0100776Y0146287D02*
X0118179Y0146287D01*
X0118317Y0146620D02*
X0117677Y0145076D01*
X0117677Y0143405D01*
X0118317Y0141862D01*
X0119498Y0140680D01*
X0121042Y0140041D01*
X0127913Y0140041D01*
X0129456Y0140680D01*
X0130638Y0141862D01*
X0131277Y0143405D01*
X0131277Y0145076D01*
X0130638Y0146620D01*
X0129456Y0147802D01*
X0127913Y0148441D01*
X0121042Y0148441D01*
X0119498Y0147802D01*
X0118317Y0146620D01*
X0117677Y0144689D02*
X0101277Y0144689D01*
X0101147Y0143090D02*
X0117808Y0143090D01*
X0118686Y0141492D02*
X0100268Y0141492D01*
X0098265Y0138295D02*
X0120689Y0138295D01*
X0121042Y0138441D02*
X0119498Y0137802D01*
X0118317Y0136620D01*
X0117677Y0135076D01*
X0117677Y0133405D01*
X0118317Y0131862D01*
X0119498Y0130680D01*
X0121042Y0130041D01*
X0127913Y0130041D01*
X0129456Y0130680D01*
X0130638Y0131862D01*
X0131277Y0133405D01*
X0131277Y0135076D01*
X0130638Y0136620D01*
X0129456Y0137802D01*
X0127913Y0138441D01*
X0121042Y0138441D01*
X0118393Y0136696D02*
X0100561Y0136696D01*
X0101268Y0135098D02*
X0117686Y0135098D01*
X0117677Y0133499D02*
X0101277Y0133499D01*
X0102591Y0131901D02*
X0118300Y0131901D01*
X0120411Y0130302D02*
X0104190Y0130302D01*
X0105788Y0128704D02*
X0148932Y0128704D01*
X0150530Y0130302D02*
X0128544Y0130302D01*
X0127913Y0128441D02*
X0129456Y0127802D01*
X0130638Y0126620D01*
X0131277Y0125076D01*
X0131277Y0123405D01*
X0130638Y0121862D01*
X0129456Y0120680D01*
X0127913Y0120041D01*
X0121042Y0120041D01*
X0119498Y0120680D01*
X0118317Y0121862D01*
X0117677Y0123405D01*
X0117677Y0125076D01*
X0118317Y0126620D01*
X0119498Y0127802D01*
X0121042Y0128441D01*
X0127913Y0128441D01*
X0130152Y0127105D02*
X0147333Y0127105D01*
X0145735Y0125507D02*
X0131099Y0125507D01*
X0131277Y0123908D02*
X0144136Y0123908D01*
X0142538Y0122310D02*
X0130823Y0122310D01*
X0129487Y0120711D02*
X0140939Y0120711D01*
X0139782Y0119554D02*
X0136951Y0119554D01*
X0136014Y0118617D01*
X0136014Y0113329D01*
X0136951Y0112392D01*
X0142239Y0112392D01*
X0143176Y0113329D01*
X0143176Y0116160D01*
X0143534Y0116518D01*
X0178011Y0082041D01*
X0178011Y0075741D01*
X0180068Y0073685D01*
X0180002Y0073618D01*
X0180002Y0070139D01*
X0182462Y0067679D01*
X0185941Y0067679D01*
X0188402Y0070139D01*
X0188402Y0073618D01*
X0185941Y0076079D01*
X0183613Y0076079D01*
X0182211Y0077481D01*
X0182211Y0083781D01*
X0180981Y0085011D01*
X0146504Y0119488D01*
X0157378Y0130362D01*
X0157743Y0131244D01*
X0157743Y0147947D01*
X0157378Y0148829D01*
X0156703Y0149504D01*
X0156703Y0149504D01*
X0152766Y0153441D01*
X0151884Y0153806D01*
X0147315Y0153806D01*
X0147113Y0154008D01*
X0147113Y0154050D01*
X0146176Y0154987D01*
X0146134Y0154987D01*
X0145827Y0155294D01*
X0144005Y0155294D01*
X0144005Y0154987D01*
X0144005Y0154987D01*
X0144005Y0155294D01*
X0142182Y0155294D01*
X0141875Y0154987D01*
X0140888Y0154987D01*
X0139951Y0154050D01*
X0139951Y0153063D01*
X0139605Y0152717D01*
X0139605Y0150895D01*
X0139951Y0150895D01*
X0139951Y0150894D01*
X0139605Y0150894D01*
X0139605Y0149072D01*
X0142182Y0146494D01*
X0144005Y0146494D01*
X0145827Y0146494D01*
X0148339Y0149006D01*
X0150412Y0149006D01*
X0152943Y0146475D01*
X0152943Y0132715D01*
X0142413Y0122185D01*
X0139782Y0119554D01*
X0142413Y0122185D02*
X0142413Y0122185D01*
X0143772Y0120150D02*
X0139595Y0115973D01*
X0143176Y0115916D02*
X0144136Y0115916D01*
X0143176Y0114317D02*
X0145735Y0114317D01*
X0147333Y0112719D02*
X0142566Y0112719D01*
X0136625Y0112719D02*
X0130993Y0112719D01*
X0131277Y0113405D02*
X0131277Y0115076D01*
X0130638Y0116620D01*
X0129456Y0117802D01*
X0127913Y0118441D01*
X0121042Y0118441D01*
X0119498Y0117802D01*
X0118317Y0116620D01*
X0117677Y0115076D01*
X0117677Y0113405D01*
X0118317Y0111862D01*
X0119498Y0110680D01*
X0121042Y0110041D01*
X0127913Y0110041D01*
X0129456Y0110680D01*
X0130638Y0111862D01*
X0131277Y0113405D01*
X0131277Y0114317D02*
X0136014Y0114317D01*
X0136014Y0115916D02*
X0130929Y0115916D01*
X0129744Y0117514D02*
X0136014Y0117514D01*
X0136510Y0119113D02*
X0115379Y0119113D01*
X0113781Y0120711D02*
X0119467Y0120711D01*
X0118131Y0122310D02*
X0112182Y0122310D01*
X0110584Y0123908D02*
X0117677Y0123908D01*
X0117855Y0125507D02*
X0108985Y0125507D01*
X0107387Y0127105D02*
X0118802Y0127105D01*
X0119211Y0117514D02*
X0116978Y0117514D01*
X0117411Y0115916D02*
X0118025Y0115916D01*
X0117677Y0114317D02*
X0117411Y0114317D01*
X0117411Y0112719D02*
X0117962Y0112719D01*
X0117411Y0111120D02*
X0119058Y0111120D01*
X0117411Y0109522D02*
X0150530Y0109522D01*
X0148932Y0111120D02*
X0129896Y0111120D01*
X0129163Y0107923D02*
X0152129Y0107923D01*
X0153728Y0106325D02*
X0130760Y0106325D01*
X0131277Y0104726D02*
X0155326Y0104726D01*
X0156925Y0103128D02*
X0131162Y0103128D01*
X0130305Y0101529D02*
X0158523Y0101529D01*
X0160122Y0099931D02*
X0133661Y0099931D01*
X0135260Y0098332D02*
X0161720Y0098332D01*
X0163319Y0096734D02*
X0136858Y0096734D01*
X0138457Y0095135D02*
X0164917Y0095135D01*
X0166516Y0093537D02*
X0140055Y0093537D01*
X0141654Y0091938D02*
X0168114Y0091938D01*
X0169713Y0090340D02*
X0143252Y0090340D01*
X0144851Y0088741D02*
X0171311Y0088741D01*
X0172910Y0087143D02*
X0146449Y0087143D01*
X0148048Y0085544D02*
X0174508Y0085544D01*
X0176107Y0083946D02*
X0149646Y0083946D01*
X0151245Y0082347D02*
X0177705Y0082347D01*
X0178011Y0080748D02*
X0152843Y0080748D01*
X0154442Y0079150D02*
X0178011Y0079150D01*
X0178011Y0077551D02*
X0156040Y0077551D01*
X0157639Y0075953D02*
X0178011Y0075953D01*
X0179398Y0074354D02*
X0159237Y0074354D01*
X0160836Y0072756D02*
X0180002Y0072756D01*
X0180002Y0071157D02*
X0162434Y0071157D01*
X0164033Y0069559D02*
X0180582Y0069559D01*
X0182180Y0067960D02*
X0165631Y0067960D01*
X0167230Y0066362D02*
X0205661Y0066362D01*
X0205661Y0067960D02*
X0186223Y0067960D01*
X0187821Y0069559D02*
X0205661Y0069559D01*
X0205661Y0071157D02*
X0188402Y0071157D01*
X0188402Y0072756D02*
X0205661Y0072756D01*
X0205183Y0073150D02*
X0205183Y0078450D01*
X0199883Y0078450D01*
X0199883Y0078218D01*
X0200018Y0077362D01*
X0200286Y0076539D01*
X0200679Y0075768D01*
X0201188Y0075067D01*
X0201800Y0074455D01*
X0202500Y0073946D01*
X0203271Y0073553D01*
X0204095Y0073286D01*
X0204950Y0073150D01*
X0205183Y0073150D01*
X0205183Y0074354D02*
X0205583Y0074354D01*
X0205583Y0075953D02*
X0205183Y0075953D01*
X0205183Y0077551D02*
X0205583Y0077551D01*
X0201938Y0074354D02*
X0187666Y0074354D01*
X0186067Y0075953D02*
X0200584Y0075953D01*
X0199988Y0077551D02*
X0182211Y0077551D01*
X0182211Y0079150D02*
X0199893Y0079150D01*
X0200281Y0080748D02*
X0182211Y0080748D01*
X0182211Y0082347D02*
X0201301Y0082347D01*
X0202892Y0083946D02*
X0182046Y0083946D01*
X0180448Y0085544D02*
X0200994Y0085544D01*
X0200271Y0087143D02*
X0178849Y0087143D01*
X0177251Y0088741D02*
X0200083Y0088741D01*
X0199413Y0090340D02*
X0175652Y0090340D01*
X0174054Y0091938D02*
X0197814Y0091938D01*
X0196216Y0093537D02*
X0172455Y0093537D01*
X0170857Y0095135D02*
X0195111Y0095135D01*
X0195111Y0096734D02*
X0169258Y0096734D01*
X0167660Y0098332D02*
X0195111Y0098332D01*
X0195111Y0099931D02*
X0166061Y0099931D01*
X0164463Y0101529D02*
X0195111Y0101529D01*
X0195111Y0103128D02*
X0162864Y0103128D01*
X0161266Y0104726D02*
X0195111Y0104726D01*
X0195111Y0106325D02*
X0159667Y0106325D01*
X0158069Y0107923D02*
X0195111Y0107923D01*
X0195111Y0109522D02*
X0156470Y0109522D01*
X0154872Y0111120D02*
X0195111Y0111120D01*
X0194133Y0112719D02*
X0153273Y0112719D01*
X0151675Y0114317D02*
X0192535Y0114317D01*
X0190936Y0115916D02*
X0150076Y0115916D01*
X0148478Y0117514D02*
X0189338Y0117514D01*
X0187739Y0119113D02*
X0146879Y0119113D01*
X0147727Y0120711D02*
X0186141Y0120711D01*
X0184542Y0122310D02*
X0149326Y0122310D01*
X0150924Y0123908D02*
X0182944Y0123908D01*
X0181345Y0125507D02*
X0152523Y0125507D01*
X0154121Y0127105D02*
X0179747Y0127105D01*
X0178148Y0128704D02*
X0155720Y0128704D01*
X0157318Y0130302D02*
X0176550Y0130302D01*
X0174951Y0131901D02*
X0157743Y0131901D01*
X0157743Y0133499D02*
X0173353Y0133499D01*
X0171754Y0135098D02*
X0157743Y0135098D01*
X0157743Y0136696D02*
X0170156Y0136696D01*
X0168557Y0138295D02*
X0157743Y0138295D01*
X0157743Y0139893D02*
X0166959Y0139893D01*
X0165360Y0141492D02*
X0157743Y0141492D01*
X0157743Y0143090D02*
X0163762Y0143090D01*
X0162163Y0144689D02*
X0157743Y0144689D01*
X0157743Y0146287D02*
X0160565Y0146287D01*
X0158966Y0147886D02*
X0157743Y0147886D01*
X0157368Y0149484D02*
X0156722Y0149484D01*
X0155769Y0151083D02*
X0155124Y0151083D01*
X0154171Y0152682D02*
X0153525Y0152682D01*
X0152572Y0154280D02*
X0146883Y0154280D01*
X0148274Y0155879D02*
X0131172Y0155879D01*
X0131477Y0154280D02*
X0140181Y0154280D01*
X0139605Y0152682D02*
X0131197Y0152682D01*
X0131477Y0154241D02*
X0124477Y0154241D01*
X0131477Y0154241D01*
X0130142Y0151083D02*
X0139605Y0151083D01*
X0139605Y0149484D02*
X0070607Y0149484D01*
X0072206Y0147886D02*
X0089702Y0147886D01*
X0088179Y0146287D02*
X0073804Y0146287D01*
X0075403Y0144689D02*
X0087677Y0144689D01*
X0087808Y0143090D02*
X0077001Y0143090D01*
X0078600Y0141492D02*
X0088686Y0141492D01*
X0090689Y0138295D02*
X0081797Y0138295D01*
X0080198Y0139893D02*
X0139805Y0139893D01*
X0139805Y0139155D02*
X0142265Y0136694D01*
X0145744Y0136694D01*
X0148205Y0139155D01*
X0148205Y0142634D01*
X0145744Y0145094D01*
X0142265Y0145094D01*
X0139805Y0142634D01*
X0139805Y0139155D01*
X0140665Y0138295D02*
X0128265Y0138295D01*
X0130561Y0136696D02*
X0142263Y0136696D01*
X0145746Y0136696D02*
X0152943Y0136696D01*
X0152943Y0135098D02*
X0131268Y0135098D01*
X0131277Y0133499D02*
X0152943Y0133499D01*
X0152129Y0131901D02*
X0130654Y0131901D01*
X0130268Y0141492D02*
X0139805Y0141492D01*
X0140261Y0143090D02*
X0131147Y0143090D01*
X0131277Y0144689D02*
X0141859Y0144689D01*
X0144005Y0146494D02*
X0144005Y0147825D01*
X0144005Y0146494D01*
X0144005Y0147825D02*
X0144005Y0147825D01*
X0147219Y0147886D02*
X0151533Y0147886D01*
X0152943Y0146287D02*
X0130776Y0146287D01*
X0129252Y0147886D02*
X0140791Y0147886D01*
X0143532Y0151406D02*
X0151406Y0151406D01*
X0155343Y0147469D01*
X0155343Y0131721D01*
X0143772Y0120150D01*
X0147345Y0138295D02*
X0152943Y0138295D01*
X0152943Y0139893D02*
X0148205Y0139893D01*
X0148205Y0141492D02*
X0152943Y0141492D01*
X0152943Y0143090D02*
X0147748Y0143090D01*
X0146150Y0144689D02*
X0152943Y0144689D01*
X0161709Y0151083D02*
X0200654Y0151083D01*
X0200083Y0149484D02*
X0163307Y0149484D01*
X0164906Y0147886D02*
X0200083Y0147886D01*
X0200625Y0146287D02*
X0166504Y0146287D01*
X0168103Y0144689D02*
X0201849Y0144689D01*
X0202327Y0143090D02*
X0169701Y0143090D01*
X0171300Y0141492D02*
X0200823Y0141492D01*
X0200161Y0139893D02*
X0172898Y0139893D01*
X0174497Y0138295D02*
X0200083Y0138295D01*
X0200455Y0136696D02*
X0176095Y0136696D01*
X0177694Y0135098D02*
X0201440Y0135098D01*
X0203240Y0133499D02*
X0179293Y0133499D01*
X0180891Y0131901D02*
X0201138Y0131901D01*
X0200330Y0130302D02*
X0182490Y0130302D01*
X0184088Y0128704D02*
X0200083Y0128704D01*
X0200286Y0127105D02*
X0185687Y0127105D01*
X0187285Y0125507D02*
X0201031Y0125507D01*
X0202982Y0123908D02*
X0188884Y0123908D01*
X0190482Y0122310D02*
X0201547Y0122310D01*
X0200500Y0120711D02*
X0192081Y0120711D01*
X0193679Y0119113D02*
X0200083Y0119113D01*
X0200117Y0117514D02*
X0195278Y0117514D01*
X0196876Y0115916D02*
X0200779Y0115916D01*
X0202220Y0114317D02*
X0198475Y0114317D01*
X0199311Y0112719D02*
X0201956Y0112719D01*
X0200669Y0111120D02*
X0199311Y0111120D01*
X0199311Y0109522D02*
X0200083Y0109522D01*
X0200083Y0107923D02*
X0199311Y0107923D01*
X0199311Y0106325D02*
X0200609Y0106325D01*
X0201812Y0104726D02*
X0199311Y0104726D01*
X0199311Y0103128D02*
X0202365Y0103128D01*
X0200838Y0101529D02*
X0199311Y0101529D01*
X0199311Y0099931D02*
X0200176Y0099931D01*
X0200083Y0098332D02*
X0199311Y0098332D01*
X0199311Y0096734D02*
X0200440Y0096734D01*
X0200557Y0095135D02*
X0201403Y0095135D01*
X0202155Y0093537D02*
X0203329Y0093537D01*
X0203758Y0064763D02*
X0168828Y0064763D01*
X0170427Y0063165D02*
X0181359Y0063165D01*
X0182462Y0064268D02*
X0180002Y0061807D01*
X0180002Y0058328D01*
X0182462Y0055868D01*
X0185941Y0055868D01*
X0188402Y0058328D01*
X0188402Y0061807D01*
X0185941Y0064268D01*
X0182462Y0064268D01*
X0180002Y0061566D02*
X0172026Y0061566D01*
X0173624Y0059968D02*
X0180002Y0059968D01*
X0180002Y0058369D02*
X0176911Y0058369D01*
X0178779Y0056771D02*
X0181559Y0056771D01*
X0179211Y0055172D02*
X0196202Y0055172D01*
X0194604Y0053574D02*
X0178912Y0053574D01*
X0172310Y0053574D02*
X0166518Y0053574D01*
X0164920Y0055172D02*
X0172011Y0055172D01*
X0170881Y0056771D02*
X0163321Y0056771D01*
X0161723Y0058369D02*
X0169283Y0058369D01*
X0167684Y0059968D02*
X0160124Y0059968D01*
X0158526Y0061566D02*
X0166086Y0061566D01*
X0164487Y0063165D02*
X0156927Y0063165D01*
X0155328Y0064763D02*
X0162889Y0064763D01*
X0161290Y0066362D02*
X0153730Y0066362D01*
X0152131Y0067960D02*
X0159692Y0067960D01*
X0158093Y0069559D02*
X0150533Y0069559D01*
X0148934Y0071157D02*
X0156495Y0071157D01*
X0154896Y0072756D02*
X0148402Y0072756D01*
X0147666Y0074354D02*
X0153298Y0074354D01*
X0151699Y0075953D02*
X0146067Y0075953D01*
X0148502Y0079150D02*
X0105711Y0079150D01*
X0105711Y0080748D02*
X0119430Y0080748D01*
X0119498Y0080680D02*
X0121042Y0080041D01*
X0127913Y0080041D01*
X0129456Y0080680D01*
X0130638Y0081862D01*
X0131277Y0083405D01*
X0131277Y0085076D01*
X0130638Y0086620D01*
X0129456Y0087802D01*
X0127913Y0088441D01*
X0121042Y0088441D01*
X0119498Y0087802D01*
X0118317Y0086620D01*
X0117677Y0085076D01*
X0117677Y0083405D01*
X0118317Y0081862D01*
X0119498Y0080680D01*
X0118116Y0082347D02*
X0105711Y0082347D01*
X0105711Y0083946D02*
X0117677Y0083946D01*
X0117871Y0085544D02*
X0105711Y0085544D01*
X0105711Y0087143D02*
X0118839Y0087143D01*
X0120321Y0090340D02*
X0105711Y0090340D01*
X0105711Y0091938D02*
X0118285Y0091938D01*
X0117016Y0093537D02*
X0105711Y0093537D01*
X0105711Y0095135D02*
X0115417Y0095135D01*
X0113819Y0096734D02*
X0105711Y0096734D01*
X0105711Y0098332D02*
X0112220Y0098332D01*
X0111411Y0099931D02*
X0105711Y0099931D01*
X0105711Y0101529D02*
X0111411Y0101529D01*
X0111411Y0103128D02*
X0105711Y0103128D01*
X0105711Y0104726D02*
X0111411Y0104726D01*
X0111411Y0106325D02*
X0105711Y0106325D01*
X0105711Y0107923D02*
X0111411Y0107923D01*
X0111411Y0109522D02*
X0105711Y0109522D01*
X0105711Y0111120D02*
X0111411Y0111120D01*
X0111411Y0112719D02*
X0105711Y0112719D01*
X0105711Y0114317D02*
X0110635Y0114317D01*
X0109036Y0115916D02*
X0105711Y0115916D01*
X0105711Y0117514D02*
X0107438Y0117514D01*
X0105839Y0119113D02*
X0105479Y0119113D01*
X0104241Y0120711D02*
X0103881Y0120711D01*
X0102642Y0122310D02*
X0102282Y0122310D01*
X0099539Y0119113D02*
X0029211Y0119113D01*
X0029211Y0120711D02*
X0089467Y0120711D01*
X0088131Y0122310D02*
X0029211Y0122310D01*
X0029211Y0123908D02*
X0087677Y0123908D01*
X0087855Y0125507D02*
X0029211Y0125507D01*
X0029211Y0127105D02*
X0087047Y0127105D01*
X0085448Y0128704D02*
X0029211Y0128704D01*
X0029211Y0130302D02*
X0083850Y0130302D01*
X0082251Y0131901D02*
X0029211Y0131901D01*
X0029211Y0133499D02*
X0080653Y0133499D01*
X0079054Y0135098D02*
X0029211Y0135098D01*
X0029211Y0136696D02*
X0077456Y0136696D01*
X0075857Y0138295D02*
X0029211Y0138295D01*
X0029211Y0139893D02*
X0074259Y0139893D01*
X0072660Y0141492D02*
X0029211Y0141492D01*
X0029211Y0143090D02*
X0071062Y0143090D01*
X0069463Y0144689D02*
X0029211Y0144689D01*
X0029211Y0146287D02*
X0067865Y0146287D01*
X0066266Y0147886D02*
X0029211Y0147886D01*
X0029211Y0149484D02*
X0064668Y0149484D01*
X0063069Y0151083D02*
X0028911Y0151083D01*
X0028640Y0152682D02*
X0061471Y0152682D01*
X0059872Y0154280D02*
X0027433Y0154280D01*
X0023189Y0154280D02*
X0018411Y0154280D01*
X0018411Y0155879D02*
X0059211Y0155879D01*
X0059211Y0157477D02*
X0018411Y0157477D01*
X0018411Y0159076D02*
X0059211Y0159076D01*
X0059211Y0160674D02*
X0018411Y0160674D01*
X0020461Y0152682D02*
X0021982Y0152682D01*
X0024219Y0146287D02*
X0025011Y0146287D01*
X0025011Y0144689D02*
X0023557Y0144689D01*
X0025011Y0143090D02*
X0022042Y0143090D01*
X0022556Y0141492D02*
X0025011Y0141492D01*
X0025011Y0139893D02*
X0023770Y0139893D01*
X0024305Y0138295D02*
X0025011Y0138295D01*
X0025011Y0136696D02*
X0024305Y0136696D01*
X0023727Y0135098D02*
X0025011Y0135098D01*
X0025011Y0133499D02*
X0022451Y0133499D01*
X0022147Y0131901D02*
X0025011Y0131901D01*
X0025011Y0130302D02*
X0023601Y0130302D01*
X0024263Y0128704D02*
X0025011Y0128704D01*
X0025011Y0127105D02*
X0024305Y0127105D01*
X0023896Y0125507D02*
X0025011Y0125507D01*
X0025011Y0123908D02*
X0022860Y0123908D01*
X0021358Y0122310D02*
X0025011Y0122310D01*
X0025011Y0120711D02*
X0023337Y0120711D01*
X0024093Y0119113D02*
X0025011Y0119113D01*
X0025011Y0117514D02*
X0024305Y0117514D01*
X0024065Y0115916D02*
X0025011Y0115916D01*
X0025011Y0114317D02*
X0023269Y0114317D01*
X0025011Y0112719D02*
X0021195Y0112719D01*
X0022928Y0111120D02*
X0025011Y0111120D01*
X0025011Y0109522D02*
X0023924Y0109522D01*
X0024305Y0107923D02*
X0025011Y0107923D01*
X0025011Y0106325D02*
X0024235Y0106325D01*
X0023573Y0104726D02*
X0025011Y0104726D01*
X0025011Y0103128D02*
X0022080Y0103128D01*
X0022519Y0101529D02*
X0025011Y0101529D01*
X0025011Y0099931D02*
X0023754Y0099931D01*
X0024305Y0098332D02*
X0025011Y0098332D01*
X0025011Y0096734D02*
X0024305Y0096734D01*
X0023742Y0095135D02*
X0025011Y0095135D01*
X0025011Y0093537D02*
X0022489Y0093537D01*
X0022110Y0091938D02*
X0025011Y0091938D01*
X0025011Y0090340D02*
X0023585Y0090340D01*
X0024247Y0088741D02*
X0025011Y0088741D01*
X0025011Y0087143D02*
X0024305Y0087143D01*
X0023932Y0085544D02*
X0023911Y0085544D01*
X0023511Y0083946D02*
X0022898Y0083946D01*
X0023821Y0082347D02*
X0021701Y0082347D01*
X0023478Y0080748D02*
X0025097Y0080748D01*
X0024267Y0079150D02*
X0070540Y0079150D01*
X0070319Y0079683D02*
X0071126Y0077735D01*
X0072617Y0076244D01*
X0074565Y0075437D01*
X0076673Y0075437D01*
X0078621Y0076244D01*
X0080112Y0077735D01*
X0080919Y0079683D01*
X0080919Y0081791D01*
X0080112Y0083739D01*
X0078621Y0085230D01*
X0077675Y0085622D01*
X0077730Y0085640D01*
X0078502Y0086033D01*
X0079202Y0086542D01*
X0079814Y0087154D01*
X0080323Y0087854D01*
X0080716Y0088626D01*
X0080983Y0089449D01*
X0081119Y0090304D01*
X0081119Y0090737D01*
X0081119Y0091170D01*
X0080983Y0092025D01*
X0080716Y0092848D01*
X0080323Y0093620D01*
X0079814Y0094320D01*
X0079202Y0094932D01*
X0078502Y0095441D01*
X0077730Y0095834D01*
X0077675Y0095852D01*
X0078621Y0096244D01*
X0080112Y0097735D01*
X0080919Y0099683D01*
X0080919Y0101791D01*
X0080112Y0103739D01*
X0078621Y0105230D01*
X0076673Y0106037D01*
X0074565Y0106037D01*
X0072617Y0105230D01*
X0071126Y0103739D01*
X0070319Y0101791D01*
X0070319Y0099683D01*
X0071126Y0097735D01*
X0072617Y0096244D01*
X0073563Y0095852D01*
X0073508Y0095834D01*
X0072736Y0095441D01*
X0072036Y0094932D01*
X0071424Y0094320D01*
X0070915Y0093620D01*
X0070522Y0092848D01*
X0070254Y0092025D01*
X0070119Y0091170D01*
X0070119Y0090737D01*
X0070119Y0090304D01*
X0070254Y0089449D01*
X0070522Y0088626D01*
X0070915Y0087854D01*
X0071424Y0087154D01*
X0072036Y0086542D01*
X0072736Y0086033D01*
X0073508Y0085640D01*
X0073563Y0085622D01*
X0072617Y0085230D01*
X0071126Y0083739D01*
X0070319Y0081791D01*
X0070319Y0079683D01*
X0070319Y0080748D02*
X0029125Y0080748D01*
X0030401Y0082347D02*
X0070549Y0082347D01*
X0071332Y0083946D02*
X0030711Y0083946D01*
X0030290Y0085544D02*
X0073375Y0085544D01*
X0071435Y0087143D02*
X0029211Y0087143D01*
X0029211Y0088741D02*
X0070484Y0088741D01*
X0070119Y0090340D02*
X0029211Y0090340D01*
X0029211Y0091938D02*
X0070241Y0091938D01*
X0070119Y0090737D02*
X0075619Y0090737D01*
X0081119Y0090737D01*
X0075619Y0090737D01*
X0075619Y0090737D01*
X0070119Y0090737D01*
X0070873Y0093537D02*
X0029211Y0093537D01*
X0029211Y0095135D02*
X0072315Y0095135D01*
X0072127Y0096734D02*
X0029211Y0096734D01*
X0029211Y0098332D02*
X0070878Y0098332D01*
X0070319Y0099931D02*
X0029211Y0099931D01*
X0029211Y0101529D02*
X0070319Y0101529D01*
X0070872Y0103128D02*
X0029211Y0103128D01*
X0029211Y0104726D02*
X0072113Y0104726D01*
X0079125Y0104726D02*
X0087677Y0104726D01*
X0087677Y0105076D02*
X0087677Y0103405D01*
X0088317Y0101862D01*
X0089498Y0100680D01*
X0091042Y0100041D01*
X0097913Y0100041D01*
X0099456Y0100680D01*
X0100638Y0101862D01*
X0101277Y0103405D01*
X0101277Y0105076D01*
X0100638Y0106620D01*
X0099456Y0107802D01*
X0097913Y0108441D01*
X0091042Y0108441D01*
X0089498Y0107802D01*
X0088317Y0106620D01*
X0087677Y0105076D01*
X0088194Y0106325D02*
X0029211Y0106325D01*
X0029211Y0107923D02*
X0089792Y0107923D01*
X0091042Y0110041D02*
X0097913Y0110041D01*
X0099456Y0110680D01*
X0100638Y0111862D01*
X0101277Y0113405D01*
X0101277Y0115076D01*
X0100638Y0116620D01*
X0099456Y0117802D01*
X0097913Y0118441D01*
X0091042Y0118441D01*
X0089498Y0117802D01*
X0088317Y0116620D01*
X0087677Y0115076D01*
X0087677Y0113405D01*
X0088317Y0111862D01*
X0089498Y0110680D01*
X0091042Y0110041D01*
X0089058Y0111120D02*
X0029211Y0111120D01*
X0029211Y0109522D02*
X0101511Y0109522D01*
X0101511Y0111120D02*
X0099896Y0111120D01*
X0100993Y0112719D02*
X0101511Y0112719D01*
X0101511Y0114317D02*
X0101277Y0114317D01*
X0101511Y0115916D02*
X0100929Y0115916D01*
X0101138Y0117514D02*
X0099744Y0117514D01*
X0089211Y0117514D02*
X0029211Y0117514D01*
X0029211Y0115916D02*
X0088025Y0115916D01*
X0087677Y0114317D02*
X0029211Y0114317D01*
X0029211Y0112719D02*
X0087962Y0112719D01*
X0087792Y0103128D02*
X0080365Y0103128D01*
X0080919Y0101529D02*
X0088649Y0101529D01*
X0090188Y0098319D02*
X0089571Y0098004D01*
X0089011Y0097597D01*
X0088521Y0097107D01*
X0088114Y0096547D01*
X0087800Y0095930D01*
X0087586Y0095271D01*
X0087477Y0094587D01*
X0087477Y0094241D01*
X0094477Y0094241D01*
X0094477Y0094241D01*
X0094477Y0098641D01*
X0091531Y0098641D01*
X0090847Y0098533D01*
X0090188Y0098319D01*
X0090230Y0098332D02*
X0080359Y0098332D01*
X0080919Y0099931D02*
X0101511Y0099931D01*
X0101511Y0101529D02*
X0100305Y0101529D01*
X0101162Y0103128D02*
X0101511Y0103128D01*
X0101511Y0104726D02*
X0101277Y0104726D01*
X0101511Y0106325D02*
X0100760Y0106325D01*
X0101511Y0107923D02*
X0099163Y0107923D01*
X0097423Y0098641D02*
X0094477Y0098641D01*
X0094477Y0094241D01*
X0094477Y0094241D01*
X0087477Y0094241D01*
X0087477Y0093895D01*
X0087586Y0093211D01*
X0087800Y0092552D01*
X0088114Y0091935D01*
X0088521Y0091375D01*
X0089011Y0090885D01*
X0089571Y0090478D01*
X0090188Y0090163D01*
X0090847Y0089949D01*
X0091531Y0089841D01*
X0094477Y0089841D01*
X0094477Y0094241D01*
X0094477Y0094241D01*
X0094477Y0089841D01*
X0097423Y0089841D01*
X0098107Y0089949D01*
X0098766Y0090163D01*
X0099383Y0090478D01*
X0099944Y0090885D01*
X0100433Y0091375D01*
X0100840Y0091935D01*
X0101155Y0092552D01*
X0101369Y0093211D01*
X0101477Y0093895D01*
X0101477Y0094241D01*
X0101477Y0094587D01*
X0101369Y0095271D01*
X0101155Y0095930D01*
X0100840Y0096547D01*
X0100433Y0097107D01*
X0099944Y0097597D01*
X0099383Y0098004D01*
X0098766Y0098319D01*
X0098107Y0098533D01*
X0097423Y0098641D01*
X0098724Y0098332D02*
X0101511Y0098332D01*
X0101511Y0096734D02*
X0100705Y0096734D01*
X0101390Y0095135D02*
X0101511Y0095135D01*
X0101477Y0094241D02*
X0094477Y0094241D01*
X0094477Y0094241D01*
X0101477Y0094241D01*
X0101511Y0093537D02*
X0101420Y0093537D01*
X0101511Y0091938D02*
X0100842Y0091938D01*
X0101511Y0090340D02*
X0099112Y0090340D01*
X0097913Y0088441D02*
X0099456Y0087802D01*
X0100638Y0086620D01*
X0101277Y0085076D01*
X0101277Y0083405D01*
X0100638Y0081862D01*
X0099456Y0080680D01*
X0097913Y0080041D01*
X0091042Y0080041D01*
X0089498Y0080680D01*
X0088317Y0081862D01*
X0087677Y0083405D01*
X0087677Y0085076D01*
X0088317Y0086620D01*
X0089498Y0087802D01*
X0091042Y0088441D01*
X0097913Y0088441D01*
X0100115Y0087143D02*
X0101511Y0087143D01*
X0101511Y0088741D02*
X0080753Y0088741D01*
X0081119Y0090340D02*
X0089842Y0090340D01*
X0088112Y0091938D02*
X0080997Y0091938D01*
X0080365Y0093537D02*
X0087534Y0093537D01*
X0087564Y0095135D02*
X0078923Y0095135D01*
X0079111Y0096734D02*
X0088250Y0096734D01*
X0094477Y0096734D02*
X0094477Y0096734D01*
X0094477Y0098332D02*
X0094477Y0098332D01*
X0094477Y0095135D02*
X0094477Y0095135D01*
X0094477Y0093537D02*
X0094477Y0093537D01*
X0094477Y0091938D02*
X0094477Y0091938D01*
X0094477Y0090340D02*
X0094477Y0090340D01*
X0088839Y0087143D02*
X0079803Y0087143D01*
X0077863Y0085544D02*
X0087871Y0085544D01*
X0087677Y0083946D02*
X0079906Y0083946D01*
X0080689Y0082347D02*
X0088116Y0082347D01*
X0089430Y0080748D02*
X0080919Y0080748D01*
X0080698Y0079150D02*
X0101511Y0079150D01*
X0101511Y0080748D02*
X0099524Y0080748D01*
X0100839Y0082347D02*
X0101511Y0082347D01*
X0101511Y0083946D02*
X0101277Y0083946D01*
X0101083Y0085544D02*
X0101511Y0085544D01*
X0105711Y0088741D02*
X0138911Y0088741D01*
X0137313Y0090340D02*
X0128634Y0090340D01*
X0130669Y0091938D02*
X0135714Y0091938D01*
X0134116Y0093537D02*
X0131277Y0093537D01*
X0131253Y0095135D02*
X0132517Y0095135D01*
X0130115Y0087143D02*
X0140510Y0087143D01*
X0142108Y0085544D02*
X0131083Y0085544D01*
X0131277Y0083946D02*
X0143707Y0083946D01*
X0145305Y0082347D02*
X0130839Y0082347D01*
X0129524Y0080748D02*
X0146904Y0080748D01*
X0150101Y0077551D02*
X0140162Y0077551D01*
X0141235Y0075953D02*
X0142336Y0075953D01*
X0140002Y0071157D02*
X0137127Y0071157D01*
X0135529Y0069559D02*
X0140582Y0069559D01*
X0142180Y0067960D02*
X0133930Y0067960D01*
X0132332Y0066362D02*
X0147790Y0066362D01*
X0149389Y0064763D02*
X0131277Y0064763D01*
X0131177Y0063165D02*
X0141359Y0063165D01*
X0142462Y0064268D02*
X0140002Y0061807D01*
X0140002Y0058328D01*
X0142462Y0055868D01*
X0145941Y0055868D01*
X0148402Y0058328D01*
X0148402Y0061807D01*
X0145941Y0064268D01*
X0142462Y0064268D01*
X0140002Y0061566D02*
X0130342Y0061566D01*
X0129456Y0057802D02*
X0127913Y0058441D01*
X0121042Y0058441D01*
X0119498Y0057802D01*
X0118317Y0056620D01*
X0117677Y0055076D01*
X0117677Y0053405D01*
X0118317Y0051862D01*
X0119498Y0050680D01*
X0121042Y0050041D01*
X0127913Y0050041D01*
X0129456Y0050680D01*
X0130638Y0051862D01*
X0131277Y0053405D01*
X0131277Y0055076D01*
X0130638Y0056620D01*
X0129456Y0057802D01*
X0130487Y0056771D02*
X0141559Y0056771D01*
X0140002Y0058369D02*
X0128085Y0058369D01*
X0131237Y0055172D02*
X0158980Y0055172D01*
X0160578Y0053574D02*
X0131277Y0053574D01*
X0130685Y0051975D02*
X0162177Y0051975D01*
X0163611Y0050377D02*
X0128723Y0050377D01*
X0127913Y0048441D02*
X0129456Y0047802D01*
X0130638Y0046620D01*
X0131277Y0045076D01*
X0131277Y0043405D01*
X0130638Y0041862D01*
X0129456Y0040680D01*
X0127913Y0040041D01*
X0121042Y0040041D01*
X0119498Y0040680D01*
X0118317Y0041862D01*
X0117677Y0043405D01*
X0117677Y0045076D01*
X0118317Y0046620D01*
X0119498Y0047802D01*
X0121042Y0048441D01*
X0127913Y0048441D01*
X0130078Y0047180D02*
X0163611Y0047180D01*
X0163611Y0048778D02*
X0105711Y0048778D01*
X0105711Y0047180D02*
X0118876Y0047180D01*
X0117886Y0045581D02*
X0105711Y0045581D01*
X0106230Y0043983D02*
X0117677Y0043983D01*
X0118100Y0042384D02*
X0107146Y0042384D01*
X0107207Y0040786D02*
X0119393Y0040786D01*
X0121042Y0038441D02*
X0119498Y0037802D01*
X0118317Y0036620D01*
X0117677Y0035076D01*
X0117677Y0033405D01*
X0118317Y0031862D01*
X0119498Y0030680D01*
X0121042Y0030041D01*
X0127913Y0030041D01*
X0129456Y0030680D01*
X0130638Y0031862D01*
X0131056Y0032873D01*
X0131357Y0032147D01*
X0132848Y0030656D01*
X0134796Y0029849D01*
X0136905Y0029849D01*
X0138853Y0030656D01*
X0140344Y0032147D01*
X0141150Y0034095D01*
X0141150Y0036203D01*
X0140344Y0038151D01*
X0138853Y0039642D01*
X0136905Y0040449D01*
X0134796Y0040449D01*
X0132848Y0039642D01*
X0131357Y0038151D01*
X0130680Y0036517D01*
X0130638Y0036620D01*
X0129456Y0037802D01*
X0127913Y0038441D01*
X0121042Y0038441D01*
X0119285Y0037589D02*
X0099669Y0037589D01*
X0099456Y0037802D02*
X0097913Y0038441D01*
X0091042Y0038441D01*
X0089498Y0037802D01*
X0088317Y0036620D01*
X0087677Y0035076D01*
X0087677Y0033405D01*
X0088317Y0031862D01*
X0089498Y0030680D01*
X0091042Y0030041D01*
X0097913Y0030041D01*
X0099456Y0030680D01*
X0100638Y0031862D01*
X0101277Y0033405D01*
X0101277Y0035076D01*
X0100638Y0036620D01*
X0099456Y0037802D01*
X0100844Y0039187D02*
X0038644Y0039187D01*
X0037046Y0037589D02*
X0074444Y0037589D01*
X0075336Y0038480D02*
X0072876Y0036020D01*
X0072876Y0032541D01*
X0075336Y0030080D01*
X0078815Y0030080D01*
X0081276Y0032541D01*
X0081276Y0036020D01*
X0078815Y0038480D01*
X0075336Y0038480D01*
X0075253Y0039880D02*
X0072676Y0042458D01*
X0072676Y0044280D01*
X0077075Y0044280D01*
X0077075Y0044280D01*
X0077076Y0044280D02*
X0077076Y0044280D01*
X0077076Y0044280D01*
X0081476Y0044280D01*
X0081476Y0042458D01*
X0078898Y0039880D01*
X0077076Y0039880D01*
X0077076Y0044280D01*
X0081476Y0044280D01*
X0081476Y0046103D01*
X0078898Y0048680D01*
X0077076Y0048680D01*
X0077076Y0044280D01*
X0077076Y0039880D01*
X0075253Y0039880D01*
X0074348Y0040786D02*
X0040243Y0040786D01*
X0041841Y0042384D02*
X0072749Y0042384D01*
X0072676Y0043983D02*
X0043440Y0043983D01*
X0045038Y0045581D02*
X0072676Y0045581D01*
X0072676Y0046103D02*
X0072676Y0044280D01*
X0077075Y0044280D01*
X0077076Y0044280D02*
X0077076Y0048680D01*
X0075253Y0048680D01*
X0072676Y0046103D01*
X0073753Y0047180D02*
X0046637Y0047180D01*
X0048235Y0048778D02*
X0101511Y0048778D01*
X0101511Y0047180D02*
X0100078Y0047180D01*
X0101068Y0045581D02*
X0101511Y0045581D01*
X0101511Y0050377D02*
X0098723Y0050377D01*
X0099456Y0050680D02*
X0100638Y0051862D01*
X0101277Y0053405D01*
X0101277Y0055076D01*
X0100638Y0056620D01*
X0099456Y0057802D01*
X0097913Y0058441D01*
X0091042Y0058441D01*
X0089498Y0057802D01*
X0088337Y0056641D01*
X0049827Y0056641D01*
X0048944Y0056276D01*
X0029546Y0036877D01*
X0026715Y0036877D01*
X0025778Y0035940D01*
X0025778Y0030652D01*
X0026715Y0029715D01*
X0032003Y0029715D01*
X0032940Y0030652D01*
X0032940Y0033483D01*
X0051298Y0051841D01*
X0088337Y0051841D01*
X0089498Y0050680D01*
X0091042Y0050041D01*
X0097913Y0050041D01*
X0099456Y0050680D01*
X0100685Y0051975D02*
X0101511Y0051975D01*
X0101511Y0053574D02*
X0101277Y0053574D01*
X0101237Y0055172D02*
X0101511Y0055172D01*
X0101511Y0056771D02*
X0100487Y0056771D01*
X0101511Y0058369D02*
X0098085Y0058369D01*
X0097913Y0060041D02*
X0099456Y0060680D01*
X0100638Y0061862D01*
X0101277Y0063405D01*
X0101277Y0065076D01*
X0100638Y0066620D01*
X0099456Y0067802D01*
X0097913Y0068441D01*
X0091042Y0068441D01*
X0089498Y0067802D01*
X0088317Y0066620D01*
X0087677Y0065076D01*
X0087677Y0063405D01*
X0088317Y0061862D01*
X0089498Y0060680D01*
X0091042Y0060041D01*
X0097913Y0060041D01*
X0100342Y0061566D02*
X0101511Y0061566D01*
X0101511Y0059968D02*
X0047535Y0059968D01*
X0047535Y0059470D02*
X0045075Y0057009D01*
X0041596Y0057009D01*
X0039135Y0059470D01*
X0039135Y0062949D01*
X0041596Y0065409D01*
X0045075Y0065409D01*
X0047535Y0062949D01*
X0047535Y0059470D01*
X0046435Y0058369D02*
X0090869Y0058369D01*
X0088467Y0056771D02*
X0031903Y0056771D01*
X0030902Y0057772D02*
X0027423Y0057772D01*
X0024962Y0055311D01*
X0024962Y0051832D01*
X0027423Y0049372D01*
X0030902Y0049372D01*
X0033362Y0051832D01*
X0033362Y0055311D01*
X0030902Y0057772D01*
X0033362Y0055172D02*
X0047841Y0055172D01*
X0046243Y0053574D02*
X0033362Y0053574D01*
X0033362Y0051975D02*
X0044644Y0051975D01*
X0043046Y0050377D02*
X0031907Y0050377D01*
X0026417Y0050377D02*
X0021907Y0050377D01*
X0023362Y0051975D02*
X0024962Y0051975D01*
X0024962Y0053574D02*
X0023362Y0053574D01*
X0023362Y0055172D02*
X0024962Y0055172D01*
X0026422Y0056771D02*
X0021903Y0056771D01*
X0018411Y0058369D02*
X0040236Y0058369D01*
X0039135Y0059968D02*
X0018411Y0059968D01*
X0018411Y0061566D02*
X0039135Y0061566D01*
X0039351Y0063165D02*
X0018411Y0063165D01*
X0018411Y0064763D02*
X0040950Y0064763D01*
X0045721Y0064763D02*
X0087677Y0064763D01*
X0087777Y0063165D02*
X0047320Y0063165D01*
X0047535Y0061566D02*
X0088612Y0061566D01*
X0088210Y0066362D02*
X0018411Y0066362D01*
X0018411Y0067960D02*
X0089882Y0067960D01*
X0091042Y0070041D02*
X0097913Y0070041D01*
X0099456Y0070680D01*
X0100638Y0071862D01*
X0101277Y0073405D01*
X0101277Y0075076D01*
X0100638Y0076620D01*
X0099456Y0077802D01*
X0097913Y0078441D01*
X0091042Y0078441D01*
X0089498Y0077802D01*
X0088317Y0076620D01*
X0087677Y0075076D01*
X0087677Y0073405D01*
X0088317Y0071862D01*
X0089498Y0070680D01*
X0091042Y0070041D01*
X0089021Y0071157D02*
X0018411Y0071157D01*
X0019205Y0072048D02*
X0019438Y0072048D01*
X0020293Y0072183D01*
X0021116Y0072451D01*
X0021887Y0072844D01*
X0022588Y0073353D01*
X0023200Y0073965D01*
X0023709Y0074665D01*
X0024102Y0075437D01*
X0024369Y0076260D01*
X0024505Y0077115D01*
X0024505Y0077348D01*
X0019205Y0077348D01*
X0019205Y0072048D01*
X0019205Y0072756D02*
X0018805Y0072756D01*
X0018805Y0074354D02*
X0019205Y0074354D01*
X0019205Y0075953D02*
X0018805Y0075953D01*
X0019205Y0077551D02*
X0071309Y0077551D01*
X0073319Y0075953D02*
X0024269Y0075953D01*
X0023483Y0074354D02*
X0087677Y0074354D01*
X0087946Y0072756D02*
X0021715Y0072756D01*
X0018411Y0069559D02*
X0101511Y0069559D01*
X0101511Y0071157D02*
X0099933Y0071157D01*
X0101008Y0072756D02*
X0101511Y0072756D01*
X0101511Y0074354D02*
X0101277Y0074354D01*
X0101511Y0075953D02*
X0100914Y0075953D01*
X0101511Y0077551D02*
X0099706Y0077551D01*
X0105711Y0077551D02*
X0118965Y0077551D01*
X0119011Y0077597D02*
X0118521Y0077107D01*
X0118114Y0076547D01*
X0117800Y0075930D01*
X0117586Y0075271D01*
X0117477Y0074587D01*
X0117477Y0074241D01*
X0124477Y0074241D01*
X0124477Y0074241D01*
X0124477Y0078641D01*
X0121531Y0078641D01*
X0120847Y0078533D01*
X0120188Y0078319D01*
X0119571Y0078004D01*
X0119011Y0077597D01*
X0117811Y0075953D02*
X0105711Y0075953D01*
X0105711Y0074354D02*
X0117477Y0074354D01*
X0117477Y0074241D02*
X0117477Y0073895D01*
X0117586Y0073211D01*
X0117800Y0072552D01*
X0118114Y0071935D01*
X0118521Y0071375D01*
X0119011Y0070885D01*
X0119571Y0070478D01*
X0120188Y0070163D01*
X0120847Y0069949D01*
X0121531Y0069841D01*
X0124477Y0069841D01*
X0124477Y0074241D01*
X0124477Y0074241D01*
X0117477Y0074241D01*
X0117733Y0072756D02*
X0105711Y0072756D01*
X0105711Y0071157D02*
X0118738Y0071157D01*
X0119882Y0067960D02*
X0105711Y0067960D01*
X0105711Y0066362D02*
X0118210Y0066362D01*
X0117677Y0064763D02*
X0105711Y0064763D01*
X0105711Y0063165D02*
X0117777Y0063165D01*
X0118612Y0061566D02*
X0105711Y0061566D01*
X0105711Y0059968D02*
X0140002Y0059968D01*
X0146844Y0056771D02*
X0157381Y0056771D01*
X0155783Y0058369D02*
X0148402Y0058369D01*
X0148402Y0059968D02*
X0154184Y0059968D01*
X0152586Y0061566D02*
X0148402Y0061566D01*
X0147044Y0063165D02*
X0150987Y0063165D01*
X0135460Y0077551D02*
X0129989Y0077551D01*
X0129944Y0077597D02*
X0130433Y0077107D01*
X0130840Y0076547D01*
X0131155Y0075930D01*
X0131369Y0075271D01*
X0131477Y0074587D01*
X0131477Y0074241D01*
X0124477Y0074241D01*
X0124477Y0074241D01*
X0124477Y0078641D01*
X0127423Y0078641D01*
X0128107Y0078533D01*
X0128766Y0078319D01*
X0129383Y0078004D01*
X0129944Y0077597D01*
X0131143Y0075953D02*
X0134387Y0075953D01*
X0134211Y0074354D02*
X0131477Y0074354D01*
X0131477Y0074241D02*
X0124477Y0074241D01*
X0124477Y0069841D01*
X0127423Y0069841D01*
X0128107Y0069949D01*
X0128766Y0070163D01*
X0129383Y0070478D01*
X0129944Y0070885D01*
X0130433Y0071375D01*
X0130840Y0071935D01*
X0131155Y0072552D01*
X0131369Y0073211D01*
X0131477Y0073895D01*
X0131477Y0074241D01*
X0131221Y0072756D02*
X0132786Y0072756D01*
X0131188Y0071157D02*
X0130216Y0071157D01*
X0129589Y0069559D02*
X0105711Y0069559D01*
X0101511Y0067960D02*
X0099073Y0067960D01*
X0100745Y0066362D02*
X0101511Y0066362D01*
X0101511Y0064763D02*
X0101277Y0064763D01*
X0101177Y0063165D02*
X0101511Y0063165D01*
X0105711Y0058369D02*
X0120869Y0058369D01*
X0118467Y0056771D02*
X0105711Y0056771D01*
X0105711Y0055172D02*
X0117717Y0055172D01*
X0117677Y0053574D02*
X0105711Y0053574D01*
X0105711Y0051975D02*
X0118270Y0051975D01*
X0120231Y0050377D02*
X0105711Y0050377D01*
X0100015Y0040786D02*
X0099562Y0040786D01*
X0100899Y0035990D02*
X0118056Y0035990D01*
X0117677Y0034392D02*
X0101277Y0034392D01*
X0101024Y0032793D02*
X0117931Y0032793D01*
X0118984Y0031195D02*
X0099971Y0031195D01*
X0106378Y0039187D02*
X0132393Y0039187D01*
X0131124Y0037589D02*
X0129669Y0037589D01*
X0129562Y0040786D02*
X0163611Y0040786D01*
X0163611Y0042384D02*
X0130854Y0042384D01*
X0131277Y0043983D02*
X0163611Y0043983D01*
X0163611Y0045581D02*
X0131068Y0045581D01*
X0139307Y0039187D02*
X0157993Y0039187D01*
X0156724Y0037589D02*
X0140576Y0037589D01*
X0141150Y0035990D02*
X0156150Y0035990D01*
X0156150Y0034392D02*
X0141150Y0034392D01*
X0140611Y0032793D02*
X0156689Y0032793D01*
X0157909Y0031195D02*
X0139392Y0031195D01*
X0132309Y0031195D02*
X0129971Y0031195D01*
X0131023Y0032793D02*
X0131089Y0032793D01*
X0132349Y0021604D02*
X0047735Y0021604D01*
X0047735Y0020005D02*
X0131031Y0020005D01*
X0135650Y0020005D02*
X0136050Y0020005D01*
X0136050Y0021604D02*
X0135650Y0021604D01*
X0139351Y0021604D02*
X0158210Y0021604D01*
X0156814Y0020005D02*
X0140670Y0020005D01*
X0164691Y0021604D02*
X0166540Y0021604D01*
X0169769Y0023202D02*
X0047565Y0023202D01*
X0045967Y0024801D02*
X0203046Y0024801D01*
X0201297Y0023202D02*
X0171145Y0023202D01*
X0170657Y0023202D02*
X0170257Y0023202D01*
X0170257Y0021604D02*
X0170657Y0021604D01*
X0170657Y0020005D02*
X0170257Y0020005D01*
X0174374Y0021604D02*
X0192422Y0021604D01*
X0191257Y0020005D02*
X0175477Y0020005D01*
X0173604Y0031195D02*
X0192909Y0031195D01*
X0191459Y0032793D02*
X0175055Y0032793D01*
X0175717Y0034392D02*
X0190797Y0034392D01*
X0190757Y0035990D02*
X0175757Y0035990D01*
X0175346Y0037589D02*
X0191168Y0037589D01*
X0192206Y0039187D02*
X0174307Y0039187D01*
X0171648Y0040786D02*
X0194865Y0040786D01*
X0197248Y0040786D02*
X0199839Y0040786D01*
X0200453Y0042384D02*
X0167811Y0042384D01*
X0167811Y0043983D02*
X0201853Y0043983D01*
X0201783Y0045581D02*
X0167811Y0045581D01*
X0167811Y0047180D02*
X0200505Y0047180D01*
X0199925Y0048778D02*
X0167811Y0048778D01*
X0165065Y0039187D02*
X0164907Y0039187D01*
X0164992Y0031195D02*
X0167309Y0031195D01*
X0186844Y0056771D02*
X0197801Y0056771D01*
X0199400Y0058369D02*
X0188402Y0058369D01*
X0188402Y0059968D02*
X0199925Y0059968D01*
X0200289Y0061566D02*
X0188402Y0061566D01*
X0187044Y0063165D02*
X0201260Y0063165D01*
X0202142Y0055172D02*
X0202192Y0055172D01*
X0201669Y0053574D02*
X0200544Y0053574D01*
X0200458Y0051975D02*
X0198945Y0051975D01*
X0199925Y0050377D02*
X0197347Y0050377D01*
X0201317Y0034392D02*
X0202860Y0034392D01*
X0200888Y0032793D02*
X0200655Y0032793D01*
X0200135Y0031195D02*
X0199204Y0031195D01*
X0199925Y0029596D02*
X0018411Y0029596D01*
X0018411Y0027998D02*
X0200167Y0027998D01*
X0200965Y0026399D02*
X0018411Y0026399D01*
X0018411Y0024801D02*
X0040704Y0024801D01*
X0039106Y0023202D02*
X0018411Y0023202D01*
X0018411Y0021604D02*
X0038935Y0021604D01*
X0038935Y0021209D02*
X0043335Y0021209D01*
X0038935Y0021209D01*
X0038935Y0020005D02*
X0018411Y0020005D01*
X0018411Y0031195D02*
X0025778Y0031195D01*
X0025778Y0032793D02*
X0018411Y0032793D01*
X0018411Y0034392D02*
X0025778Y0034392D01*
X0025828Y0035990D02*
X0018411Y0035990D01*
X0018411Y0037589D02*
X0030258Y0037589D01*
X0031856Y0039187D02*
X0018411Y0039187D01*
X0018411Y0040786D02*
X0033455Y0040786D01*
X0035053Y0042384D02*
X0018411Y0042384D01*
X0018411Y0043983D02*
X0036652Y0043983D01*
X0038250Y0045581D02*
X0018411Y0045581D01*
X0018411Y0047180D02*
X0039849Y0047180D01*
X0041447Y0048778D02*
X0018411Y0048778D01*
X0029359Y0033296D02*
X0050304Y0054241D01*
X0094477Y0054241D01*
X0090231Y0050377D02*
X0049834Y0050377D01*
X0035447Y0035990D02*
X0072876Y0035990D01*
X0072876Y0034392D02*
X0033849Y0034392D01*
X0032940Y0032793D02*
X0072876Y0032793D01*
X0074222Y0031195D02*
X0032940Y0031195D01*
X0043335Y0025609D02*
X0043335Y0021210D01*
X0043335Y0021210D01*
X0043335Y0021209D02*
X0043335Y0021209D01*
X0043335Y0021210D02*
X0043335Y0025609D01*
X0043335Y0024801D02*
X0043335Y0024801D01*
X0043335Y0023202D02*
X0043335Y0023202D01*
X0043335Y0021604D02*
X0043335Y0021604D01*
X0077076Y0040786D02*
X0077076Y0040786D01*
X0077076Y0042384D02*
X0077076Y0042384D01*
X0077076Y0043983D02*
X0077076Y0043983D01*
X0077076Y0044280D02*
X0077076Y0044280D01*
X0077076Y0045581D02*
X0077076Y0045581D01*
X0077076Y0047180D02*
X0077076Y0047180D01*
X0080399Y0047180D02*
X0088876Y0047180D01*
X0087886Y0045581D02*
X0081476Y0045581D01*
X0081476Y0043983D02*
X0087677Y0043983D01*
X0088100Y0042384D02*
X0081402Y0042384D01*
X0079804Y0040786D02*
X0089393Y0040786D01*
X0089285Y0037589D02*
X0079707Y0037589D01*
X0081276Y0035990D02*
X0088056Y0035990D01*
X0087677Y0034392D02*
X0081276Y0034392D01*
X0081276Y0032793D02*
X0087931Y0032793D01*
X0088984Y0031195D02*
X0079930Y0031195D01*
X0124477Y0071157D02*
X0124477Y0071157D01*
X0124477Y0072756D02*
X0124477Y0072756D01*
X0124477Y0074241D02*
X0124477Y0074241D01*
X0124477Y0074354D02*
X0124477Y0074354D01*
X0124477Y0075953D02*
X0124477Y0075953D01*
X0124477Y0077551D02*
X0124477Y0077551D01*
X0118649Y0101529D02*
X0118563Y0101529D01*
X0117792Y0103128D02*
X0117411Y0103128D01*
X0117411Y0104726D02*
X0117677Y0104726D01*
X0117411Y0106325D02*
X0118194Y0106325D01*
X0117411Y0107923D02*
X0119792Y0107923D01*
X0089248Y0077551D02*
X0079929Y0077551D01*
X0077919Y0075953D02*
X0088040Y0075953D01*
X0075619Y0090737D02*
X0075619Y0090737D01*
X0088191Y0131901D02*
X0088300Y0131901D01*
X0087677Y0133499D02*
X0086593Y0133499D01*
X0087686Y0135098D02*
X0084994Y0135098D01*
X0083395Y0136696D02*
X0088393Y0136696D01*
X0093769Y0143532D02*
X0094477Y0144241D01*
X0089095Y0151083D02*
X0069009Y0151083D01*
X0067410Y0152682D02*
X0087977Y0152682D01*
X0087677Y0154280D02*
X0065812Y0154280D01*
X0064213Y0155879D02*
X0088009Y0155879D01*
X0089174Y0157477D02*
X0063411Y0157477D01*
X0084005Y0165470D02*
X0084005Y0165470D01*
X0084005Y0167068D02*
X0084005Y0167068D01*
X0084005Y0168667D02*
X0084005Y0168667D01*
X0084005Y0170265D02*
X0084005Y0170265D01*
X0084005Y0171864D02*
X0084005Y0171864D01*
X0094162Y0154556D02*
X0094477Y0154241D01*
X0124477Y0154280D02*
X0124477Y0154280D01*
X0124477Y0154241D02*
X0124477Y0154241D01*
X0124477Y0152682D02*
X0124477Y0152682D01*
X0124477Y0151083D02*
X0124477Y0151083D01*
X0124477Y0155879D02*
X0124477Y0155879D01*
X0124477Y0157477D02*
X0124477Y0157477D01*
X0158512Y0154280D02*
X0205661Y0154280D01*
X0201918Y0152682D02*
X0160110Y0152682D01*
X0169717Y0181455D02*
X0205661Y0181455D01*
X0205661Y0183053D02*
X0170882Y0183053D01*
X0170882Y0184652D02*
X0205661Y0184652D01*
X0205661Y0186250D02*
X0170730Y0186250D01*
X0204928Y0163871D02*
X0205661Y0163871D01*
X0205661Y0162273D02*
X0205216Y0162273D01*
X0205216Y0160674D02*
X0205661Y0160674D01*
X0205661Y0159076D02*
X0204353Y0159076D01*
X0200304Y0021604D02*
X0199691Y0021604D01*
X0053337Y0184652D02*
X0018411Y0184652D01*
X0018411Y0186250D02*
X0053337Y0186250D01*
X0053337Y0187849D02*
X0018411Y0187849D01*
X0018411Y0189447D02*
X0029544Y0189447D01*
X0028093Y0191046D02*
X0018411Y0191046D01*
X0018411Y0192644D02*
X0027431Y0192644D01*
X0027197Y0194243D02*
X0018411Y0194243D01*
X0018411Y0195841D02*
X0027204Y0195841D01*
X0027866Y0197440D02*
X0018411Y0197440D01*
X0018411Y0199038D02*
X0028997Y0199038D01*
X0037993Y0189447D02*
X0053337Y0189447D01*
X0030742Y0183053D02*
X0018411Y0183053D01*
X0018411Y0181455D02*
X0028736Y0181455D01*
X0027758Y0179856D02*
X0018411Y0179856D01*
X0018411Y0178258D02*
X0027197Y0178258D01*
X0027197Y0176659D02*
X0018411Y0176659D01*
X0018411Y0175061D02*
X0027539Y0175061D01*
X0028206Y0173462D02*
X0018411Y0173462D01*
X0018411Y0171864D02*
X0029805Y0171864D01*
D17*
X0056918Y0186839D03*
X0088414Y0186839D03*
X0094162Y0154556D03*
X0139595Y0115973D03*
X0143532Y0151406D03*
X0029359Y0033296D03*
D18*
X0027111Y0083811D02*
X0027111Y0149511D01*
X0025311Y0151311D01*
X0061311Y0155811D02*
X0088311Y0128811D01*
X0098211Y0128811D01*
X0100911Y0126111D01*
X0101811Y0126111D01*
X0113511Y0114411D01*
X0113511Y0100011D01*
X0118011Y0095511D01*
X0118911Y0095511D01*
X0119811Y0094611D01*
X0124311Y0094611D01*
X0124477Y0094241D01*
X0118911Y0098211D02*
X0130611Y0098211D01*
X0131511Y0099111D01*
X0175611Y0055011D01*
X0165711Y0051411D02*
X0195411Y0051411D01*
X0203511Y0059511D01*
X0204411Y0059511D01*
X0205225Y0059635D01*
X0184611Y0072111D02*
X0184202Y0071879D01*
X0184611Y0072111D02*
X0180111Y0076611D01*
X0180111Y0082911D01*
X0144111Y0118911D01*
X0144111Y0119811D01*
X0143772Y0120150D01*
X0118911Y0098211D02*
X0115311Y0101811D01*
X0115311Y0116211D01*
X0097311Y0134211D01*
X0094611Y0134211D01*
X0094477Y0134241D01*
X0094477Y0124241D02*
X0094611Y0123411D01*
X0098211Y0123411D01*
X0103611Y0118011D01*
X0103611Y0041511D01*
X0124477Y0064241D02*
X0125211Y0064911D01*
X0127911Y0064911D01*
X0137811Y0074811D01*
X0144202Y0071879D02*
X0145011Y0071211D01*
X0145911Y0071211D01*
X0165711Y0051411D01*
X0165711Y0041511D01*
X0171111Y0036111D01*
X0170457Y0035543D01*
X0203511Y0089211D02*
X0205311Y0089211D01*
X0205383Y0088650D01*
X0203511Y0089211D02*
X0197211Y0095511D01*
X0197211Y0112611D01*
X0153111Y0156711D01*
X0150411Y0156711D01*
X0115311Y0191811D01*
X0114411Y0191811D01*
X0113611Y0192253D01*
X0061311Y0171111D02*
X0061311Y0155811D01*
D19*
X0061311Y0171111D03*
X0025311Y0151311D03*
X0027111Y0083811D03*
X0103611Y0041511D03*
X0137811Y0074811D03*
X0175611Y0055011D03*
M02*
