%
M48
M72
T01C0.02362
T02C0.02400
T03C0.03150
T04C0.03200
T05C0.03543
T06C0.03937
T07C0.04000
%
T01
X56918Y186839
X88414Y186839
X94162Y154556
X139595Y115973
X143532Y151406
X29359Y33296
T02
X27111Y83811
X25311Y151311
X61311Y171111
X137811Y74811
X103611Y41511
X175611Y55011
T03
X75619Y80737
X75619Y90737
X75619Y100737
X67706Y199595
X75580Y199595
X83454Y199595
T04
X84005Y178296
X84005Y168296
X94477Y164241
X94477Y154241
X94477Y144241
X94477Y134241
X94477Y124241
X94477Y114241
X94477Y104241
X94477Y94241
X94477Y84241
X94477Y74241
X94477Y64241
X94477Y54241
X94477Y44241
X94477Y34241
X77076Y34280
X77076Y44280
X43335Y61209
X29162Y53572
X19162Y53572
X43335Y21209
X124477Y34241
X124477Y44241
X124477Y54241
X124477Y64241
X124477Y74241
X124477Y84241
X124477Y94241
X124477Y104241
X124477Y114241
X124477Y124241
X124477Y134241
X124477Y144241
X124477Y154241
X124477Y164241
X144005Y150894
X144005Y140894
X166682Y184359
X166682Y194359
X179005Y198926
X189005Y198926
X200816Y201761
X200816Y161761
X118611Y199753
X113611Y192253
X108611Y199753
X144202Y71879
X144202Y60068
X184202Y60068
X184202Y71879
T05
X33769Y177194
X33769Y194517
T06
X59831Y199595
X91328Y199595
T07
X19005Y147548
X19005Y137548
X19005Y127548
X19005Y117548
X19005Y107548
X19005Y97548
X19005Y87548
X19005Y77548
X135850Y35149
X135850Y17349
X161450Y17349
X170457Y17743
X161450Y35149
X170457Y35543
X196057Y35543
X205225Y39635
X205225Y29635
X205225Y19635
X196057Y17743
X205225Y49635
X205225Y59635
X205383Y78650
X205383Y88650
X205383Y98650
X205383Y108650
X205383Y118650
X205383Y128650
X205383Y138650
X205383Y148650
M30
