G75*
%MOIN*%
%OFA0B0*%
%FSLAX25Y25*%
%IPPOS*%
%LPD*%
%AMOC8*
5,1,8,0,0,1.08239X$1,22.5*
%
%ADD10C,0.00000*%
%ADD11OC8,0.06000*%
%ADD12C,0.08200*%
%ADD13C,0.04343*%
%ADD14C,0.00500*%
%ADD15C,0.06000*%
%ADD16C,0.05950*%
%ADD17C,0.06737*%
%ADD18R,0.04762X0.04762*%
%ADD19C,0.04800*%
D10*
X0013611Y0013611D02*
X0013611Y0210461D01*
X0210461Y0210461D01*
X0210461Y0013611D01*
X0013611Y0013611D01*
X0031997Y0177194D02*
X0031999Y0177278D01*
X0032005Y0177361D01*
X0032015Y0177444D01*
X0032029Y0177527D01*
X0032046Y0177609D01*
X0032068Y0177690D01*
X0032093Y0177769D01*
X0032122Y0177848D01*
X0032155Y0177925D01*
X0032191Y0178000D01*
X0032231Y0178074D01*
X0032274Y0178146D01*
X0032321Y0178215D01*
X0032371Y0178282D01*
X0032424Y0178347D01*
X0032480Y0178409D01*
X0032538Y0178469D01*
X0032600Y0178526D01*
X0032664Y0178579D01*
X0032731Y0178630D01*
X0032800Y0178677D01*
X0032871Y0178722D01*
X0032944Y0178762D01*
X0033019Y0178799D01*
X0033096Y0178833D01*
X0033174Y0178863D01*
X0033253Y0178889D01*
X0033334Y0178912D01*
X0033416Y0178930D01*
X0033498Y0178945D01*
X0033581Y0178956D01*
X0033664Y0178963D01*
X0033748Y0178966D01*
X0033832Y0178965D01*
X0033915Y0178960D01*
X0033999Y0178951D01*
X0034081Y0178938D01*
X0034163Y0178922D01*
X0034244Y0178901D01*
X0034325Y0178877D01*
X0034403Y0178849D01*
X0034481Y0178817D01*
X0034557Y0178781D01*
X0034631Y0178742D01*
X0034703Y0178700D01*
X0034773Y0178654D01*
X0034841Y0178605D01*
X0034906Y0178553D01*
X0034969Y0178498D01*
X0035029Y0178440D01*
X0035087Y0178379D01*
X0035141Y0178315D01*
X0035193Y0178249D01*
X0035241Y0178181D01*
X0035286Y0178110D01*
X0035327Y0178037D01*
X0035366Y0177963D01*
X0035400Y0177887D01*
X0035431Y0177809D01*
X0035458Y0177730D01*
X0035482Y0177649D01*
X0035501Y0177568D01*
X0035517Y0177486D01*
X0035529Y0177403D01*
X0035537Y0177319D01*
X0035541Y0177236D01*
X0035541Y0177152D01*
X0035537Y0177069D01*
X0035529Y0176985D01*
X0035517Y0176902D01*
X0035501Y0176820D01*
X0035482Y0176739D01*
X0035458Y0176658D01*
X0035431Y0176579D01*
X0035400Y0176501D01*
X0035366Y0176425D01*
X0035327Y0176351D01*
X0035286Y0176278D01*
X0035241Y0176207D01*
X0035193Y0176139D01*
X0035141Y0176073D01*
X0035087Y0176009D01*
X0035029Y0175948D01*
X0034969Y0175890D01*
X0034906Y0175835D01*
X0034841Y0175783D01*
X0034773Y0175734D01*
X0034703Y0175688D01*
X0034631Y0175646D01*
X0034557Y0175607D01*
X0034481Y0175571D01*
X0034403Y0175539D01*
X0034325Y0175511D01*
X0034244Y0175487D01*
X0034163Y0175466D01*
X0034081Y0175450D01*
X0033999Y0175437D01*
X0033915Y0175428D01*
X0033832Y0175423D01*
X0033748Y0175422D01*
X0033664Y0175425D01*
X0033581Y0175432D01*
X0033498Y0175443D01*
X0033416Y0175458D01*
X0033334Y0175476D01*
X0033253Y0175499D01*
X0033174Y0175525D01*
X0033096Y0175555D01*
X0033019Y0175589D01*
X0032944Y0175626D01*
X0032871Y0175666D01*
X0032800Y0175711D01*
X0032731Y0175758D01*
X0032664Y0175809D01*
X0032600Y0175862D01*
X0032538Y0175919D01*
X0032480Y0175979D01*
X0032424Y0176041D01*
X0032371Y0176106D01*
X0032321Y0176173D01*
X0032274Y0176242D01*
X0032231Y0176314D01*
X0032191Y0176388D01*
X0032155Y0176463D01*
X0032122Y0176540D01*
X0032093Y0176619D01*
X0032068Y0176698D01*
X0032046Y0176779D01*
X0032029Y0176861D01*
X0032015Y0176944D01*
X0032005Y0177027D01*
X0031999Y0177110D01*
X0031997Y0177194D01*
X0031997Y0194517D02*
X0031999Y0194601D01*
X0032005Y0194684D01*
X0032015Y0194767D01*
X0032029Y0194850D01*
X0032046Y0194932D01*
X0032068Y0195013D01*
X0032093Y0195092D01*
X0032122Y0195171D01*
X0032155Y0195248D01*
X0032191Y0195323D01*
X0032231Y0195397D01*
X0032274Y0195469D01*
X0032321Y0195538D01*
X0032371Y0195605D01*
X0032424Y0195670D01*
X0032480Y0195732D01*
X0032538Y0195792D01*
X0032600Y0195849D01*
X0032664Y0195902D01*
X0032731Y0195953D01*
X0032800Y0196000D01*
X0032871Y0196045D01*
X0032944Y0196085D01*
X0033019Y0196122D01*
X0033096Y0196156D01*
X0033174Y0196186D01*
X0033253Y0196212D01*
X0033334Y0196235D01*
X0033416Y0196253D01*
X0033498Y0196268D01*
X0033581Y0196279D01*
X0033664Y0196286D01*
X0033748Y0196289D01*
X0033832Y0196288D01*
X0033915Y0196283D01*
X0033999Y0196274D01*
X0034081Y0196261D01*
X0034163Y0196245D01*
X0034244Y0196224D01*
X0034325Y0196200D01*
X0034403Y0196172D01*
X0034481Y0196140D01*
X0034557Y0196104D01*
X0034631Y0196065D01*
X0034703Y0196023D01*
X0034773Y0195977D01*
X0034841Y0195928D01*
X0034906Y0195876D01*
X0034969Y0195821D01*
X0035029Y0195763D01*
X0035087Y0195702D01*
X0035141Y0195638D01*
X0035193Y0195572D01*
X0035241Y0195504D01*
X0035286Y0195433D01*
X0035327Y0195360D01*
X0035366Y0195286D01*
X0035400Y0195210D01*
X0035431Y0195132D01*
X0035458Y0195053D01*
X0035482Y0194972D01*
X0035501Y0194891D01*
X0035517Y0194809D01*
X0035529Y0194726D01*
X0035537Y0194642D01*
X0035541Y0194559D01*
X0035541Y0194475D01*
X0035537Y0194392D01*
X0035529Y0194308D01*
X0035517Y0194225D01*
X0035501Y0194143D01*
X0035482Y0194062D01*
X0035458Y0193981D01*
X0035431Y0193902D01*
X0035400Y0193824D01*
X0035366Y0193748D01*
X0035327Y0193674D01*
X0035286Y0193601D01*
X0035241Y0193530D01*
X0035193Y0193462D01*
X0035141Y0193396D01*
X0035087Y0193332D01*
X0035029Y0193271D01*
X0034969Y0193213D01*
X0034906Y0193158D01*
X0034841Y0193106D01*
X0034773Y0193057D01*
X0034703Y0193011D01*
X0034631Y0192969D01*
X0034557Y0192930D01*
X0034481Y0192894D01*
X0034403Y0192862D01*
X0034325Y0192834D01*
X0034244Y0192810D01*
X0034163Y0192789D01*
X0034081Y0192773D01*
X0033999Y0192760D01*
X0033915Y0192751D01*
X0033832Y0192746D01*
X0033748Y0192745D01*
X0033664Y0192748D01*
X0033581Y0192755D01*
X0033498Y0192766D01*
X0033416Y0192781D01*
X0033334Y0192799D01*
X0033253Y0192822D01*
X0033174Y0192848D01*
X0033096Y0192878D01*
X0033019Y0192912D01*
X0032944Y0192949D01*
X0032871Y0192989D01*
X0032800Y0193034D01*
X0032731Y0193081D01*
X0032664Y0193132D01*
X0032600Y0193185D01*
X0032538Y0193242D01*
X0032480Y0193302D01*
X0032424Y0193364D01*
X0032371Y0193429D01*
X0032321Y0193496D01*
X0032274Y0193565D01*
X0032231Y0193637D01*
X0032191Y0193711D01*
X0032155Y0193786D01*
X0032122Y0193863D01*
X0032093Y0193942D01*
X0032068Y0194021D01*
X0032046Y0194102D01*
X0032029Y0194184D01*
X0032015Y0194267D01*
X0032005Y0194350D01*
X0031999Y0194433D01*
X0031997Y0194517D01*
D11*
X0084005Y0178296D03*
X0084005Y0168296D03*
X0113611Y0192253D03*
X0108611Y0199753D03*
X0118611Y0199753D03*
X0166682Y0194359D03*
X0166682Y0184359D03*
X0179005Y0198926D03*
X0189005Y0198926D03*
X0200816Y0201761D03*
X0200816Y0161761D03*
X0144005Y0150894D03*
X0144005Y0140894D03*
X0144202Y0071879D03*
X0144202Y0060068D03*
X0184202Y0060068D03*
X0184202Y0071879D03*
X0077076Y0044280D03*
X0077076Y0034280D03*
X0043335Y0021209D03*
X0029162Y0053572D03*
X0019162Y0053572D03*
X0043335Y0061209D03*
D12*
X0019005Y0077548D03*
X0019005Y0087548D03*
X0019005Y0097548D03*
X0019005Y0107548D03*
X0019005Y0117548D03*
X0019005Y0127548D03*
X0019005Y0137548D03*
X0019005Y0147548D03*
X0075619Y0100737D03*
X0075619Y0090737D03*
X0075619Y0080737D03*
X0205383Y0078650D03*
X0205383Y0088650D03*
X0205383Y0098650D03*
X0205383Y0108650D03*
X0205383Y0118650D03*
X0205383Y0128650D03*
X0205383Y0138650D03*
X0205383Y0148650D03*
X0205225Y0059635D03*
X0205225Y0049635D03*
X0205225Y0039635D03*
X0205225Y0029635D03*
X0205225Y0019635D03*
D13*
X0033769Y0177194D03*
X0033769Y0194517D03*
D14*
X0133921Y0038071D02*
X0133400Y0037651D01*
X0132972Y0037138D01*
X0132651Y0036551D01*
X0132452Y0035913D01*
X0132380Y0035249D01*
X0132370Y0035169D01*
X0132439Y0034496D01*
X0132637Y0033849D01*
X0132957Y0033254D01*
X0133388Y0032732D01*
X0133912Y0032305D01*
X0134509Y0031988D01*
X0135157Y0031793D01*
X0135830Y0031729D01*
X0135860Y0031709D01*
X0136521Y0031769D01*
X0137157Y0031957D01*
X0137745Y0032266D01*
X0138261Y0032683D01*
X0138686Y0033193D01*
X0139003Y0033775D01*
X0139200Y0034409D01*
X0139270Y0035069D01*
X0139290Y0035179D01*
X0139218Y0035855D01*
X0139014Y0036505D01*
X0138689Y0037102D01*
X0138253Y0037624D01*
X0137723Y0038051D01*
X0137121Y0038366D01*
X0136468Y0038558D01*
X0135791Y0038619D01*
X0135820Y0038629D01*
X0135154Y0038569D01*
X0134513Y0038381D01*
X0133921Y0038071D01*
X0133880Y0038038D02*
X0137739Y0038038D01*
X0138323Y0037540D02*
X0133307Y0037540D01*
X0132919Y0037041D02*
X0138722Y0037041D01*
X0138994Y0036543D02*
X0132649Y0036543D01*
X0132493Y0036044D02*
X0139159Y0036044D01*
X0139251Y0035546D02*
X0132412Y0035546D01*
X0132383Y0035047D02*
X0139268Y0035047D01*
X0139215Y0034548D02*
X0132433Y0034548D01*
X0132575Y0034050D02*
X0139088Y0034050D01*
X0138881Y0033551D02*
X0132797Y0033551D01*
X0133123Y0033053D02*
X0138570Y0033053D01*
X0138102Y0032554D02*
X0133606Y0032554D01*
X0134381Y0032056D02*
X0137346Y0032056D01*
X0136541Y0038537D02*
X0135044Y0038537D01*
X0135840Y0020799D02*
X0135174Y0020739D01*
X0134533Y0020551D01*
X0133941Y0020241D01*
X0133420Y0019821D01*
X0132992Y0019308D01*
X0132672Y0018721D01*
X0132472Y0018084D01*
X0132400Y0017419D01*
X0132391Y0017339D01*
X0132459Y0016666D01*
X0132657Y0016020D01*
X0132977Y0015424D01*
X0133408Y0014902D01*
X0133932Y0014475D01*
X0134529Y0014158D01*
X0135177Y0013964D01*
X0135850Y0013899D01*
X0135880Y0013879D01*
X0136541Y0013939D01*
X0137178Y0014127D01*
X0137765Y0014436D01*
X0138281Y0014853D01*
X0138706Y0015363D01*
X0139023Y0015946D01*
X0139220Y0016579D01*
X0139290Y0017239D01*
X0139310Y0017349D01*
X0139238Y0018026D01*
X0139035Y0018675D01*
X0138709Y0019272D01*
X0138273Y0019794D01*
X0137743Y0020221D01*
X0137141Y0020536D01*
X0136488Y0020728D01*
X0135811Y0020789D01*
X0135840Y0020799D01*
X0136957Y0020590D02*
X0134668Y0020590D01*
X0133756Y0020092D02*
X0137903Y0020092D01*
X0138440Y0019593D02*
X0133230Y0019593D01*
X0132875Y0019095D02*
X0138805Y0019095D01*
X0139059Y0018596D02*
X0132632Y0018596D01*
X0132476Y0018098D02*
X0139215Y0018098D01*
X0139283Y0017599D02*
X0132420Y0017599D01*
X0132415Y0017101D02*
X0139275Y0017101D01*
X0139223Y0016602D02*
X0132478Y0016602D01*
X0132631Y0016104D02*
X0139072Y0016104D01*
X0138838Y0015605D02*
X0132880Y0015605D01*
X0133240Y0015107D02*
X0138493Y0015107D01*
X0137978Y0014608D02*
X0133769Y0014608D01*
X0134691Y0014110D02*
X0137118Y0014110D01*
X0158059Y0016676D02*
X0158257Y0016029D01*
X0158577Y0015434D01*
X0159008Y0014912D01*
X0159532Y0014485D01*
X0160129Y0014168D01*
X0160777Y0013973D01*
X0161450Y0013909D01*
X0161480Y0013889D01*
X0162141Y0013949D01*
X0162778Y0014137D01*
X0163365Y0014445D01*
X0163881Y0014863D01*
X0164306Y0015372D01*
X0164623Y0015955D01*
X0164820Y0016589D01*
X0164890Y0017249D01*
X0164910Y0017359D01*
X0164838Y0018035D01*
X0164635Y0018685D01*
X0164309Y0019282D01*
X0163873Y0019804D01*
X0163343Y0020231D01*
X0162741Y0020546D01*
X0162088Y0020738D01*
X0161411Y0020799D01*
X0161440Y0020809D01*
X0160774Y0020749D01*
X0160133Y0020560D01*
X0159541Y0020251D01*
X0159020Y0019831D01*
X0158592Y0019318D01*
X0158272Y0018731D01*
X0158072Y0018093D01*
X0158000Y0017429D01*
X0157991Y0017349D01*
X0158059Y0016676D01*
X0158081Y0016602D02*
X0164822Y0016602D01*
X0164874Y0017101D02*
X0158016Y0017101D01*
X0158019Y0017599D02*
X0164884Y0017599D01*
X0164818Y0018098D02*
X0158073Y0018098D01*
X0158229Y0018596D02*
X0164662Y0018596D01*
X0164411Y0019095D02*
X0158470Y0019095D01*
X0158822Y0019593D02*
X0164049Y0019593D01*
X0163516Y0020092D02*
X0159344Y0020092D01*
X0160234Y0020590D02*
X0162591Y0020590D01*
X0167278Y0019115D02*
X0167078Y0018477D01*
X0167007Y0017813D01*
X0166997Y0017733D01*
X0167065Y0017060D01*
X0167263Y0016413D01*
X0167584Y0015818D01*
X0168014Y0015296D01*
X0168538Y0014869D01*
X0169136Y0014552D01*
X0169783Y0014357D01*
X0170457Y0014293D01*
X0170487Y0014273D01*
X0171147Y0014333D01*
X0171784Y0014521D01*
X0172371Y0014829D01*
X0172887Y0015246D01*
X0173312Y0015756D01*
X0173629Y0016339D01*
X0173827Y0016973D01*
X0173896Y0017633D01*
X0173917Y0017743D01*
X0173844Y0018419D01*
X0173641Y0019068D01*
X0173315Y0019665D01*
X0172879Y0020187D01*
X0172350Y0020614D01*
X0171747Y0020930D01*
X0171094Y0021122D01*
X0170417Y0021183D01*
X0170446Y0021193D01*
X0169781Y0021133D01*
X0169139Y0020944D01*
X0168547Y0020634D01*
X0168027Y0020215D01*
X0167598Y0019702D01*
X0167278Y0019115D01*
X0167271Y0019095D02*
X0173627Y0019095D01*
X0173789Y0018596D02*
X0167115Y0018596D01*
X0167037Y0018098D02*
X0173878Y0018098D01*
X0173893Y0017599D02*
X0167010Y0017599D01*
X0167061Y0017101D02*
X0173840Y0017101D01*
X0173711Y0016602D02*
X0167205Y0016602D01*
X0167430Y0016104D02*
X0173501Y0016104D01*
X0173186Y0015605D02*
X0167759Y0015605D01*
X0168247Y0015107D02*
X0172714Y0015107D01*
X0171950Y0014608D02*
X0169029Y0014608D01*
X0164669Y0016104D02*
X0158234Y0016104D01*
X0158485Y0015605D02*
X0164432Y0015605D01*
X0164084Y0015107D02*
X0158848Y0015107D01*
X0159381Y0014608D02*
X0163566Y0014608D01*
X0162685Y0014110D02*
X0160323Y0014110D01*
X0167539Y0019593D02*
X0173354Y0019593D01*
X0172959Y0020092D02*
X0167924Y0020092D01*
X0168492Y0020590D02*
X0172380Y0020590D01*
X0171207Y0021089D02*
X0169631Y0021089D01*
X0170467Y0032103D02*
X0171127Y0032163D01*
X0171764Y0032351D01*
X0172351Y0032659D01*
X0172867Y0033076D01*
X0173292Y0033586D01*
X0173609Y0034169D01*
X0173806Y0034803D01*
X0173876Y0035463D01*
X0173896Y0035573D01*
X0173824Y0036249D01*
X0173621Y0036898D01*
X0173295Y0037495D01*
X0172859Y0038017D01*
X0172329Y0038444D01*
X0171727Y0038760D01*
X0171074Y0038952D01*
X0170397Y0039013D01*
X0170426Y0039022D01*
X0169761Y0038963D01*
X0169119Y0038774D01*
X0168527Y0038464D01*
X0168007Y0038045D01*
X0167578Y0037532D01*
X0167258Y0036945D01*
X0167058Y0036307D01*
X0166987Y0035643D01*
X0166977Y0035563D01*
X0167045Y0034890D01*
X0167243Y0034243D01*
X0167564Y0033648D01*
X0167994Y0033126D01*
X0168518Y0032699D01*
X0169116Y0032382D01*
X0169763Y0032187D01*
X0170437Y0032123D01*
X0170467Y0032103D01*
X0168790Y0032554D02*
X0172152Y0032554D01*
X0172838Y0033053D02*
X0168084Y0033053D01*
X0167643Y0033551D02*
X0173263Y0033551D01*
X0173544Y0034050D02*
X0167347Y0034050D01*
X0167150Y0034548D02*
X0173727Y0034548D01*
X0173832Y0035047D02*
X0167029Y0035047D01*
X0166978Y0035546D02*
X0173891Y0035546D01*
X0173846Y0036044D02*
X0167030Y0036044D01*
X0167132Y0036543D02*
X0173732Y0036543D01*
X0173543Y0037041D02*
X0167310Y0037041D01*
X0167585Y0037540D02*
X0173258Y0037540D01*
X0172833Y0038038D02*
X0168001Y0038038D01*
X0168665Y0038537D02*
X0172153Y0038537D01*
X0164776Y0036044D02*
X0158116Y0036044D01*
X0158072Y0035904D02*
X0158000Y0035239D01*
X0157991Y0035159D01*
X0158059Y0034486D01*
X0158257Y0033840D01*
X0158577Y0033244D01*
X0159008Y0032723D01*
X0159532Y0032295D01*
X0160129Y0031978D01*
X0160777Y0031784D01*
X0161450Y0031719D01*
X0161480Y0031699D01*
X0162141Y0031759D01*
X0162778Y0031947D01*
X0163365Y0032256D01*
X0163881Y0032673D01*
X0164306Y0033183D01*
X0164623Y0033766D01*
X0164820Y0034399D01*
X0164890Y0035059D01*
X0164910Y0035169D01*
X0164838Y0035846D01*
X0164635Y0036495D01*
X0164309Y0037092D01*
X0163873Y0037614D01*
X0163343Y0038041D01*
X0162741Y0038356D01*
X0162088Y0038548D01*
X0161411Y0038609D01*
X0161440Y0038619D01*
X0160774Y0038559D01*
X0160133Y0038371D01*
X0159541Y0038061D01*
X0159020Y0037641D01*
X0158592Y0037128D01*
X0158272Y0036542D01*
X0158272Y0036543D02*
X0164608Y0036543D01*
X0164336Y0037041D02*
X0158544Y0037041D01*
X0158272Y0036542D02*
X0158072Y0035904D01*
X0158033Y0035546D02*
X0164870Y0035546D01*
X0164889Y0035047D02*
X0158002Y0035047D01*
X0158052Y0034548D02*
X0164836Y0034548D01*
X0164712Y0034050D02*
X0158192Y0034050D01*
X0158412Y0033551D02*
X0164506Y0033551D01*
X0164198Y0033053D02*
X0158735Y0033053D01*
X0159214Y0032554D02*
X0163735Y0032554D01*
X0162985Y0032056D02*
X0159983Y0032056D01*
X0158935Y0037540D02*
X0163935Y0037540D01*
X0163347Y0038038D02*
X0159513Y0038038D01*
X0160698Y0038537D02*
X0162127Y0038537D01*
X0192597Y0035553D02*
X0192665Y0034880D01*
X0192863Y0034233D01*
X0193184Y0033638D01*
X0193614Y0033116D01*
X0194138Y0032689D01*
X0194736Y0032372D01*
X0195383Y0032177D01*
X0196057Y0032113D01*
X0196087Y0032093D01*
X0196747Y0032153D01*
X0197384Y0032341D01*
X0197971Y0032649D01*
X0198487Y0033067D01*
X0198912Y0033576D01*
X0199229Y0034159D01*
X0199427Y0034793D01*
X0199496Y0035453D01*
X0199517Y0035563D01*
X0199444Y0036239D01*
X0199241Y0036888D01*
X0198915Y0037486D01*
X0198479Y0038008D01*
X0197950Y0038435D01*
X0197347Y0038750D01*
X0196694Y0038942D01*
X0196017Y0039003D01*
X0196046Y0039013D01*
X0195381Y0038953D01*
X0194739Y0038764D01*
X0194147Y0038454D01*
X0193627Y0038035D01*
X0193198Y0037522D01*
X0192878Y0036935D01*
X0192678Y0036297D01*
X0192607Y0035633D01*
X0192597Y0035553D01*
X0192598Y0035546D02*
X0199513Y0035546D01*
X0199465Y0036044D02*
X0192651Y0036044D01*
X0192755Y0036543D02*
X0199349Y0036543D01*
X0199158Y0037041D02*
X0192936Y0037041D01*
X0193213Y0037540D02*
X0198870Y0037540D01*
X0198441Y0038038D02*
X0193631Y0038038D01*
X0194304Y0038537D02*
X0197755Y0038537D01*
X0199453Y0035047D02*
X0192648Y0035047D01*
X0192767Y0034548D02*
X0199350Y0034548D01*
X0199170Y0034050D02*
X0192962Y0034050D01*
X0193255Y0033551D02*
X0198891Y0033551D01*
X0198471Y0033053D02*
X0193692Y0033053D01*
X0194391Y0032554D02*
X0197791Y0032554D01*
X0196694Y0021132D02*
X0196017Y0021193D01*
X0196046Y0021202D01*
X0195381Y0021143D01*
X0194739Y0020954D01*
X0194147Y0020644D01*
X0193627Y0020225D01*
X0193198Y0019712D01*
X0192878Y0019125D01*
X0192678Y0018487D01*
X0192607Y0017822D01*
X0192597Y0017743D01*
X0192665Y0017070D01*
X0192863Y0016423D01*
X0193184Y0015828D01*
X0193614Y0015306D01*
X0194138Y0014879D01*
X0194736Y0014561D01*
X0195383Y0014367D01*
X0196057Y0014303D01*
X0196087Y0014283D01*
X0196747Y0014343D01*
X0197384Y0014531D01*
X0197971Y0014839D01*
X0198487Y0015256D01*
X0198912Y0015766D01*
X0199229Y0016349D01*
X0199427Y0016983D01*
X0199496Y0017643D01*
X0199517Y0017753D01*
X0199444Y0018429D01*
X0199241Y0019078D01*
X0198915Y0019675D01*
X0198479Y0020197D01*
X0197950Y0020624D01*
X0197347Y0020940D01*
X0196694Y0021132D01*
X0196840Y0021089D02*
X0195197Y0021089D01*
X0194080Y0020590D02*
X0197992Y0020590D01*
X0198567Y0020092D02*
X0193516Y0020092D01*
X0193133Y0019593D02*
X0198960Y0019593D01*
X0199232Y0019095D02*
X0192868Y0019095D01*
X0192712Y0018596D02*
X0199392Y0018596D01*
X0199480Y0018098D02*
X0192636Y0018098D01*
X0192611Y0017599D02*
X0199492Y0017599D01*
X0199439Y0017101D02*
X0192662Y0017101D01*
X0192808Y0016602D02*
X0199308Y0016602D01*
X0199096Y0016104D02*
X0193035Y0016104D01*
X0193367Y0015605D02*
X0198778Y0015605D01*
X0198302Y0015107D02*
X0193859Y0015107D01*
X0194648Y0014608D02*
X0197531Y0014608D01*
D15*
X0127077Y0034241D02*
X0121877Y0034241D01*
X0121877Y0044241D02*
X0127077Y0044241D01*
X0127077Y0054241D02*
X0121877Y0054241D01*
X0121877Y0064241D02*
X0127077Y0064241D01*
X0127077Y0074241D02*
X0121877Y0074241D01*
X0121877Y0084241D02*
X0127077Y0084241D01*
X0127077Y0094241D02*
X0121877Y0094241D01*
X0121877Y0104241D02*
X0127077Y0104241D01*
X0127077Y0114241D02*
X0121877Y0114241D01*
X0121877Y0124241D02*
X0127077Y0124241D01*
X0127077Y0134241D02*
X0121877Y0134241D01*
X0121877Y0144241D02*
X0127077Y0144241D01*
X0127077Y0154241D02*
X0121877Y0154241D01*
X0121877Y0164241D02*
X0127077Y0164241D01*
X0097077Y0164241D02*
X0091877Y0164241D01*
X0091877Y0154241D02*
X0097077Y0154241D01*
X0097077Y0144241D02*
X0091877Y0144241D01*
X0091877Y0134241D02*
X0097077Y0134241D01*
X0097077Y0124241D02*
X0091877Y0124241D01*
X0091877Y0114241D02*
X0097077Y0114241D01*
X0097077Y0104241D02*
X0091877Y0104241D01*
X0091877Y0094241D02*
X0097077Y0094241D01*
X0097077Y0084241D02*
X0091877Y0084241D01*
X0091877Y0074241D02*
X0097077Y0074241D01*
X0097077Y0064241D02*
X0091877Y0064241D01*
X0091877Y0054241D02*
X0097077Y0054241D01*
X0097077Y0044241D02*
X0091877Y0044241D01*
X0091877Y0034241D02*
X0097077Y0034241D01*
D16*
X0083454Y0199595D03*
X0075580Y0199595D03*
X0067706Y0199595D03*
D17*
X0059831Y0199595D03*
X0091328Y0199595D03*
D18*
X0088414Y0186839D03*
X0056918Y0186839D03*
X0094162Y0154556D03*
X0139595Y0115973D03*
X0143532Y0151406D03*
X0029359Y0033296D03*
D19*
X0027111Y0083811D03*
X0025311Y0151311D03*
X0061311Y0171111D03*
X0137811Y0074811D03*
X0103611Y0041511D03*
X0175611Y0055011D03*
M02*
