G75*
%MOIN*%
%OFA0B0*%
%FSLAX25Y25*%
%IPPOS*%
%LPD*%
%AMOC8*
5,1,8,0,0,1.08239X$1,22.5*
%
%ADD10C,0.00000*%
%ADD11C,0.00700*%
%ADD12C,0.00600*%
%ADD13C,0.01200*%
%ADD14C,0.00500*%
%ADD15C,0.00800*%
%ADD16C,0.00400*%
%ADD17C,0.00100*%
%ADD18C,0.01000*%
%ADD19R,0.02400X0.03400*%
%ADD20R,0.03400X0.02400*%
D10*
X0013611Y0013611D02*
X0013611Y0210461D01*
X0210461Y0210461D01*
X0210461Y0013611D01*
X0013611Y0013611D01*
X0031997Y0177194D02*
X0031999Y0177278D01*
X0032005Y0177361D01*
X0032015Y0177444D01*
X0032029Y0177527D01*
X0032046Y0177609D01*
X0032068Y0177690D01*
X0032093Y0177769D01*
X0032122Y0177848D01*
X0032155Y0177925D01*
X0032191Y0178000D01*
X0032231Y0178074D01*
X0032274Y0178146D01*
X0032321Y0178215D01*
X0032371Y0178282D01*
X0032424Y0178347D01*
X0032480Y0178409D01*
X0032538Y0178469D01*
X0032600Y0178526D01*
X0032664Y0178579D01*
X0032731Y0178630D01*
X0032800Y0178677D01*
X0032871Y0178722D01*
X0032944Y0178762D01*
X0033019Y0178799D01*
X0033096Y0178833D01*
X0033174Y0178863D01*
X0033253Y0178889D01*
X0033334Y0178912D01*
X0033416Y0178930D01*
X0033498Y0178945D01*
X0033581Y0178956D01*
X0033664Y0178963D01*
X0033748Y0178966D01*
X0033832Y0178965D01*
X0033915Y0178960D01*
X0033999Y0178951D01*
X0034081Y0178938D01*
X0034163Y0178922D01*
X0034244Y0178901D01*
X0034325Y0178877D01*
X0034403Y0178849D01*
X0034481Y0178817D01*
X0034557Y0178781D01*
X0034631Y0178742D01*
X0034703Y0178700D01*
X0034773Y0178654D01*
X0034841Y0178605D01*
X0034906Y0178553D01*
X0034969Y0178498D01*
X0035029Y0178440D01*
X0035087Y0178379D01*
X0035141Y0178315D01*
X0035193Y0178249D01*
X0035241Y0178181D01*
X0035286Y0178110D01*
X0035327Y0178037D01*
X0035366Y0177963D01*
X0035400Y0177887D01*
X0035431Y0177809D01*
X0035458Y0177730D01*
X0035482Y0177649D01*
X0035501Y0177568D01*
X0035517Y0177486D01*
X0035529Y0177403D01*
X0035537Y0177319D01*
X0035541Y0177236D01*
X0035541Y0177152D01*
X0035537Y0177069D01*
X0035529Y0176985D01*
X0035517Y0176902D01*
X0035501Y0176820D01*
X0035482Y0176739D01*
X0035458Y0176658D01*
X0035431Y0176579D01*
X0035400Y0176501D01*
X0035366Y0176425D01*
X0035327Y0176351D01*
X0035286Y0176278D01*
X0035241Y0176207D01*
X0035193Y0176139D01*
X0035141Y0176073D01*
X0035087Y0176009D01*
X0035029Y0175948D01*
X0034969Y0175890D01*
X0034906Y0175835D01*
X0034841Y0175783D01*
X0034773Y0175734D01*
X0034703Y0175688D01*
X0034631Y0175646D01*
X0034557Y0175607D01*
X0034481Y0175571D01*
X0034403Y0175539D01*
X0034325Y0175511D01*
X0034244Y0175487D01*
X0034163Y0175466D01*
X0034081Y0175450D01*
X0033999Y0175437D01*
X0033915Y0175428D01*
X0033832Y0175423D01*
X0033748Y0175422D01*
X0033664Y0175425D01*
X0033581Y0175432D01*
X0033498Y0175443D01*
X0033416Y0175458D01*
X0033334Y0175476D01*
X0033253Y0175499D01*
X0033174Y0175525D01*
X0033096Y0175555D01*
X0033019Y0175589D01*
X0032944Y0175626D01*
X0032871Y0175666D01*
X0032800Y0175711D01*
X0032731Y0175758D01*
X0032664Y0175809D01*
X0032600Y0175862D01*
X0032538Y0175919D01*
X0032480Y0175979D01*
X0032424Y0176041D01*
X0032371Y0176106D01*
X0032321Y0176173D01*
X0032274Y0176242D01*
X0032231Y0176314D01*
X0032191Y0176388D01*
X0032155Y0176463D01*
X0032122Y0176540D01*
X0032093Y0176619D01*
X0032068Y0176698D01*
X0032046Y0176779D01*
X0032029Y0176861D01*
X0032015Y0176944D01*
X0032005Y0177027D01*
X0031999Y0177110D01*
X0031997Y0177194D01*
X0031997Y0194517D02*
X0031999Y0194601D01*
X0032005Y0194684D01*
X0032015Y0194767D01*
X0032029Y0194850D01*
X0032046Y0194932D01*
X0032068Y0195013D01*
X0032093Y0195092D01*
X0032122Y0195171D01*
X0032155Y0195248D01*
X0032191Y0195323D01*
X0032231Y0195397D01*
X0032274Y0195469D01*
X0032321Y0195538D01*
X0032371Y0195605D01*
X0032424Y0195670D01*
X0032480Y0195732D01*
X0032538Y0195792D01*
X0032600Y0195849D01*
X0032664Y0195902D01*
X0032731Y0195953D01*
X0032800Y0196000D01*
X0032871Y0196045D01*
X0032944Y0196085D01*
X0033019Y0196122D01*
X0033096Y0196156D01*
X0033174Y0196186D01*
X0033253Y0196212D01*
X0033334Y0196235D01*
X0033416Y0196253D01*
X0033498Y0196268D01*
X0033581Y0196279D01*
X0033664Y0196286D01*
X0033748Y0196289D01*
X0033832Y0196288D01*
X0033915Y0196283D01*
X0033999Y0196274D01*
X0034081Y0196261D01*
X0034163Y0196245D01*
X0034244Y0196224D01*
X0034325Y0196200D01*
X0034403Y0196172D01*
X0034481Y0196140D01*
X0034557Y0196104D01*
X0034631Y0196065D01*
X0034703Y0196023D01*
X0034773Y0195977D01*
X0034841Y0195928D01*
X0034906Y0195876D01*
X0034969Y0195821D01*
X0035029Y0195763D01*
X0035087Y0195702D01*
X0035141Y0195638D01*
X0035193Y0195572D01*
X0035241Y0195504D01*
X0035286Y0195433D01*
X0035327Y0195360D01*
X0035366Y0195286D01*
X0035400Y0195210D01*
X0035431Y0195132D01*
X0035458Y0195053D01*
X0035482Y0194972D01*
X0035501Y0194891D01*
X0035517Y0194809D01*
X0035529Y0194726D01*
X0035537Y0194642D01*
X0035541Y0194559D01*
X0035541Y0194475D01*
X0035537Y0194392D01*
X0035529Y0194308D01*
X0035517Y0194225D01*
X0035501Y0194143D01*
X0035482Y0194062D01*
X0035458Y0193981D01*
X0035431Y0193902D01*
X0035400Y0193824D01*
X0035366Y0193748D01*
X0035327Y0193674D01*
X0035286Y0193601D01*
X0035241Y0193530D01*
X0035193Y0193462D01*
X0035141Y0193396D01*
X0035087Y0193332D01*
X0035029Y0193271D01*
X0034969Y0193213D01*
X0034906Y0193158D01*
X0034841Y0193106D01*
X0034773Y0193057D01*
X0034703Y0193011D01*
X0034631Y0192969D01*
X0034557Y0192930D01*
X0034481Y0192894D01*
X0034403Y0192862D01*
X0034325Y0192834D01*
X0034244Y0192810D01*
X0034163Y0192789D01*
X0034081Y0192773D01*
X0033999Y0192760D01*
X0033915Y0192751D01*
X0033832Y0192746D01*
X0033748Y0192745D01*
X0033664Y0192748D01*
X0033581Y0192755D01*
X0033498Y0192766D01*
X0033416Y0192781D01*
X0033334Y0192799D01*
X0033253Y0192822D01*
X0033174Y0192848D01*
X0033096Y0192878D01*
X0033019Y0192912D01*
X0032944Y0192949D01*
X0032871Y0192989D01*
X0032800Y0193034D01*
X0032731Y0193081D01*
X0032664Y0193132D01*
X0032600Y0193185D01*
X0032538Y0193242D01*
X0032480Y0193302D01*
X0032424Y0193364D01*
X0032371Y0193429D01*
X0032321Y0193496D01*
X0032274Y0193565D01*
X0032231Y0193637D01*
X0032191Y0193711D01*
X0032155Y0193786D01*
X0032122Y0193863D01*
X0032093Y0193942D01*
X0032068Y0194021D01*
X0032046Y0194102D01*
X0032029Y0194184D01*
X0032015Y0194267D01*
X0032005Y0194350D01*
X0031999Y0194433D01*
X0031997Y0194517D01*
D11*
X0032875Y0150975D02*
X0034977Y0150975D01*
X0036027Y0149924D01*
X0031824Y0145721D01*
X0032875Y0144670D01*
X0034977Y0144670D01*
X0036027Y0145721D01*
X0036027Y0149924D01*
X0032875Y0150975D02*
X0031824Y0149924D01*
X0031824Y0145721D01*
X0029582Y0144670D02*
X0029582Y0148873D01*
X0027480Y0150975D01*
X0025378Y0148873D01*
X0025378Y0144670D01*
X0025378Y0147822D02*
X0029582Y0147822D01*
X0027480Y0140739D02*
X0029582Y0138637D01*
X0029582Y0134433D01*
X0031824Y0134433D02*
X0036027Y0134433D01*
X0033926Y0134433D02*
X0033926Y0140739D01*
X0031824Y0138637D01*
X0029582Y0137586D02*
X0025378Y0137586D01*
X0025378Y0138637D02*
X0027480Y0140739D01*
X0025378Y0138637D02*
X0025378Y0134433D01*
X0025378Y0130503D02*
X0028531Y0130503D01*
X0029582Y0129452D01*
X0029582Y0128401D01*
X0028531Y0127350D01*
X0025378Y0127350D01*
X0025378Y0124197D02*
X0025378Y0130503D01*
X0028531Y0127350D02*
X0029582Y0126299D01*
X0029582Y0125248D01*
X0028531Y0124197D01*
X0025378Y0124197D01*
X0025378Y0120266D02*
X0028531Y0120266D01*
X0029582Y0119216D01*
X0029582Y0118165D01*
X0028531Y0117114D01*
X0025378Y0117114D01*
X0025378Y0120266D02*
X0025378Y0113961D01*
X0028531Y0113961D01*
X0029582Y0115012D01*
X0029582Y0116063D01*
X0028531Y0117114D01*
X0031824Y0119216D02*
X0032875Y0120266D01*
X0034977Y0120266D01*
X0036027Y0119216D01*
X0036027Y0118165D01*
X0034977Y0117114D01*
X0036027Y0116063D01*
X0036027Y0115012D01*
X0034977Y0113961D01*
X0032875Y0113961D01*
X0031824Y0115012D01*
X0033926Y0117114D02*
X0034977Y0117114D01*
X0036027Y0124197D02*
X0031824Y0124197D01*
X0036027Y0128401D01*
X0036027Y0129452D01*
X0034977Y0130503D01*
X0032875Y0130503D01*
X0031824Y0129452D01*
X0028925Y0110030D02*
X0025772Y0110030D01*
X0025772Y0103725D01*
X0028925Y0103725D01*
X0029976Y0104776D01*
X0029976Y0105827D01*
X0028925Y0106877D01*
X0025772Y0106877D01*
X0028925Y0106877D02*
X0029976Y0107928D01*
X0029976Y0108979D01*
X0028925Y0110030D01*
X0032218Y0106877D02*
X0036421Y0106877D01*
X0035370Y0103725D02*
X0035370Y0110030D01*
X0032218Y0106877D01*
X0035370Y0100188D02*
X0032218Y0097035D01*
X0036421Y0097035D01*
X0035370Y0093882D02*
X0035370Y0100188D01*
X0029976Y0098086D02*
X0029976Y0093882D01*
X0029976Y0097035D02*
X0025772Y0097035D01*
X0025772Y0098086D02*
X0027874Y0100188D01*
X0029976Y0098086D01*
X0025772Y0098086D02*
X0025772Y0093882D01*
X0026823Y0090345D02*
X0028925Y0090345D01*
X0029976Y0089294D01*
X0029976Y0088243D01*
X0028925Y0087192D01*
X0029976Y0086142D01*
X0029976Y0085091D01*
X0028925Y0084040D01*
X0026823Y0084040D01*
X0025772Y0085091D01*
X0027874Y0087192D02*
X0028925Y0087192D01*
X0025772Y0089294D02*
X0026823Y0090345D01*
X0032218Y0085091D02*
X0033268Y0085091D01*
X0033268Y0084040D01*
X0032218Y0084040D01*
X0032218Y0085091D01*
X0035440Y0085091D02*
X0036491Y0084040D01*
X0038593Y0084040D01*
X0039644Y0085091D01*
X0039644Y0086142D01*
X0038593Y0087192D01*
X0037542Y0087192D01*
X0038593Y0087192D02*
X0039644Y0088243D01*
X0039644Y0089294D01*
X0038593Y0090345D01*
X0036491Y0090345D01*
X0035440Y0089294D01*
X0041886Y0090345D02*
X0041886Y0086142D01*
X0043988Y0084040D01*
X0046089Y0086142D01*
X0046089Y0090345D01*
X0041816Y0080109D02*
X0038663Y0080109D01*
X0038663Y0073804D01*
X0041816Y0073804D01*
X0042867Y0074854D01*
X0042867Y0079058D01*
X0041816Y0080109D01*
X0036421Y0080109D02*
X0036421Y0073804D01*
X0032218Y0080109D01*
X0032218Y0073804D01*
X0029976Y0074854D02*
X0029976Y0076956D01*
X0027874Y0076956D01*
X0029976Y0074854D02*
X0028925Y0073804D01*
X0026823Y0073804D01*
X0025772Y0074854D01*
X0025772Y0079058D01*
X0026823Y0080109D01*
X0028925Y0080109D01*
X0029976Y0079058D01*
X0182859Y0079452D02*
X0182859Y0075248D01*
X0183910Y0074197D01*
X0186011Y0074197D01*
X0187062Y0075248D01*
X0187062Y0077350D01*
X0184960Y0077350D01*
X0182859Y0079452D02*
X0183910Y0080503D01*
X0186011Y0080503D01*
X0187062Y0079452D01*
X0189304Y0080503D02*
X0193508Y0074197D01*
X0193508Y0080503D01*
X0195750Y0080503D02*
X0198902Y0080503D01*
X0199953Y0079452D01*
X0199953Y0075248D01*
X0198902Y0074197D01*
X0195750Y0074197D01*
X0195750Y0080503D01*
X0191406Y0084827D02*
X0193508Y0086929D01*
X0193508Y0091133D01*
X0189304Y0091133D02*
X0189304Y0086929D01*
X0191406Y0084827D01*
X0187062Y0085878D02*
X0187062Y0087980D01*
X0186011Y0089031D01*
X0184960Y0089031D01*
X0182859Y0087980D01*
X0182859Y0091133D01*
X0187062Y0091133D01*
X0186011Y0094670D02*
X0182859Y0094670D01*
X0182859Y0100975D01*
X0186011Y0100975D01*
X0187062Y0099924D01*
X0187062Y0098873D01*
X0186011Y0097822D01*
X0182859Y0097822D01*
X0186011Y0097822D02*
X0187062Y0096771D01*
X0187062Y0095721D01*
X0186011Y0094670D01*
X0189304Y0094670D02*
X0189304Y0095721D01*
X0193508Y0099924D01*
X0193508Y0100975D01*
X0189304Y0100975D01*
X0190355Y0104906D02*
X0189304Y0105957D01*
X0189304Y0107008D01*
X0190355Y0108059D01*
X0192457Y0108059D01*
X0193508Y0107008D01*
X0193508Y0105957D01*
X0192457Y0104906D01*
X0190355Y0104906D01*
X0190355Y0108059D02*
X0189304Y0109109D01*
X0189304Y0110160D01*
X0190355Y0111211D01*
X0192457Y0111211D01*
X0193508Y0110160D01*
X0193508Y0109109D01*
X0192457Y0108059D01*
X0187062Y0109109D02*
X0186011Y0108059D01*
X0182859Y0108059D01*
X0182859Y0111211D02*
X0182859Y0104906D01*
X0186011Y0104906D01*
X0187062Y0105957D01*
X0187062Y0107008D01*
X0186011Y0108059D01*
X0187062Y0109109D02*
X0187062Y0110160D01*
X0186011Y0111211D01*
X0182859Y0111211D01*
X0182859Y0114748D02*
X0186011Y0114748D01*
X0187062Y0115799D01*
X0187062Y0116850D01*
X0186011Y0117901D01*
X0182859Y0117901D01*
X0186011Y0117901D02*
X0187062Y0118952D01*
X0187062Y0120003D01*
X0186011Y0121054D01*
X0182859Y0121054D01*
X0182859Y0114748D01*
X0189304Y0115799D02*
X0190355Y0114748D01*
X0192457Y0114748D01*
X0193508Y0115799D01*
X0193508Y0120003D01*
X0192457Y0121054D01*
X0190355Y0121054D01*
X0189304Y0120003D01*
X0189304Y0118952D01*
X0190355Y0117901D01*
X0193508Y0117901D01*
X0193508Y0124591D02*
X0189304Y0124591D01*
X0191406Y0124591D02*
X0191406Y0130896D01*
X0189304Y0128795D01*
X0187062Y0128795D02*
X0186011Y0127744D01*
X0182859Y0127744D01*
X0182859Y0130896D02*
X0182859Y0124591D01*
X0186011Y0124591D01*
X0187062Y0125642D01*
X0187062Y0126693D01*
X0186011Y0127744D01*
X0187062Y0128795D02*
X0187062Y0129845D01*
X0186011Y0130896D01*
X0182859Y0130896D01*
X0182859Y0135221D02*
X0186011Y0135221D01*
X0187062Y0136272D01*
X0187062Y0137323D01*
X0186011Y0138374D01*
X0182859Y0138374D01*
X0182859Y0141526D02*
X0182859Y0135221D01*
X0186011Y0138374D02*
X0187062Y0139424D01*
X0187062Y0140475D01*
X0186011Y0141526D01*
X0182859Y0141526D01*
X0182859Y0145457D02*
X0186011Y0145457D01*
X0187062Y0146508D01*
X0187062Y0147559D01*
X0186011Y0148610D01*
X0182859Y0148610D01*
X0186011Y0148610D02*
X0187062Y0149661D01*
X0187062Y0150712D01*
X0186011Y0151762D01*
X0182859Y0151762D01*
X0182859Y0145457D01*
X0189304Y0145457D02*
X0193508Y0145457D01*
X0191406Y0145457D02*
X0191406Y0151762D01*
X0189304Y0149661D01*
X0195750Y0148610D02*
X0197851Y0149661D01*
X0198902Y0149661D01*
X0199953Y0148610D01*
X0199953Y0146508D01*
X0198902Y0145457D01*
X0196801Y0145457D01*
X0195750Y0146508D01*
X0195750Y0148610D02*
X0195750Y0151762D01*
X0199953Y0151762D01*
X0198902Y0141526D02*
X0195750Y0138374D01*
X0199953Y0138374D01*
X0198902Y0141526D02*
X0198902Y0135221D01*
X0198902Y0130896D02*
X0196801Y0130896D01*
X0195750Y0129845D01*
X0197851Y0127744D02*
X0198902Y0127744D01*
X0199953Y0126693D01*
X0199953Y0125642D01*
X0198902Y0124591D01*
X0196801Y0124591D01*
X0195750Y0125642D01*
X0198902Y0127744D02*
X0199953Y0128795D01*
X0199953Y0129845D01*
X0198902Y0130896D01*
X0193508Y0135221D02*
X0189304Y0135221D01*
X0191406Y0135221D02*
X0191406Y0141526D01*
X0189304Y0139424D01*
X0187062Y0085878D02*
X0186011Y0084827D01*
X0183910Y0084827D01*
X0182859Y0085878D01*
X0189304Y0080503D02*
X0189304Y0074197D01*
D12*
X0176702Y0075379D02*
X0176702Y0068379D01*
X0176700Y0068319D01*
X0176695Y0068258D01*
X0176686Y0068199D01*
X0176673Y0068140D01*
X0176657Y0068081D01*
X0176637Y0068024D01*
X0176614Y0067969D01*
X0176587Y0067914D01*
X0176558Y0067862D01*
X0176525Y0067811D01*
X0176489Y0067762D01*
X0176451Y0067716D01*
X0176409Y0067672D01*
X0176365Y0067630D01*
X0176319Y0067592D01*
X0176270Y0067556D01*
X0176219Y0067523D01*
X0176167Y0067494D01*
X0176112Y0067467D01*
X0176057Y0067444D01*
X0176000Y0067424D01*
X0175941Y0067408D01*
X0175882Y0067395D01*
X0175823Y0067386D01*
X0175762Y0067381D01*
X0175702Y0067379D01*
X0174202Y0067379D01*
X0173702Y0067879D01*
X0154702Y0067879D01*
X0154202Y0067379D01*
X0152702Y0067379D01*
X0152642Y0067381D01*
X0152581Y0067386D01*
X0152522Y0067395D01*
X0152463Y0067408D01*
X0152404Y0067424D01*
X0152347Y0067444D01*
X0152292Y0067467D01*
X0152237Y0067494D01*
X0152185Y0067523D01*
X0152134Y0067556D01*
X0152085Y0067592D01*
X0152039Y0067630D01*
X0151995Y0067672D01*
X0151953Y0067716D01*
X0151915Y0067762D01*
X0151879Y0067811D01*
X0151846Y0067862D01*
X0151817Y0067914D01*
X0151790Y0067969D01*
X0151767Y0068024D01*
X0151747Y0068081D01*
X0151731Y0068140D01*
X0151718Y0068199D01*
X0151709Y0068258D01*
X0151704Y0068319D01*
X0151702Y0068379D01*
X0151702Y0075379D01*
X0151704Y0075439D01*
X0151709Y0075500D01*
X0151718Y0075559D01*
X0151731Y0075618D01*
X0151747Y0075677D01*
X0151767Y0075734D01*
X0151790Y0075789D01*
X0151817Y0075844D01*
X0151846Y0075896D01*
X0151879Y0075947D01*
X0151915Y0075996D01*
X0151953Y0076042D01*
X0151995Y0076086D01*
X0152039Y0076128D01*
X0152085Y0076166D01*
X0152134Y0076202D01*
X0152185Y0076235D01*
X0152237Y0076264D01*
X0152292Y0076291D01*
X0152347Y0076314D01*
X0152404Y0076334D01*
X0152463Y0076350D01*
X0152522Y0076363D01*
X0152581Y0076372D01*
X0152642Y0076377D01*
X0152702Y0076379D01*
X0154202Y0076379D01*
X0154702Y0075879D01*
X0173702Y0075879D01*
X0174202Y0076379D01*
X0175702Y0076379D01*
X0175762Y0076377D01*
X0175823Y0076372D01*
X0175882Y0076363D01*
X0175941Y0076350D01*
X0176000Y0076334D01*
X0176057Y0076314D01*
X0176112Y0076291D01*
X0176167Y0076264D01*
X0176219Y0076235D01*
X0176270Y0076202D01*
X0176319Y0076166D01*
X0176365Y0076128D01*
X0176409Y0076086D01*
X0176451Y0076042D01*
X0176489Y0075996D01*
X0176525Y0075947D01*
X0176558Y0075896D01*
X0176587Y0075844D01*
X0176614Y0075789D01*
X0176637Y0075734D01*
X0176657Y0075677D01*
X0176673Y0075618D01*
X0176686Y0075559D01*
X0176695Y0075500D01*
X0176700Y0075439D01*
X0176702Y0075379D01*
X0175702Y0064568D02*
X0174202Y0064568D01*
X0173702Y0064068D01*
X0154702Y0064068D01*
X0154202Y0064568D01*
X0152702Y0064568D01*
X0152642Y0064566D01*
X0152581Y0064561D01*
X0152522Y0064552D01*
X0152463Y0064539D01*
X0152404Y0064523D01*
X0152347Y0064503D01*
X0152292Y0064480D01*
X0152237Y0064453D01*
X0152185Y0064424D01*
X0152134Y0064391D01*
X0152085Y0064355D01*
X0152039Y0064317D01*
X0151995Y0064275D01*
X0151953Y0064231D01*
X0151915Y0064185D01*
X0151879Y0064136D01*
X0151846Y0064085D01*
X0151817Y0064033D01*
X0151790Y0063978D01*
X0151767Y0063923D01*
X0151747Y0063866D01*
X0151731Y0063807D01*
X0151718Y0063748D01*
X0151709Y0063689D01*
X0151704Y0063628D01*
X0151702Y0063568D01*
X0151702Y0056568D01*
X0151704Y0056508D01*
X0151709Y0056447D01*
X0151718Y0056388D01*
X0151731Y0056329D01*
X0151747Y0056270D01*
X0151767Y0056213D01*
X0151790Y0056158D01*
X0151817Y0056103D01*
X0151846Y0056051D01*
X0151879Y0056000D01*
X0151915Y0055951D01*
X0151953Y0055905D01*
X0151995Y0055861D01*
X0152039Y0055819D01*
X0152085Y0055781D01*
X0152134Y0055745D01*
X0152185Y0055712D01*
X0152237Y0055683D01*
X0152292Y0055656D01*
X0152347Y0055633D01*
X0152404Y0055613D01*
X0152463Y0055597D01*
X0152522Y0055584D01*
X0152581Y0055575D01*
X0152642Y0055570D01*
X0152702Y0055568D01*
X0154202Y0055568D01*
X0154702Y0056068D01*
X0173702Y0056068D01*
X0174202Y0055568D01*
X0175702Y0055568D01*
X0175762Y0055570D01*
X0175823Y0055575D01*
X0175882Y0055584D01*
X0175941Y0055597D01*
X0176000Y0055613D01*
X0176057Y0055633D01*
X0176112Y0055656D01*
X0176167Y0055683D01*
X0176219Y0055712D01*
X0176270Y0055745D01*
X0176319Y0055781D01*
X0176365Y0055819D01*
X0176409Y0055861D01*
X0176451Y0055905D01*
X0176489Y0055951D01*
X0176525Y0056000D01*
X0176558Y0056051D01*
X0176587Y0056103D01*
X0176614Y0056158D01*
X0176637Y0056213D01*
X0176657Y0056270D01*
X0176673Y0056329D01*
X0176686Y0056388D01*
X0176695Y0056447D01*
X0176700Y0056508D01*
X0176702Y0056568D01*
X0176702Y0063568D01*
X0176700Y0063628D01*
X0176695Y0063689D01*
X0176686Y0063748D01*
X0176673Y0063807D01*
X0176657Y0063866D01*
X0176637Y0063923D01*
X0176614Y0063978D01*
X0176587Y0064033D01*
X0176558Y0064085D01*
X0176525Y0064136D01*
X0176489Y0064185D01*
X0176451Y0064231D01*
X0176409Y0064275D01*
X0176365Y0064317D01*
X0176319Y0064355D01*
X0176270Y0064391D01*
X0176219Y0064424D01*
X0176167Y0064453D01*
X0176112Y0064480D01*
X0176057Y0064503D01*
X0176000Y0064523D01*
X0175941Y0064539D01*
X0175882Y0064552D01*
X0175823Y0064561D01*
X0175762Y0064566D01*
X0175702Y0064568D01*
X0120977Y0029241D02*
X0097977Y0029241D01*
X0097977Y0169241D01*
X0105477Y0169241D01*
X0105479Y0169115D01*
X0105485Y0168990D01*
X0105495Y0168865D01*
X0105509Y0168740D01*
X0105526Y0168615D01*
X0105548Y0168491D01*
X0105573Y0168368D01*
X0105603Y0168246D01*
X0105636Y0168125D01*
X0105673Y0168005D01*
X0105713Y0167886D01*
X0105758Y0167769D01*
X0105806Y0167652D01*
X0105858Y0167538D01*
X0105913Y0167425D01*
X0105972Y0167314D01*
X0106034Y0167205D01*
X0106100Y0167098D01*
X0106169Y0166993D01*
X0106241Y0166890D01*
X0106316Y0166789D01*
X0106395Y0166691D01*
X0106477Y0166596D01*
X0106561Y0166503D01*
X0106649Y0166413D01*
X0106739Y0166325D01*
X0106832Y0166241D01*
X0106927Y0166159D01*
X0107025Y0166080D01*
X0107126Y0166005D01*
X0107229Y0165933D01*
X0107334Y0165864D01*
X0107441Y0165798D01*
X0107550Y0165736D01*
X0107661Y0165677D01*
X0107774Y0165622D01*
X0107888Y0165570D01*
X0108005Y0165522D01*
X0108122Y0165477D01*
X0108241Y0165437D01*
X0108361Y0165400D01*
X0108482Y0165367D01*
X0108604Y0165337D01*
X0108727Y0165312D01*
X0108851Y0165290D01*
X0108976Y0165273D01*
X0109101Y0165259D01*
X0109226Y0165249D01*
X0109351Y0165243D01*
X0109477Y0165241D01*
X0109603Y0165243D01*
X0109728Y0165249D01*
X0109853Y0165259D01*
X0109978Y0165273D01*
X0110103Y0165290D01*
X0110227Y0165312D01*
X0110350Y0165337D01*
X0110472Y0165367D01*
X0110593Y0165400D01*
X0110713Y0165437D01*
X0110832Y0165477D01*
X0110949Y0165522D01*
X0111066Y0165570D01*
X0111180Y0165622D01*
X0111293Y0165677D01*
X0111404Y0165736D01*
X0111513Y0165798D01*
X0111620Y0165864D01*
X0111725Y0165933D01*
X0111828Y0166005D01*
X0111929Y0166080D01*
X0112027Y0166159D01*
X0112122Y0166241D01*
X0112215Y0166325D01*
X0112305Y0166413D01*
X0112393Y0166503D01*
X0112477Y0166596D01*
X0112559Y0166691D01*
X0112638Y0166789D01*
X0112713Y0166890D01*
X0112785Y0166993D01*
X0112854Y0167098D01*
X0112920Y0167205D01*
X0112982Y0167314D01*
X0113041Y0167425D01*
X0113096Y0167538D01*
X0113148Y0167652D01*
X0113196Y0167769D01*
X0113241Y0167886D01*
X0113281Y0168005D01*
X0113318Y0168125D01*
X0113351Y0168246D01*
X0113381Y0168368D01*
X0113406Y0168491D01*
X0113428Y0168615D01*
X0113445Y0168740D01*
X0113459Y0168865D01*
X0113469Y0168990D01*
X0113475Y0169115D01*
X0113477Y0169241D01*
X0120977Y0169241D01*
X0120977Y0029241D01*
X0081576Y0032780D02*
X0081576Y0045780D01*
X0081574Y0045867D01*
X0081568Y0045954D01*
X0081559Y0046041D01*
X0081546Y0046127D01*
X0081529Y0046213D01*
X0081508Y0046298D01*
X0081483Y0046381D01*
X0081455Y0046464D01*
X0081424Y0046545D01*
X0081389Y0046625D01*
X0081350Y0046703D01*
X0081308Y0046780D01*
X0081263Y0046855D01*
X0081214Y0046927D01*
X0081163Y0046998D01*
X0081108Y0047066D01*
X0081051Y0047131D01*
X0080990Y0047194D01*
X0080927Y0047255D01*
X0080862Y0047312D01*
X0080794Y0047367D01*
X0080723Y0047418D01*
X0080651Y0047467D01*
X0080576Y0047512D01*
X0080499Y0047554D01*
X0080421Y0047593D01*
X0080341Y0047628D01*
X0080260Y0047659D01*
X0080177Y0047687D01*
X0080094Y0047712D01*
X0080009Y0047733D01*
X0079923Y0047750D01*
X0079837Y0047763D01*
X0079750Y0047772D01*
X0079663Y0047778D01*
X0079576Y0047780D01*
X0074576Y0047780D01*
X0074489Y0047778D01*
X0074402Y0047772D01*
X0074315Y0047763D01*
X0074229Y0047750D01*
X0074143Y0047733D01*
X0074058Y0047712D01*
X0073975Y0047687D01*
X0073892Y0047659D01*
X0073811Y0047628D01*
X0073731Y0047593D01*
X0073653Y0047554D01*
X0073576Y0047512D01*
X0073501Y0047467D01*
X0073429Y0047418D01*
X0073358Y0047367D01*
X0073290Y0047312D01*
X0073225Y0047255D01*
X0073162Y0047194D01*
X0073101Y0047131D01*
X0073044Y0047066D01*
X0072989Y0046998D01*
X0072938Y0046927D01*
X0072889Y0046855D01*
X0072844Y0046780D01*
X0072802Y0046703D01*
X0072763Y0046625D01*
X0072728Y0046545D01*
X0072697Y0046464D01*
X0072669Y0046381D01*
X0072644Y0046298D01*
X0072623Y0046213D01*
X0072606Y0046127D01*
X0072593Y0046041D01*
X0072584Y0045954D01*
X0072578Y0045867D01*
X0072576Y0045780D01*
X0072576Y0032780D01*
X0072578Y0032693D01*
X0072584Y0032606D01*
X0072593Y0032519D01*
X0072606Y0032433D01*
X0072623Y0032347D01*
X0072644Y0032262D01*
X0072669Y0032179D01*
X0072697Y0032096D01*
X0072728Y0032015D01*
X0072763Y0031935D01*
X0072802Y0031857D01*
X0072844Y0031780D01*
X0072889Y0031705D01*
X0072938Y0031633D01*
X0072989Y0031562D01*
X0073044Y0031494D01*
X0073101Y0031429D01*
X0073162Y0031366D01*
X0073225Y0031305D01*
X0073290Y0031248D01*
X0073358Y0031193D01*
X0073429Y0031142D01*
X0073501Y0031093D01*
X0073576Y0031048D01*
X0073653Y0031006D01*
X0073731Y0030967D01*
X0073811Y0030932D01*
X0073892Y0030901D01*
X0073975Y0030873D01*
X0074058Y0030848D01*
X0074143Y0030827D01*
X0074229Y0030810D01*
X0074315Y0030797D01*
X0074402Y0030788D01*
X0074489Y0030782D01*
X0074576Y0030780D01*
X0079576Y0030780D01*
X0079663Y0030782D01*
X0079750Y0030788D01*
X0079837Y0030797D01*
X0079923Y0030810D01*
X0080009Y0030827D01*
X0080094Y0030848D01*
X0080177Y0030873D01*
X0080260Y0030901D01*
X0080341Y0030932D01*
X0080421Y0030967D01*
X0080499Y0031006D01*
X0080576Y0031048D01*
X0080651Y0031093D01*
X0080723Y0031142D01*
X0080794Y0031193D01*
X0080862Y0031248D01*
X0080927Y0031305D01*
X0080990Y0031366D01*
X0081051Y0031429D01*
X0081108Y0031494D01*
X0081163Y0031562D01*
X0081214Y0031633D01*
X0081263Y0031705D01*
X0081308Y0031780D01*
X0081350Y0031857D01*
X0081389Y0031935D01*
X0081424Y0032015D01*
X0081455Y0032096D01*
X0081483Y0032179D01*
X0081508Y0032262D01*
X0081529Y0032347D01*
X0081546Y0032433D01*
X0081559Y0032519D01*
X0081568Y0032606D01*
X0081574Y0032693D01*
X0081576Y0032780D01*
X0047835Y0031209D02*
X0047835Y0029709D01*
X0047833Y0029649D01*
X0047828Y0029588D01*
X0047819Y0029529D01*
X0047806Y0029470D01*
X0047790Y0029411D01*
X0047770Y0029354D01*
X0047747Y0029299D01*
X0047720Y0029244D01*
X0047691Y0029192D01*
X0047658Y0029141D01*
X0047622Y0029092D01*
X0047584Y0029046D01*
X0047542Y0029002D01*
X0047498Y0028960D01*
X0047452Y0028922D01*
X0047403Y0028886D01*
X0047352Y0028853D01*
X0047300Y0028824D01*
X0047245Y0028797D01*
X0047190Y0028774D01*
X0047133Y0028754D01*
X0047074Y0028738D01*
X0047015Y0028725D01*
X0046956Y0028716D01*
X0046895Y0028711D01*
X0046835Y0028709D01*
X0039835Y0028709D01*
X0039775Y0028711D01*
X0039714Y0028716D01*
X0039655Y0028725D01*
X0039596Y0028738D01*
X0039537Y0028754D01*
X0039480Y0028774D01*
X0039425Y0028797D01*
X0039370Y0028824D01*
X0039318Y0028853D01*
X0039267Y0028886D01*
X0039218Y0028922D01*
X0039172Y0028960D01*
X0039128Y0029002D01*
X0039086Y0029046D01*
X0039048Y0029092D01*
X0039012Y0029141D01*
X0038979Y0029192D01*
X0038950Y0029244D01*
X0038923Y0029299D01*
X0038900Y0029354D01*
X0038880Y0029411D01*
X0038864Y0029470D01*
X0038851Y0029529D01*
X0038842Y0029588D01*
X0038837Y0029649D01*
X0038835Y0029709D01*
X0038835Y0031209D01*
X0039335Y0031709D01*
X0039335Y0050709D01*
X0038835Y0051209D01*
X0038835Y0052709D01*
X0038837Y0052769D01*
X0038842Y0052830D01*
X0038851Y0052889D01*
X0038864Y0052948D01*
X0038880Y0053007D01*
X0038900Y0053064D01*
X0038923Y0053119D01*
X0038950Y0053174D01*
X0038979Y0053226D01*
X0039012Y0053277D01*
X0039048Y0053326D01*
X0039086Y0053372D01*
X0039128Y0053416D01*
X0039172Y0053458D01*
X0039218Y0053496D01*
X0039267Y0053532D01*
X0039318Y0053565D01*
X0039370Y0053594D01*
X0039425Y0053621D01*
X0039480Y0053644D01*
X0039537Y0053664D01*
X0039596Y0053680D01*
X0039655Y0053693D01*
X0039714Y0053702D01*
X0039775Y0053707D01*
X0039835Y0053709D01*
X0046835Y0053709D01*
X0046895Y0053707D01*
X0046956Y0053702D01*
X0047015Y0053693D01*
X0047074Y0053680D01*
X0047133Y0053664D01*
X0047190Y0053644D01*
X0047245Y0053621D01*
X0047300Y0053594D01*
X0047352Y0053565D01*
X0047403Y0053532D01*
X0047452Y0053496D01*
X0047498Y0053458D01*
X0047542Y0053416D01*
X0047584Y0053372D01*
X0047622Y0053326D01*
X0047658Y0053277D01*
X0047691Y0053226D01*
X0047720Y0053174D01*
X0047747Y0053119D01*
X0047770Y0053064D01*
X0047790Y0053007D01*
X0047806Y0052948D01*
X0047819Y0052889D01*
X0047828Y0052830D01*
X0047833Y0052769D01*
X0047835Y0052709D01*
X0047835Y0051209D01*
X0047335Y0050709D01*
X0047335Y0031709D01*
X0047835Y0031209D01*
X0024162Y0047572D02*
X0024010Y0047574D01*
X0023859Y0047580D01*
X0023708Y0047589D01*
X0023556Y0047603D01*
X0023406Y0047620D01*
X0023256Y0047641D01*
X0023106Y0047666D01*
X0022957Y0047694D01*
X0022809Y0047727D01*
X0022662Y0047763D01*
X0022515Y0047802D01*
X0022370Y0047846D01*
X0022226Y0047893D01*
X0022083Y0047944D01*
X0021942Y0047998D01*
X0021801Y0048056D01*
X0021663Y0048117D01*
X0021526Y0048182D01*
X0021390Y0048251D01*
X0021257Y0048322D01*
X0021125Y0048397D01*
X0020995Y0048476D01*
X0020868Y0048557D01*
X0020742Y0048642D01*
X0020618Y0048730D01*
X0020497Y0048821D01*
X0020378Y0048915D01*
X0020262Y0049013D01*
X0020148Y0049113D01*
X0020036Y0049215D01*
X0019928Y0049321D01*
X0019822Y0049429D01*
X0019718Y0049540D01*
X0019618Y0049654D01*
X0019520Y0049770D01*
X0019426Y0049889D01*
X0024162Y0059572D02*
X0024316Y0059570D01*
X0024470Y0059564D01*
X0024624Y0059554D01*
X0024778Y0059540D01*
X0024931Y0059523D01*
X0025083Y0059501D01*
X0025235Y0059475D01*
X0025387Y0059446D01*
X0025537Y0059412D01*
X0025687Y0059375D01*
X0025835Y0059334D01*
X0025983Y0059289D01*
X0026129Y0059240D01*
X0026274Y0059188D01*
X0026417Y0059132D01*
X0026560Y0059072D01*
X0026700Y0059009D01*
X0026839Y0058942D01*
X0026976Y0058871D01*
X0027111Y0058797D01*
X0027244Y0058720D01*
X0027376Y0058639D01*
X0027505Y0058555D01*
X0027632Y0058467D01*
X0027756Y0058376D01*
X0027878Y0058283D01*
X0027998Y0058185D01*
X0028115Y0058085D01*
X0028230Y0057982D01*
X0028342Y0057876D01*
X0028451Y0057768D01*
X0028557Y0057656D01*
X0028661Y0057542D01*
X0028761Y0057425D01*
X0028859Y0057306D01*
X0028953Y0057184D01*
X0029044Y0057059D01*
X0024162Y0059572D02*
X0024012Y0059570D01*
X0023861Y0059564D01*
X0023711Y0059555D01*
X0023562Y0059542D01*
X0023412Y0059525D01*
X0023263Y0059504D01*
X0023115Y0059480D01*
X0022967Y0059452D01*
X0022820Y0059420D01*
X0022674Y0059385D01*
X0022529Y0059345D01*
X0022385Y0059303D01*
X0022242Y0059256D01*
X0022100Y0059206D01*
X0021959Y0059153D01*
X0021820Y0059096D01*
X0021682Y0059036D01*
X0021546Y0058972D01*
X0021412Y0058905D01*
X0021279Y0058834D01*
X0021148Y0058760D01*
X0021019Y0058683D01*
X0020892Y0058602D01*
X0020767Y0058519D01*
X0020644Y0058432D01*
X0020523Y0058343D01*
X0020405Y0058250D01*
X0020289Y0058154D01*
X0020175Y0058056D01*
X0020064Y0057955D01*
X0019955Y0057850D01*
X0019850Y0057744D01*
X0019746Y0057634D01*
X0019646Y0057522D01*
X0019548Y0057408D01*
X0019454Y0057291D01*
X0019362Y0057172D01*
X0024162Y0047572D02*
X0024314Y0047574D01*
X0024465Y0047580D01*
X0024616Y0047589D01*
X0024768Y0047603D01*
X0024918Y0047620D01*
X0025068Y0047641D01*
X0025218Y0047666D01*
X0025367Y0047694D01*
X0025515Y0047727D01*
X0025662Y0047763D01*
X0025809Y0047802D01*
X0025954Y0047846D01*
X0026098Y0047893D01*
X0026241Y0047944D01*
X0026382Y0047998D01*
X0026523Y0048056D01*
X0026661Y0048117D01*
X0026798Y0048182D01*
X0026934Y0048251D01*
X0027067Y0048322D01*
X0027199Y0048397D01*
X0027329Y0048476D01*
X0027456Y0048557D01*
X0027582Y0048642D01*
X0027706Y0048730D01*
X0027827Y0048821D01*
X0027946Y0048915D01*
X0028062Y0049013D01*
X0028176Y0049113D01*
X0028288Y0049215D01*
X0028396Y0049321D01*
X0028502Y0049429D01*
X0028606Y0049540D01*
X0028706Y0049654D01*
X0028804Y0049770D01*
X0028898Y0049889D01*
X0139505Y0139394D02*
X0139505Y0152394D01*
X0139507Y0152481D01*
X0139513Y0152568D01*
X0139522Y0152655D01*
X0139535Y0152741D01*
X0139552Y0152827D01*
X0139573Y0152912D01*
X0139598Y0152995D01*
X0139626Y0153078D01*
X0139657Y0153159D01*
X0139692Y0153239D01*
X0139731Y0153317D01*
X0139773Y0153394D01*
X0139818Y0153469D01*
X0139867Y0153541D01*
X0139918Y0153612D01*
X0139973Y0153680D01*
X0140030Y0153745D01*
X0140091Y0153808D01*
X0140154Y0153869D01*
X0140219Y0153926D01*
X0140287Y0153981D01*
X0140358Y0154032D01*
X0140430Y0154081D01*
X0140505Y0154126D01*
X0140582Y0154168D01*
X0140660Y0154207D01*
X0140740Y0154242D01*
X0140821Y0154273D01*
X0140904Y0154301D01*
X0140987Y0154326D01*
X0141072Y0154347D01*
X0141158Y0154364D01*
X0141244Y0154377D01*
X0141331Y0154386D01*
X0141418Y0154392D01*
X0141505Y0154394D01*
X0146505Y0154394D01*
X0146592Y0154392D01*
X0146679Y0154386D01*
X0146766Y0154377D01*
X0146852Y0154364D01*
X0146938Y0154347D01*
X0147023Y0154326D01*
X0147106Y0154301D01*
X0147189Y0154273D01*
X0147270Y0154242D01*
X0147350Y0154207D01*
X0147428Y0154168D01*
X0147505Y0154126D01*
X0147580Y0154081D01*
X0147652Y0154032D01*
X0147723Y0153981D01*
X0147791Y0153926D01*
X0147856Y0153869D01*
X0147919Y0153808D01*
X0147980Y0153745D01*
X0148037Y0153680D01*
X0148092Y0153612D01*
X0148143Y0153541D01*
X0148192Y0153469D01*
X0148237Y0153394D01*
X0148279Y0153317D01*
X0148318Y0153239D01*
X0148353Y0153159D01*
X0148384Y0153078D01*
X0148412Y0152995D01*
X0148437Y0152912D01*
X0148458Y0152827D01*
X0148475Y0152741D01*
X0148488Y0152655D01*
X0148497Y0152568D01*
X0148503Y0152481D01*
X0148505Y0152394D01*
X0148505Y0139394D01*
X0148503Y0139307D01*
X0148497Y0139220D01*
X0148488Y0139133D01*
X0148475Y0139047D01*
X0148458Y0138961D01*
X0148437Y0138876D01*
X0148412Y0138793D01*
X0148384Y0138710D01*
X0148353Y0138629D01*
X0148318Y0138549D01*
X0148279Y0138471D01*
X0148237Y0138394D01*
X0148192Y0138319D01*
X0148143Y0138247D01*
X0148092Y0138176D01*
X0148037Y0138108D01*
X0147980Y0138043D01*
X0147919Y0137980D01*
X0147856Y0137919D01*
X0147791Y0137862D01*
X0147723Y0137807D01*
X0147652Y0137756D01*
X0147580Y0137707D01*
X0147505Y0137662D01*
X0147428Y0137620D01*
X0147350Y0137581D01*
X0147270Y0137546D01*
X0147189Y0137515D01*
X0147106Y0137487D01*
X0147023Y0137462D01*
X0146938Y0137441D01*
X0146852Y0137424D01*
X0146766Y0137411D01*
X0146679Y0137402D01*
X0146592Y0137396D01*
X0146505Y0137394D01*
X0141505Y0137394D01*
X0141418Y0137396D01*
X0141331Y0137402D01*
X0141244Y0137411D01*
X0141158Y0137424D01*
X0141072Y0137441D01*
X0140987Y0137462D01*
X0140904Y0137487D01*
X0140821Y0137515D01*
X0140740Y0137546D01*
X0140660Y0137581D01*
X0140582Y0137620D01*
X0140505Y0137662D01*
X0140430Y0137707D01*
X0140358Y0137756D01*
X0140287Y0137807D01*
X0140219Y0137862D01*
X0140154Y0137919D01*
X0140091Y0137980D01*
X0140030Y0138043D01*
X0139973Y0138108D01*
X0139918Y0138176D01*
X0139867Y0138247D01*
X0139818Y0138319D01*
X0139773Y0138394D01*
X0139731Y0138471D01*
X0139692Y0138549D01*
X0139657Y0138629D01*
X0139626Y0138710D01*
X0139598Y0138793D01*
X0139573Y0138876D01*
X0139552Y0138961D01*
X0139535Y0139047D01*
X0139522Y0139133D01*
X0139513Y0139220D01*
X0139507Y0139307D01*
X0139505Y0139394D01*
X0164182Y0180859D02*
X0169182Y0180859D01*
X0169269Y0180861D01*
X0169356Y0180867D01*
X0169443Y0180876D01*
X0169529Y0180889D01*
X0169615Y0180906D01*
X0169700Y0180927D01*
X0169783Y0180952D01*
X0169866Y0180980D01*
X0169947Y0181011D01*
X0170027Y0181046D01*
X0170105Y0181085D01*
X0170182Y0181127D01*
X0170257Y0181172D01*
X0170329Y0181221D01*
X0170400Y0181272D01*
X0170468Y0181327D01*
X0170533Y0181384D01*
X0170596Y0181445D01*
X0170657Y0181508D01*
X0170714Y0181573D01*
X0170769Y0181641D01*
X0170820Y0181712D01*
X0170869Y0181784D01*
X0170914Y0181859D01*
X0170956Y0181936D01*
X0170995Y0182014D01*
X0171030Y0182094D01*
X0171061Y0182175D01*
X0171089Y0182258D01*
X0171114Y0182341D01*
X0171135Y0182426D01*
X0171152Y0182512D01*
X0171165Y0182598D01*
X0171174Y0182685D01*
X0171180Y0182772D01*
X0171182Y0182859D01*
X0171182Y0195859D01*
X0171180Y0195946D01*
X0171174Y0196033D01*
X0171165Y0196120D01*
X0171152Y0196206D01*
X0171135Y0196292D01*
X0171114Y0196377D01*
X0171089Y0196460D01*
X0171061Y0196543D01*
X0171030Y0196624D01*
X0170995Y0196704D01*
X0170956Y0196782D01*
X0170914Y0196859D01*
X0170869Y0196934D01*
X0170820Y0197006D01*
X0170769Y0197077D01*
X0170714Y0197145D01*
X0170657Y0197210D01*
X0170596Y0197273D01*
X0170533Y0197334D01*
X0170468Y0197391D01*
X0170400Y0197446D01*
X0170329Y0197497D01*
X0170257Y0197546D01*
X0170182Y0197591D01*
X0170105Y0197633D01*
X0170027Y0197672D01*
X0169947Y0197707D01*
X0169866Y0197738D01*
X0169783Y0197766D01*
X0169700Y0197791D01*
X0169615Y0197812D01*
X0169529Y0197829D01*
X0169443Y0197842D01*
X0169356Y0197851D01*
X0169269Y0197857D01*
X0169182Y0197859D01*
X0164182Y0197859D01*
X0164095Y0197857D01*
X0164008Y0197851D01*
X0163921Y0197842D01*
X0163835Y0197829D01*
X0163749Y0197812D01*
X0163664Y0197791D01*
X0163581Y0197766D01*
X0163498Y0197738D01*
X0163417Y0197707D01*
X0163337Y0197672D01*
X0163259Y0197633D01*
X0163182Y0197591D01*
X0163107Y0197546D01*
X0163035Y0197497D01*
X0162964Y0197446D01*
X0162896Y0197391D01*
X0162831Y0197334D01*
X0162768Y0197273D01*
X0162707Y0197210D01*
X0162650Y0197145D01*
X0162595Y0197077D01*
X0162544Y0197006D01*
X0162495Y0196934D01*
X0162450Y0196859D01*
X0162408Y0196782D01*
X0162369Y0196704D01*
X0162334Y0196624D01*
X0162303Y0196543D01*
X0162275Y0196460D01*
X0162250Y0196377D01*
X0162229Y0196292D01*
X0162212Y0196206D01*
X0162199Y0196120D01*
X0162190Y0196033D01*
X0162184Y0195946D01*
X0162182Y0195859D01*
X0162182Y0182859D01*
X0162184Y0182772D01*
X0162190Y0182685D01*
X0162199Y0182598D01*
X0162212Y0182512D01*
X0162229Y0182426D01*
X0162250Y0182341D01*
X0162275Y0182258D01*
X0162303Y0182175D01*
X0162334Y0182094D01*
X0162369Y0182014D01*
X0162408Y0181936D01*
X0162450Y0181859D01*
X0162495Y0181784D01*
X0162544Y0181712D01*
X0162595Y0181641D01*
X0162650Y0181573D01*
X0162707Y0181508D01*
X0162768Y0181445D01*
X0162831Y0181384D01*
X0162896Y0181327D01*
X0162964Y0181272D01*
X0163035Y0181221D01*
X0163107Y0181172D01*
X0163182Y0181127D01*
X0163259Y0181085D01*
X0163337Y0181046D01*
X0163417Y0181011D01*
X0163498Y0180980D01*
X0163581Y0180952D01*
X0163664Y0180927D01*
X0163749Y0180906D01*
X0163835Y0180889D01*
X0163921Y0180876D01*
X0164008Y0180867D01*
X0164095Y0180861D01*
X0164182Y0180859D01*
X0184005Y0204926D02*
X0184159Y0204924D01*
X0184313Y0204918D01*
X0184467Y0204908D01*
X0184621Y0204894D01*
X0184774Y0204877D01*
X0184926Y0204855D01*
X0185078Y0204829D01*
X0185230Y0204800D01*
X0185380Y0204766D01*
X0185530Y0204729D01*
X0185678Y0204688D01*
X0185826Y0204643D01*
X0185972Y0204594D01*
X0186117Y0204542D01*
X0186260Y0204486D01*
X0186403Y0204426D01*
X0186543Y0204363D01*
X0186682Y0204296D01*
X0186819Y0204225D01*
X0186954Y0204151D01*
X0187087Y0204074D01*
X0187219Y0203993D01*
X0187348Y0203909D01*
X0187475Y0203821D01*
X0187599Y0203730D01*
X0187721Y0203637D01*
X0187841Y0203539D01*
X0187958Y0203439D01*
X0188073Y0203336D01*
X0188185Y0203230D01*
X0188294Y0203122D01*
X0188400Y0203010D01*
X0188504Y0202896D01*
X0188604Y0202779D01*
X0188702Y0202660D01*
X0188796Y0202538D01*
X0188887Y0202413D01*
X0184005Y0192926D02*
X0183853Y0192928D01*
X0183702Y0192934D01*
X0183551Y0192943D01*
X0183399Y0192957D01*
X0183249Y0192974D01*
X0183099Y0192995D01*
X0182949Y0193020D01*
X0182800Y0193048D01*
X0182652Y0193081D01*
X0182505Y0193117D01*
X0182358Y0193156D01*
X0182213Y0193200D01*
X0182069Y0193247D01*
X0181926Y0193298D01*
X0181785Y0193352D01*
X0181644Y0193410D01*
X0181506Y0193471D01*
X0181369Y0193536D01*
X0181233Y0193605D01*
X0181100Y0193676D01*
X0180968Y0193751D01*
X0180838Y0193830D01*
X0180711Y0193911D01*
X0180585Y0193996D01*
X0180461Y0194084D01*
X0180340Y0194175D01*
X0180221Y0194269D01*
X0180105Y0194367D01*
X0179991Y0194467D01*
X0179879Y0194569D01*
X0179771Y0194675D01*
X0179665Y0194783D01*
X0179561Y0194894D01*
X0179461Y0195008D01*
X0179363Y0195124D01*
X0179269Y0195243D01*
X0184005Y0192926D02*
X0184157Y0192928D01*
X0184308Y0192934D01*
X0184459Y0192943D01*
X0184611Y0192957D01*
X0184761Y0192974D01*
X0184911Y0192995D01*
X0185061Y0193020D01*
X0185210Y0193048D01*
X0185358Y0193081D01*
X0185505Y0193117D01*
X0185652Y0193156D01*
X0185797Y0193200D01*
X0185941Y0193247D01*
X0186084Y0193298D01*
X0186225Y0193352D01*
X0186366Y0193410D01*
X0186504Y0193471D01*
X0186641Y0193536D01*
X0186777Y0193605D01*
X0186910Y0193676D01*
X0187042Y0193751D01*
X0187172Y0193830D01*
X0187299Y0193911D01*
X0187425Y0193996D01*
X0187549Y0194084D01*
X0187670Y0194175D01*
X0187789Y0194269D01*
X0187905Y0194367D01*
X0188019Y0194467D01*
X0188131Y0194569D01*
X0188239Y0194675D01*
X0188345Y0194783D01*
X0188449Y0194894D01*
X0188549Y0195008D01*
X0188647Y0195124D01*
X0188741Y0195243D01*
X0184005Y0204926D02*
X0183855Y0204924D01*
X0183704Y0204918D01*
X0183554Y0204909D01*
X0183405Y0204896D01*
X0183255Y0204879D01*
X0183106Y0204858D01*
X0182958Y0204834D01*
X0182810Y0204806D01*
X0182663Y0204774D01*
X0182517Y0204739D01*
X0182372Y0204699D01*
X0182228Y0204657D01*
X0182085Y0204610D01*
X0181943Y0204560D01*
X0181802Y0204507D01*
X0181663Y0204450D01*
X0181525Y0204390D01*
X0181389Y0204326D01*
X0181255Y0204259D01*
X0181122Y0204188D01*
X0180991Y0204114D01*
X0180862Y0204037D01*
X0180735Y0203956D01*
X0180610Y0203873D01*
X0180487Y0203786D01*
X0180366Y0203697D01*
X0180248Y0203604D01*
X0180132Y0203508D01*
X0180018Y0203410D01*
X0179907Y0203309D01*
X0179798Y0203204D01*
X0179693Y0203098D01*
X0179589Y0202988D01*
X0179489Y0202876D01*
X0179391Y0202762D01*
X0179297Y0202645D01*
X0179205Y0202526D01*
X0196316Y0193261D02*
X0196316Y0191761D01*
X0196816Y0191261D01*
X0196816Y0172261D01*
X0196316Y0171761D01*
X0196316Y0170261D01*
X0196318Y0170201D01*
X0196323Y0170140D01*
X0196332Y0170081D01*
X0196345Y0170022D01*
X0196361Y0169963D01*
X0196381Y0169906D01*
X0196404Y0169851D01*
X0196431Y0169796D01*
X0196460Y0169744D01*
X0196493Y0169693D01*
X0196529Y0169644D01*
X0196567Y0169598D01*
X0196609Y0169554D01*
X0196653Y0169512D01*
X0196699Y0169474D01*
X0196748Y0169438D01*
X0196799Y0169405D01*
X0196851Y0169376D01*
X0196906Y0169349D01*
X0196961Y0169326D01*
X0197018Y0169306D01*
X0197077Y0169290D01*
X0197136Y0169277D01*
X0197195Y0169268D01*
X0197256Y0169263D01*
X0197316Y0169261D01*
X0204316Y0169261D01*
X0204376Y0169263D01*
X0204437Y0169268D01*
X0204496Y0169277D01*
X0204555Y0169290D01*
X0204614Y0169306D01*
X0204671Y0169326D01*
X0204726Y0169349D01*
X0204781Y0169376D01*
X0204833Y0169405D01*
X0204884Y0169438D01*
X0204933Y0169474D01*
X0204979Y0169512D01*
X0205023Y0169554D01*
X0205065Y0169598D01*
X0205103Y0169644D01*
X0205139Y0169693D01*
X0205172Y0169744D01*
X0205201Y0169796D01*
X0205228Y0169851D01*
X0205251Y0169906D01*
X0205271Y0169963D01*
X0205287Y0170022D01*
X0205300Y0170081D01*
X0205309Y0170140D01*
X0205314Y0170201D01*
X0205316Y0170261D01*
X0205316Y0171761D01*
X0204816Y0172261D01*
X0204816Y0191261D01*
X0205316Y0191761D01*
X0205316Y0193261D01*
X0205314Y0193321D01*
X0205309Y0193382D01*
X0205300Y0193441D01*
X0205287Y0193500D01*
X0205271Y0193559D01*
X0205251Y0193616D01*
X0205228Y0193671D01*
X0205201Y0193726D01*
X0205172Y0193778D01*
X0205139Y0193829D01*
X0205103Y0193878D01*
X0205065Y0193924D01*
X0205023Y0193968D01*
X0204979Y0194010D01*
X0204933Y0194048D01*
X0204884Y0194084D01*
X0204833Y0194117D01*
X0204781Y0194146D01*
X0204726Y0194173D01*
X0204671Y0194196D01*
X0204614Y0194216D01*
X0204555Y0194232D01*
X0204496Y0194245D01*
X0204437Y0194254D01*
X0204376Y0194259D01*
X0204316Y0194261D01*
X0197316Y0194261D01*
X0197256Y0194259D01*
X0197195Y0194254D01*
X0197136Y0194245D01*
X0197077Y0194232D01*
X0197018Y0194216D01*
X0196961Y0194196D01*
X0196906Y0194173D01*
X0196851Y0194146D01*
X0196799Y0194117D01*
X0196748Y0194084D01*
X0196699Y0194048D01*
X0196653Y0194010D01*
X0196609Y0193968D01*
X0196567Y0193924D01*
X0196529Y0193878D01*
X0196493Y0193829D01*
X0196460Y0193778D01*
X0196431Y0193726D01*
X0196404Y0193671D01*
X0196381Y0193616D01*
X0196361Y0193559D01*
X0196345Y0193500D01*
X0196332Y0193441D01*
X0196323Y0193382D01*
X0196318Y0193321D01*
X0196316Y0193261D01*
X0088505Y0179796D02*
X0088505Y0166796D01*
X0088503Y0166709D01*
X0088497Y0166622D01*
X0088488Y0166535D01*
X0088475Y0166449D01*
X0088458Y0166363D01*
X0088437Y0166278D01*
X0088412Y0166195D01*
X0088384Y0166112D01*
X0088353Y0166031D01*
X0088318Y0165951D01*
X0088279Y0165873D01*
X0088237Y0165796D01*
X0088192Y0165721D01*
X0088143Y0165649D01*
X0088092Y0165578D01*
X0088037Y0165510D01*
X0087980Y0165445D01*
X0087919Y0165382D01*
X0087856Y0165321D01*
X0087791Y0165264D01*
X0087723Y0165209D01*
X0087652Y0165158D01*
X0087580Y0165109D01*
X0087505Y0165064D01*
X0087428Y0165022D01*
X0087350Y0164983D01*
X0087270Y0164948D01*
X0087189Y0164917D01*
X0087106Y0164889D01*
X0087023Y0164864D01*
X0086938Y0164843D01*
X0086852Y0164826D01*
X0086766Y0164813D01*
X0086679Y0164804D01*
X0086592Y0164798D01*
X0086505Y0164796D01*
X0081505Y0164796D01*
X0081418Y0164798D01*
X0081331Y0164804D01*
X0081244Y0164813D01*
X0081158Y0164826D01*
X0081072Y0164843D01*
X0080987Y0164864D01*
X0080904Y0164889D01*
X0080821Y0164917D01*
X0080740Y0164948D01*
X0080660Y0164983D01*
X0080582Y0165022D01*
X0080505Y0165064D01*
X0080430Y0165109D01*
X0080358Y0165158D01*
X0080287Y0165209D01*
X0080219Y0165264D01*
X0080154Y0165321D01*
X0080091Y0165382D01*
X0080030Y0165445D01*
X0079973Y0165510D01*
X0079918Y0165578D01*
X0079867Y0165649D01*
X0079818Y0165721D01*
X0079773Y0165796D01*
X0079731Y0165873D01*
X0079692Y0165951D01*
X0079657Y0166031D01*
X0079626Y0166112D01*
X0079598Y0166195D01*
X0079573Y0166278D01*
X0079552Y0166363D01*
X0079535Y0166449D01*
X0079522Y0166535D01*
X0079513Y0166622D01*
X0079507Y0166709D01*
X0079505Y0166796D01*
X0079505Y0179796D01*
X0079507Y0179883D01*
X0079513Y0179970D01*
X0079522Y0180057D01*
X0079535Y0180143D01*
X0079552Y0180229D01*
X0079573Y0180314D01*
X0079598Y0180397D01*
X0079626Y0180480D01*
X0079657Y0180561D01*
X0079692Y0180641D01*
X0079731Y0180719D01*
X0079773Y0180796D01*
X0079818Y0180871D01*
X0079867Y0180943D01*
X0079918Y0181014D01*
X0079973Y0181082D01*
X0080030Y0181147D01*
X0080091Y0181210D01*
X0080154Y0181271D01*
X0080219Y0181328D01*
X0080287Y0181383D01*
X0080358Y0181434D01*
X0080430Y0181483D01*
X0080505Y0181528D01*
X0080582Y0181570D01*
X0080660Y0181609D01*
X0080740Y0181644D01*
X0080821Y0181675D01*
X0080904Y0181703D01*
X0080987Y0181728D01*
X0081072Y0181749D01*
X0081158Y0181766D01*
X0081244Y0181779D01*
X0081331Y0181788D01*
X0081418Y0181794D01*
X0081505Y0181796D01*
X0086505Y0181796D01*
X0086592Y0181794D01*
X0086679Y0181788D01*
X0086766Y0181779D01*
X0086852Y0181766D01*
X0086938Y0181749D01*
X0087023Y0181728D01*
X0087106Y0181703D01*
X0087189Y0181675D01*
X0087270Y0181644D01*
X0087350Y0181609D01*
X0087428Y0181570D01*
X0087505Y0181528D01*
X0087580Y0181483D01*
X0087652Y0181434D01*
X0087723Y0181383D01*
X0087791Y0181328D01*
X0087856Y0181271D01*
X0087919Y0181210D01*
X0087980Y0181147D01*
X0088037Y0181082D01*
X0088092Y0181014D01*
X0088143Y0180943D01*
X0088192Y0180871D01*
X0088237Y0180796D01*
X0088279Y0180719D01*
X0088318Y0180641D01*
X0088353Y0180561D01*
X0088384Y0180480D01*
X0088412Y0180397D01*
X0088437Y0180314D01*
X0088458Y0180229D01*
X0088475Y0180143D01*
X0088488Y0180057D01*
X0088497Y0179970D01*
X0088503Y0179883D01*
X0088505Y0179796D01*
D13*
X0087005Y0174496D02*
X0081005Y0174496D01*
X0081005Y0171996D02*
X0087005Y0171996D01*
X0141005Y0147194D02*
X0147005Y0147194D01*
X0147005Y0144694D02*
X0141005Y0144694D01*
X0163682Y0188059D02*
X0169682Y0188059D01*
X0169682Y0190559D02*
X0163682Y0190559D01*
X0080076Y0040580D02*
X0074076Y0040580D01*
X0074076Y0038080D02*
X0080076Y0038080D01*
D14*
X0082822Y0040937D02*
X0087326Y0040937D01*
X0087326Y0039436D02*
X0087326Y0042439D01*
X0086575Y0044040D02*
X0087326Y0044791D01*
X0087326Y0047043D01*
X0084323Y0047043D01*
X0085074Y0048644D02*
X0085074Y0050145D01*
X0087326Y0048644D02*
X0082822Y0048644D01*
X0082822Y0051647D01*
X0084323Y0044040D02*
X0086575Y0044040D01*
X0082822Y0040937D02*
X0084323Y0039436D01*
X0086575Y0037885D02*
X0086575Y0037134D01*
X0087326Y0037134D01*
X0087326Y0037885D01*
X0086575Y0037885D01*
X0086575Y0035533D02*
X0083572Y0035533D01*
X0086575Y0032530D01*
X0087326Y0033281D01*
X0087326Y0034782D01*
X0086575Y0035533D01*
X0083572Y0035533D02*
X0082822Y0034782D01*
X0082822Y0033281D01*
X0083572Y0032530D01*
X0086575Y0032530D01*
X0071326Y0033281D02*
X0071326Y0034782D01*
X0070575Y0035533D01*
X0070575Y0037134D02*
X0071326Y0037885D01*
X0071326Y0039386D01*
X0070575Y0040137D01*
X0069824Y0040137D01*
X0069074Y0039386D01*
X0069074Y0038636D01*
X0069074Y0039386D02*
X0068323Y0040137D01*
X0067572Y0040137D01*
X0066822Y0039386D01*
X0066822Y0037885D01*
X0067572Y0037134D01*
X0067572Y0035533D02*
X0066822Y0034782D01*
X0066822Y0033281D01*
X0067572Y0032530D01*
X0070575Y0032530D01*
X0071326Y0033281D01*
X0052563Y0047322D02*
X0052563Y0049574D01*
X0051812Y0050324D01*
X0049561Y0050324D01*
X0049561Y0047322D01*
X0047959Y0048823D02*
X0044957Y0048823D01*
X0044957Y0049574D02*
X0045707Y0050324D01*
X0047209Y0050324D01*
X0047959Y0049574D01*
X0047959Y0048823D01*
X0047209Y0047322D02*
X0045707Y0047322D01*
X0044957Y0048072D01*
X0044957Y0049574D01*
X0043355Y0049574D02*
X0043355Y0048823D01*
X0040353Y0048823D01*
X0040353Y0049574D02*
X0041103Y0050324D01*
X0042605Y0050324D01*
X0043355Y0049574D01*
X0042605Y0047322D02*
X0041103Y0047322D01*
X0040353Y0048072D01*
X0040353Y0049574D01*
X0038768Y0050324D02*
X0038017Y0050324D01*
X0036516Y0048823D01*
X0036516Y0047322D02*
X0036516Y0050324D01*
X0034915Y0050324D02*
X0034915Y0046571D01*
X0034164Y0045820D01*
X0033413Y0045820D01*
X0032663Y0047322D02*
X0031912Y0048072D01*
X0031912Y0049574D01*
X0032663Y0050324D01*
X0034915Y0050324D01*
X0034915Y0047322D02*
X0032663Y0047322D01*
X0031912Y0055322D02*
X0034915Y0055322D01*
X0036516Y0055322D02*
X0039519Y0055322D01*
X0041120Y0055322D02*
X0043372Y0055322D01*
X0044123Y0056072D01*
X0044123Y0059075D01*
X0043372Y0059825D01*
X0041120Y0059825D01*
X0041120Y0055322D01*
X0038017Y0057574D02*
X0036516Y0057574D01*
X0036516Y0059825D02*
X0036516Y0055322D01*
X0036516Y0059825D02*
X0039519Y0059825D01*
X0045724Y0059075D02*
X0046475Y0059825D01*
X0047976Y0059825D01*
X0048727Y0059075D01*
X0048727Y0058324D01*
X0045724Y0055322D01*
X0048727Y0055322D01*
X0044835Y0044770D02*
X0041832Y0044770D01*
X0044835Y0041767D01*
X0045585Y0042518D01*
X0045585Y0044019D01*
X0044835Y0044770D01*
X0041832Y0044770D02*
X0041082Y0044019D01*
X0041082Y0042518D01*
X0041832Y0041767D01*
X0044835Y0041767D01*
X0044835Y0040166D02*
X0045585Y0039415D01*
X0045585Y0037914D01*
X0044835Y0037163D01*
X0044835Y0035562D02*
X0045585Y0034811D01*
X0045585Y0033310D01*
X0044835Y0032559D01*
X0043334Y0034061D02*
X0043334Y0034811D01*
X0044084Y0035562D01*
X0044835Y0035562D01*
X0043334Y0034811D02*
X0042583Y0035562D01*
X0041832Y0035562D01*
X0041082Y0034811D01*
X0041082Y0033310D01*
X0041832Y0032559D01*
X0041832Y0037163D02*
X0041082Y0037914D01*
X0041082Y0039415D01*
X0041832Y0040166D01*
X0042583Y0040166D01*
X0043334Y0039415D01*
X0044084Y0040166D01*
X0044835Y0040166D01*
X0043334Y0039415D02*
X0043334Y0038665D01*
X0037085Y0037066D02*
X0037085Y0034063D01*
X0034083Y0037066D01*
X0033332Y0037066D01*
X0032582Y0036315D01*
X0032582Y0034814D01*
X0033332Y0034063D01*
X0033332Y0032462D02*
X0034834Y0032462D01*
X0035584Y0031711D01*
X0035584Y0029459D01*
X0037085Y0029459D02*
X0032582Y0029459D01*
X0032582Y0031711D01*
X0033332Y0032462D01*
X0035584Y0030961D02*
X0037085Y0032462D01*
X0031912Y0055322D02*
X0031912Y0059825D01*
X0030204Y0143890D02*
X0030955Y0144641D01*
X0030955Y0145391D01*
X0030204Y0146142D01*
X0026451Y0146142D01*
X0026451Y0145391D02*
X0026451Y0146893D01*
X0028703Y0148494D02*
X0028703Y0151497D01*
X0030955Y0150746D02*
X0026451Y0150746D01*
X0028703Y0148494D01*
X0058650Y0191328D02*
X0092509Y0191328D01*
X0092509Y0208257D01*
X0083454Y0208257D01*
X0083454Y0219280D01*
X0079517Y0215343D01*
X0075580Y0219280D01*
X0075580Y0208257D01*
X0083454Y0208257D01*
X0084447Y0204507D02*
X0082945Y0203005D01*
X0081344Y0202255D02*
X0080593Y0201504D01*
X0078341Y0201504D01*
X0078341Y0200003D02*
X0078341Y0204507D01*
X0080593Y0204507D01*
X0081344Y0203756D01*
X0081344Y0202255D01*
X0082945Y0200003D02*
X0085948Y0200003D01*
X0084447Y0200003D02*
X0084447Y0204507D01*
X0087549Y0204507D02*
X0090552Y0204507D01*
X0090552Y0203756D01*
X0087549Y0200753D01*
X0087549Y0200003D01*
X0087549Y0197007D02*
X0087549Y0193253D01*
X0088300Y0192503D01*
X0089801Y0192503D01*
X0090552Y0193253D01*
X0090552Y0197007D01*
X0092153Y0196256D02*
X0092904Y0197007D01*
X0094405Y0197007D01*
X0095156Y0196256D01*
X0094405Y0194755D02*
X0092904Y0194755D01*
X0092153Y0195505D01*
X0092153Y0196256D01*
X0093654Y0197757D02*
X0093654Y0191752D01*
X0092904Y0192503D02*
X0094405Y0192503D01*
X0095156Y0193253D01*
X0095156Y0194004D01*
X0094405Y0194755D01*
X0096757Y0194755D02*
X0099760Y0194755D01*
X0099009Y0192503D02*
X0099009Y0197007D01*
X0096757Y0194755D01*
X0092904Y0192503D02*
X0092153Y0193253D01*
X0092904Y0200003D02*
X0092153Y0200753D01*
X0095156Y0203756D01*
X0095156Y0200753D01*
X0094405Y0200003D01*
X0092904Y0200003D01*
X0092153Y0200753D02*
X0092153Y0203756D01*
X0092904Y0204507D01*
X0094405Y0204507D01*
X0095156Y0203756D01*
X0096757Y0203756D02*
X0097508Y0204507D01*
X0099009Y0204507D01*
X0099760Y0203756D01*
X0099760Y0203005D01*
X0096757Y0200003D01*
X0099760Y0200003D01*
X0103159Y0200753D02*
X0104738Y0200753D01*
X0105365Y0206253D02*
X0121857Y0206253D01*
X0122484Y0200753D02*
X0124063Y0200753D01*
X0114738Y0200753D02*
X0112484Y0200753D01*
X0121857Y0206253D02*
X0122010Y0206054D01*
X0122158Y0205852D01*
X0122301Y0205647D01*
X0122439Y0205438D01*
X0122572Y0205226D01*
X0122700Y0205011D01*
X0122822Y0204793D01*
X0122940Y0204572D01*
X0123052Y0204348D01*
X0123159Y0204122D01*
X0123260Y0203893D01*
X0123356Y0203662D01*
X0123447Y0203428D01*
X0123532Y0203193D01*
X0123611Y0202955D01*
X0123684Y0202716D01*
X0123752Y0202475D01*
X0123814Y0202233D01*
X0123870Y0201989D01*
X0123921Y0201743D01*
X0123965Y0201497D01*
X0124004Y0201250D01*
X0124036Y0201002D01*
X0124063Y0200753D01*
X0110515Y0189720D02*
X0110273Y0189798D01*
X0110033Y0189882D01*
X0109795Y0189971D01*
X0109559Y0190067D01*
X0109325Y0190168D01*
X0109094Y0190274D01*
X0108866Y0190387D01*
X0108640Y0190504D01*
X0108417Y0190627D01*
X0108198Y0190756D01*
X0107981Y0190890D01*
X0107768Y0191029D01*
X0107558Y0191173D01*
X0107352Y0191322D01*
X0107150Y0191476D01*
X0106951Y0191635D01*
X0106756Y0191799D01*
X0106565Y0191968D01*
X0106379Y0192141D01*
X0106196Y0192318D01*
X0106018Y0192500D01*
X0105845Y0192686D01*
X0105676Y0192877D01*
X0105512Y0193071D01*
X0105352Y0193269D01*
X0105197Y0193471D01*
X0105048Y0193677D01*
X0104903Y0193886D01*
X0104763Y0194099D01*
X0104629Y0194315D01*
X0104500Y0194535D01*
X0104376Y0194757D01*
X0104257Y0194982D01*
X0104145Y0195210D01*
X0104037Y0195441D01*
X0103936Y0195674D01*
X0103840Y0195910D01*
X0103749Y0196148D01*
X0103665Y0196388D01*
X0103586Y0196630D01*
X0103513Y0196874D01*
X0103447Y0197120D01*
X0103386Y0197367D01*
X0103331Y0197615D01*
X0103282Y0197865D01*
X0103239Y0198116D01*
X0103203Y0198368D01*
X0103172Y0198620D01*
X0103148Y0198874D01*
X0103130Y0199127D01*
X0103118Y0199382D01*
X0103112Y0199636D01*
X0103112Y0199891D01*
X0103118Y0200145D01*
X0103131Y0200399D01*
X0103150Y0200653D01*
X0103175Y0200906D01*
X0103206Y0201159D01*
X0103243Y0201411D01*
X0103286Y0201661D01*
X0103335Y0201911D01*
X0103390Y0202160D01*
X0103452Y0202407D01*
X0103519Y0202652D01*
X0103592Y0202896D01*
X0103671Y0203138D01*
X0103756Y0203377D01*
X0103847Y0203615D01*
X0103944Y0203851D01*
X0104046Y0204084D01*
X0104154Y0204314D01*
X0104267Y0204542D01*
X0104386Y0204767D01*
X0104510Y0204989D01*
X0104639Y0205208D01*
X0104774Y0205424D01*
X0104914Y0205637D01*
X0105060Y0205846D01*
X0105210Y0206051D01*
X0105365Y0206253D01*
X0124063Y0200753D02*
X0124085Y0200498D01*
X0124100Y0200242D01*
X0124108Y0199986D01*
X0124111Y0199729D01*
X0124107Y0199473D01*
X0124097Y0199217D01*
X0124081Y0198961D01*
X0124059Y0198706D01*
X0124030Y0198451D01*
X0123995Y0198197D01*
X0123954Y0197944D01*
X0123907Y0197692D01*
X0123853Y0197442D01*
X0123794Y0197193D01*
X0123728Y0196945D01*
X0123657Y0196699D01*
X0123579Y0196454D01*
X0123496Y0196212D01*
X0123407Y0195972D01*
X0123311Y0195734D01*
X0123210Y0195498D01*
X0123104Y0195265D01*
X0122991Y0195035D01*
X0122873Y0194807D01*
X0122750Y0194583D01*
X0122621Y0194361D01*
X0122487Y0194143D01*
X0122347Y0193928D01*
X0122202Y0193717D01*
X0122052Y0193509D01*
X0121898Y0193305D01*
X0121738Y0193104D01*
X0121573Y0192908D01*
X0121404Y0192716D01*
X0121229Y0192527D01*
X0121051Y0192344D01*
X0120868Y0192164D01*
X0120680Y0191989D01*
X0120489Y0191819D01*
X0120293Y0191654D01*
X0120093Y0191493D01*
X0119890Y0191337D01*
X0119683Y0191187D01*
X0119472Y0191041D01*
X0119257Y0190900D01*
X0119040Y0190765D01*
X0118819Y0190635D01*
X0118595Y0190511D01*
X0118368Y0190392D01*
X0118138Y0190279D01*
X0117905Y0190171D01*
X0117670Y0190069D01*
X0117432Y0189973D01*
X0117193Y0189883D01*
X0116951Y0189798D01*
X0116707Y0189720D01*
X0108936Y0174995D02*
X0108936Y0170491D01*
X0107435Y0170491D02*
X0110438Y0170491D01*
X0107435Y0173494D02*
X0108936Y0174995D01*
X0105834Y0174244D02*
X0105083Y0174995D01*
X0103582Y0174995D01*
X0102831Y0174244D01*
X0102831Y0173494D01*
X0103582Y0172743D01*
X0105083Y0172743D01*
X0105834Y0171992D01*
X0105834Y0171242D01*
X0105083Y0170491D01*
X0103582Y0170491D01*
X0102831Y0171242D01*
X0101230Y0171242D02*
X0101230Y0174995D01*
X0098227Y0174995D02*
X0098227Y0171242D01*
X0098978Y0170491D01*
X0100479Y0170491D01*
X0101230Y0171242D01*
X0104332Y0169740D02*
X0104332Y0175745D01*
X0094255Y0173590D02*
X0093504Y0174341D01*
X0094255Y0173590D02*
X0094255Y0172089D01*
X0093504Y0171338D01*
X0090502Y0171338D01*
X0089751Y0172089D01*
X0089751Y0173590D01*
X0090502Y0174341D01*
X0092003Y0175942D02*
X0089751Y0178194D01*
X0094255Y0178194D01*
X0092003Y0178945D02*
X0092003Y0175942D01*
X0078255Y0175942D02*
X0073751Y0175942D01*
X0073751Y0178945D01*
X0076003Y0177443D02*
X0076003Y0175942D01*
X0075252Y0174341D02*
X0078255Y0174341D01*
X0078255Y0172089D01*
X0077504Y0171338D01*
X0075252Y0171338D01*
X0078255Y0169737D02*
X0078255Y0166734D01*
X0078255Y0168236D02*
X0073751Y0168236D01*
X0075252Y0166734D01*
X0077504Y0165183D02*
X0078255Y0165183D01*
X0078255Y0164432D01*
X0077504Y0164432D01*
X0077504Y0165183D01*
X0077504Y0162831D02*
X0074502Y0162831D01*
X0077504Y0159828D01*
X0078255Y0160579D01*
X0078255Y0162080D01*
X0077504Y0162831D01*
X0074502Y0162831D02*
X0073751Y0162080D01*
X0073751Y0160579D01*
X0074502Y0159828D01*
X0077504Y0159828D01*
X0058650Y0191328D02*
X0058650Y0208257D01*
X0075580Y0208257D01*
X0075989Y0204507D02*
X0074488Y0204507D01*
X0073737Y0203756D01*
X0073737Y0200753D01*
X0074488Y0200003D01*
X0075989Y0200003D01*
X0076740Y0200753D01*
X0076740Y0203756D02*
X0075989Y0204507D01*
X0072136Y0204507D02*
X0072136Y0200003D01*
X0069133Y0200003D02*
X0069133Y0204507D01*
X0070635Y0203005D01*
X0072136Y0204507D01*
X0133751Y0145250D02*
X0138255Y0145250D01*
X0138255Y0146751D02*
X0138255Y0143748D01*
X0137504Y0142147D02*
X0138255Y0141396D01*
X0138255Y0139895D01*
X0137504Y0139144D01*
X0134502Y0139144D01*
X0133751Y0139895D01*
X0133751Y0141396D01*
X0134502Y0142147D01*
X0135252Y0143748D02*
X0133751Y0145250D01*
X0149751Y0147552D02*
X0154255Y0147552D01*
X0154255Y0149053D02*
X0154255Y0146050D01*
X0154255Y0144499D02*
X0154255Y0143748D01*
X0153504Y0143748D01*
X0153504Y0144499D01*
X0154255Y0144499D01*
X0153504Y0142147D02*
X0150502Y0142147D01*
X0153504Y0139144D01*
X0154255Y0139895D01*
X0154255Y0141396D01*
X0153504Y0142147D01*
X0150502Y0142147D02*
X0149751Y0141396D01*
X0149751Y0139895D01*
X0150502Y0139144D01*
X0153504Y0139144D01*
X0151252Y0146050D02*
X0149751Y0147552D01*
X0151252Y0155258D02*
X0153504Y0155258D01*
X0154255Y0156009D01*
X0154255Y0158261D01*
X0151252Y0158261D01*
X0152003Y0159862D02*
X0152003Y0161363D01*
X0154255Y0159862D02*
X0149751Y0159862D01*
X0149751Y0162865D01*
X0157179Y0175891D02*
X0156428Y0176642D01*
X0156428Y0178143D01*
X0157179Y0178894D01*
X0160181Y0175891D01*
X0160932Y0176642D01*
X0160932Y0178143D01*
X0160181Y0178894D01*
X0157179Y0178894D01*
X0157929Y0182797D02*
X0156428Y0184299D01*
X0160932Y0184299D01*
X0160932Y0185800D02*
X0160932Y0182797D01*
X0160932Y0181246D02*
X0160932Y0180495D01*
X0160181Y0180495D01*
X0160181Y0181246D01*
X0160932Y0181246D01*
X0160181Y0187401D02*
X0157929Y0187401D01*
X0160181Y0187401D02*
X0160932Y0188152D01*
X0160932Y0190404D01*
X0157929Y0190404D01*
X0158680Y0192005D02*
X0158680Y0193506D01*
X0160932Y0192005D02*
X0156428Y0192005D01*
X0156428Y0195008D01*
X0172428Y0195008D02*
X0173179Y0193506D01*
X0174680Y0192005D01*
X0174680Y0194257D01*
X0175431Y0195008D01*
X0176181Y0195008D01*
X0176932Y0194257D01*
X0176932Y0192756D01*
X0176181Y0192005D01*
X0174680Y0192005D01*
X0176181Y0190404D02*
X0176932Y0189653D01*
X0176932Y0188152D01*
X0176181Y0187401D01*
X0173179Y0187401D01*
X0172428Y0188152D01*
X0172428Y0189653D01*
X0173179Y0190404D01*
X0160181Y0175891D02*
X0157179Y0175891D01*
X0190062Y0176116D02*
X0194566Y0176116D01*
X0194566Y0174615D02*
X0194566Y0177617D01*
X0191563Y0174615D02*
X0190062Y0176116D01*
X0190813Y0173013D02*
X0192314Y0173013D01*
X0193064Y0172263D01*
X0193064Y0170011D01*
X0193064Y0171512D02*
X0194566Y0173013D01*
X0194566Y0170011D02*
X0190062Y0170011D01*
X0190062Y0172263D01*
X0190813Y0173013D01*
X0198562Y0173861D02*
X0198562Y0175363D01*
X0199313Y0176113D01*
X0200063Y0176113D01*
X0200814Y0175363D01*
X0201564Y0176113D01*
X0202315Y0176113D01*
X0203066Y0175363D01*
X0203066Y0173861D01*
X0202315Y0173111D01*
X0200814Y0174612D02*
X0200814Y0175363D01*
X0199313Y0173111D02*
X0198562Y0173861D01*
X0199313Y0177715D02*
X0198562Y0178465D01*
X0198562Y0179966D01*
X0199313Y0180717D01*
X0200063Y0180717D01*
X0200814Y0179966D01*
X0201564Y0180717D01*
X0202315Y0180717D01*
X0203066Y0179966D01*
X0203066Y0178465D01*
X0202315Y0177715D01*
X0200814Y0179216D02*
X0200814Y0179966D01*
X0202315Y0182318D02*
X0199313Y0182318D01*
X0198562Y0183069D01*
X0198562Y0184570D01*
X0199313Y0185321D01*
X0202315Y0182318D01*
X0203066Y0183069D01*
X0203066Y0184570D01*
X0202315Y0185321D01*
X0199313Y0185321D01*
X0197843Y0192676D02*
X0196342Y0192676D01*
X0195591Y0193427D01*
X0195591Y0194928D01*
X0196342Y0195679D01*
X0197843Y0195679D01*
X0198594Y0194928D01*
X0198594Y0194177D01*
X0195591Y0194177D01*
X0194007Y0195679D02*
X0193256Y0195679D01*
X0191755Y0194177D01*
X0191755Y0192676D02*
X0191755Y0195679D01*
X0191755Y0200676D02*
X0194757Y0200676D01*
X0196359Y0200676D02*
X0199361Y0200676D01*
X0200963Y0200676D02*
X0203214Y0200676D01*
X0203965Y0201427D01*
X0203965Y0204429D01*
X0203214Y0205180D01*
X0200963Y0205180D01*
X0200963Y0200676D01*
X0203198Y0197180D02*
X0203198Y0192676D01*
X0200946Y0192676D01*
X0200195Y0193427D01*
X0200195Y0194928D01*
X0200946Y0195679D01*
X0203198Y0195679D01*
X0205566Y0200676D02*
X0208569Y0200676D01*
X0207068Y0200676D02*
X0207068Y0205180D01*
X0205566Y0203679D01*
X0199361Y0205180D02*
X0196359Y0205180D01*
X0196359Y0200676D01*
X0196359Y0202928D02*
X0197860Y0202928D01*
X0191755Y0205180D02*
X0191755Y0200676D01*
X0159307Y0082633D02*
X0157055Y0080381D01*
X0160058Y0080381D01*
X0159307Y0078129D02*
X0159307Y0082633D01*
X0155454Y0081882D02*
X0155454Y0080381D01*
X0154703Y0079630D01*
X0152452Y0079630D01*
X0153953Y0079630D02*
X0155454Y0078129D01*
X0152452Y0078129D02*
X0152452Y0082633D01*
X0154703Y0082633D01*
X0155454Y0081882D01*
X0157053Y0074133D02*
X0157053Y0069629D01*
X0157055Y0070071D02*
X0157806Y0070822D01*
X0159307Y0070822D01*
X0160058Y0070071D01*
X0160058Y0069320D01*
X0159307Y0068570D01*
X0160058Y0067819D01*
X0160058Y0067068D01*
X0159307Y0066318D01*
X0157806Y0066318D01*
X0157055Y0067068D01*
X0155454Y0066318D02*
X0153953Y0067819D01*
X0154703Y0067819D02*
X0152452Y0067819D01*
X0152452Y0066318D02*
X0152452Y0070822D01*
X0154703Y0070822D01*
X0155454Y0070071D01*
X0155454Y0068570D01*
X0154703Y0067819D01*
X0155552Y0069629D02*
X0158554Y0069629D01*
X0158557Y0068570D02*
X0159307Y0068570D01*
X0160906Y0069629D02*
X0160155Y0070379D01*
X0163158Y0073382D01*
X0163158Y0070379D01*
X0162407Y0069629D01*
X0160906Y0069629D01*
X0160155Y0070379D02*
X0160155Y0073382D01*
X0160906Y0074133D01*
X0162407Y0074133D01*
X0163158Y0073382D01*
X0164759Y0074133D02*
X0164759Y0069629D01*
X0164759Y0071130D02*
X0167011Y0072631D01*
X0164759Y0071130D02*
X0167011Y0069629D01*
X0164759Y0062322D02*
X0164759Y0057818D01*
X0164759Y0059319D02*
X0167011Y0060820D01*
X0164759Y0059319D02*
X0167011Y0057818D01*
X0163158Y0058568D02*
X0162407Y0057818D01*
X0160906Y0057818D01*
X0160155Y0058568D01*
X0163158Y0061571D01*
X0163158Y0058568D01*
X0160155Y0058568D02*
X0160155Y0061571D01*
X0160906Y0062322D01*
X0162407Y0062322D01*
X0163158Y0061571D01*
X0158554Y0057818D02*
X0155552Y0057818D01*
X0157053Y0057818D02*
X0157053Y0062322D01*
X0155552Y0060820D01*
X0155552Y0072631D02*
X0157053Y0074133D01*
X0173507Y0046396D02*
X0175759Y0046396D01*
X0176509Y0045646D01*
X0176509Y0044144D01*
X0175759Y0043394D01*
X0173507Y0043394D01*
X0175008Y0043394D02*
X0176509Y0041893D01*
X0178111Y0041893D02*
X0181113Y0041893D01*
X0182715Y0042643D02*
X0183465Y0041893D01*
X0184966Y0041893D01*
X0185717Y0042643D01*
X0185717Y0043394D01*
X0184966Y0044144D01*
X0183465Y0044144D01*
X0182715Y0044895D01*
X0182715Y0045646D01*
X0183465Y0046396D01*
X0184966Y0046396D01*
X0185717Y0045646D01*
X0187318Y0046396D02*
X0187318Y0041893D01*
X0190321Y0041893D01*
X0193424Y0041893D02*
X0193424Y0046396D01*
X0194925Y0046396D02*
X0191922Y0046396D01*
X0190321Y0046396D02*
X0187318Y0046396D01*
X0187318Y0044144D02*
X0188820Y0044144D01*
X0181113Y0046396D02*
X0178111Y0046396D01*
X0178111Y0041893D01*
X0178111Y0044144D02*
X0179612Y0044144D01*
X0173507Y0041893D02*
X0173507Y0046396D01*
X0155715Y0045252D02*
X0155715Y0043751D01*
X0154964Y0043000D01*
X0152712Y0043000D01*
X0152712Y0041499D02*
X0152712Y0046003D01*
X0154964Y0046003D01*
X0155715Y0045252D01*
X0154213Y0043000D02*
X0155715Y0041499D01*
X0151111Y0041499D02*
X0148108Y0041499D01*
X0148108Y0046003D01*
X0151111Y0046003D01*
X0149610Y0043751D02*
X0148108Y0043751D01*
X0146507Y0043000D02*
X0146507Y0042249D01*
X0145756Y0041499D01*
X0144255Y0041499D01*
X0143504Y0042249D01*
X0141903Y0042249D02*
X0141903Y0046003D01*
X0143504Y0045252D02*
X0143504Y0044501D01*
X0144255Y0043751D01*
X0145756Y0043751D01*
X0146507Y0043000D01*
X0146507Y0045252D02*
X0145756Y0046003D01*
X0144255Y0046003D01*
X0143504Y0045252D01*
X0141903Y0042249D02*
X0141152Y0041499D01*
X0139651Y0041499D01*
X0138900Y0042249D01*
X0138900Y0046003D01*
X0193429Y0075102D02*
X0193429Y0076603D01*
X0193429Y0075852D02*
X0197182Y0075852D01*
X0197933Y0075102D01*
X0197933Y0074351D01*
X0197182Y0073600D01*
X0197182Y0078204D02*
X0197933Y0078955D01*
X0197933Y0080456D01*
X0197182Y0081207D01*
X0196431Y0081207D01*
X0195681Y0080456D01*
X0195681Y0079706D01*
X0195681Y0080456D02*
X0194930Y0081207D01*
X0194179Y0081207D01*
X0193429Y0080456D01*
X0193429Y0078955D01*
X0194179Y0078204D01*
X0212671Y0062082D02*
X0214173Y0060581D01*
X0212671Y0062082D02*
X0217175Y0062082D01*
X0217175Y0060581D02*
X0217175Y0063583D01*
X0216425Y0058229D02*
X0212671Y0058229D01*
X0212671Y0058979D02*
X0212671Y0057478D01*
X0216425Y0058229D02*
X0217175Y0057478D01*
X0217175Y0056727D01*
X0216425Y0055977D01*
D15*
X0210225Y0057135D02*
X0207725Y0054635D01*
X0210225Y0052135D01*
X0210225Y0047135D01*
X0207725Y0044635D01*
X0210225Y0042135D01*
X0210225Y0037135D01*
X0207725Y0034635D01*
X0210225Y0032135D01*
X0210225Y0027135D01*
X0207725Y0024635D01*
X0210225Y0022135D01*
X0210225Y0017135D01*
X0207725Y0014635D01*
X0202725Y0014635D01*
X0200225Y0017135D01*
X0200225Y0022135D01*
X0202725Y0024635D01*
X0200225Y0027135D01*
X0200225Y0032135D01*
X0202725Y0034635D01*
X0200225Y0037135D01*
X0200225Y0042135D01*
X0202725Y0044635D01*
X0200225Y0047135D01*
X0200225Y0052135D01*
X0202725Y0054635D01*
X0200225Y0057135D01*
X0200225Y0062135D01*
X0202725Y0064635D01*
X0207725Y0064635D01*
X0210225Y0062135D01*
X0210225Y0057135D01*
X0207883Y0073650D02*
X0202883Y0073650D01*
X0200383Y0076150D01*
X0200383Y0081150D01*
X0202883Y0083650D01*
X0200383Y0086150D01*
X0200383Y0091150D01*
X0202883Y0093650D01*
X0200383Y0096150D01*
X0200383Y0101150D01*
X0202883Y0103650D01*
X0200383Y0106150D01*
X0200383Y0111150D01*
X0202883Y0113650D01*
X0200383Y0116150D01*
X0200383Y0121150D01*
X0202883Y0123650D01*
X0200383Y0126150D01*
X0200383Y0131150D01*
X0202883Y0133650D01*
X0200383Y0136150D01*
X0200383Y0141150D01*
X0202883Y0143650D01*
X0200383Y0146150D01*
X0200383Y0151150D01*
X0202883Y0153650D01*
X0207883Y0153650D01*
X0210383Y0151150D01*
X0210383Y0146150D01*
X0207883Y0143650D01*
X0210383Y0141150D01*
X0210383Y0136150D01*
X0207883Y0133650D01*
X0210383Y0131150D01*
X0210383Y0126150D01*
X0207883Y0123650D01*
X0210383Y0121150D01*
X0210383Y0116150D01*
X0207883Y0113650D01*
X0210383Y0111150D01*
X0210383Y0106150D01*
X0207883Y0103650D01*
X0210383Y0101150D01*
X0210383Y0096150D01*
X0207883Y0093650D01*
X0210383Y0091150D01*
X0210383Y0086150D01*
X0207883Y0083650D01*
X0210383Y0081150D01*
X0210383Y0076150D01*
X0207883Y0073650D01*
X0177391Y0088769D02*
X0148650Y0088769D01*
X0068619Y0081737D02*
X0068439Y0083532D01*
X0068299Y0085330D01*
X0068199Y0087131D01*
X0068139Y0088933D01*
X0068119Y0090737D01*
X0068139Y0092541D01*
X0068199Y0094343D01*
X0068299Y0096144D01*
X0068439Y0097942D01*
X0068619Y0099737D01*
X0068648Y0099908D01*
X0068681Y0100078D01*
X0068717Y0100247D01*
X0068758Y0100415D01*
X0068804Y0100582D01*
X0068853Y0100748D01*
X0068906Y0100913D01*
X0068963Y0101076D01*
X0069024Y0101238D01*
X0069089Y0101399D01*
X0069158Y0101557D01*
X0069231Y0101714D01*
X0069308Y0101869D01*
X0069388Y0102023D01*
X0069473Y0102174D01*
X0069560Y0102323D01*
X0069652Y0102470D01*
X0069747Y0102615D01*
X0069845Y0102757D01*
X0069947Y0102897D01*
X0070053Y0103034D01*
X0070161Y0103169D01*
X0070273Y0103301D01*
X0070388Y0103430D01*
X0070507Y0103556D01*
X0070628Y0103680D01*
X0070752Y0103800D01*
X0070879Y0103918D01*
X0071009Y0104032D01*
X0071142Y0104143D01*
X0071278Y0104251D01*
X0071416Y0104355D01*
X0071556Y0104456D01*
X0071699Y0104554D01*
X0071845Y0104648D01*
X0071992Y0104738D01*
X0072142Y0104825D01*
X0072294Y0104908D01*
X0072447Y0104987D01*
X0072603Y0105063D01*
X0072761Y0105135D01*
X0072920Y0105203D01*
X0073081Y0105267D01*
X0073243Y0105327D01*
X0073407Y0105383D01*
X0073572Y0105435D01*
X0073738Y0105483D01*
X0073905Y0105527D01*
X0074074Y0105566D01*
X0074243Y0105602D01*
X0074413Y0105634D01*
X0074584Y0105661D01*
X0074756Y0105684D01*
X0074928Y0105703D01*
X0075100Y0105718D01*
X0075273Y0105729D01*
X0075446Y0105735D01*
X0075619Y0105737D01*
X0075792Y0105735D01*
X0075965Y0105729D01*
X0076138Y0105718D01*
X0076310Y0105703D01*
X0076482Y0105684D01*
X0076654Y0105661D01*
X0076825Y0105634D01*
X0076995Y0105602D01*
X0077164Y0105566D01*
X0077333Y0105527D01*
X0077500Y0105483D01*
X0077666Y0105435D01*
X0077831Y0105383D01*
X0077995Y0105327D01*
X0078157Y0105267D01*
X0078318Y0105203D01*
X0078477Y0105135D01*
X0078635Y0105063D01*
X0078791Y0104987D01*
X0078944Y0104908D01*
X0079096Y0104825D01*
X0079246Y0104738D01*
X0079393Y0104648D01*
X0079539Y0104554D01*
X0079682Y0104456D01*
X0079822Y0104355D01*
X0079960Y0104251D01*
X0080096Y0104143D01*
X0080229Y0104032D01*
X0080359Y0103918D01*
X0080486Y0103800D01*
X0080610Y0103680D01*
X0080731Y0103556D01*
X0080850Y0103430D01*
X0080965Y0103301D01*
X0081077Y0103169D01*
X0081185Y0103034D01*
X0081291Y0102897D01*
X0081393Y0102757D01*
X0081491Y0102615D01*
X0081586Y0102470D01*
X0081678Y0102323D01*
X0081765Y0102174D01*
X0081850Y0102023D01*
X0081930Y0101869D01*
X0082007Y0101714D01*
X0082080Y0101557D01*
X0082149Y0101399D01*
X0082214Y0101238D01*
X0082275Y0101076D01*
X0082332Y0100913D01*
X0082385Y0100748D01*
X0082434Y0100582D01*
X0082480Y0100415D01*
X0082521Y0100247D01*
X0082557Y0100078D01*
X0082590Y0099908D01*
X0082619Y0099737D01*
X0082619Y0081737D02*
X0082590Y0081566D01*
X0082557Y0081396D01*
X0082521Y0081227D01*
X0082480Y0081059D01*
X0082434Y0080892D01*
X0082385Y0080726D01*
X0082332Y0080561D01*
X0082275Y0080398D01*
X0082214Y0080236D01*
X0082149Y0080075D01*
X0082080Y0079917D01*
X0082007Y0079760D01*
X0081930Y0079605D01*
X0081850Y0079451D01*
X0081765Y0079300D01*
X0081678Y0079151D01*
X0081586Y0079004D01*
X0081491Y0078859D01*
X0081393Y0078717D01*
X0081291Y0078577D01*
X0081185Y0078440D01*
X0081077Y0078305D01*
X0080965Y0078173D01*
X0080850Y0078044D01*
X0080731Y0077918D01*
X0080610Y0077794D01*
X0080486Y0077674D01*
X0080359Y0077556D01*
X0080229Y0077442D01*
X0080096Y0077331D01*
X0079960Y0077223D01*
X0079822Y0077119D01*
X0079682Y0077018D01*
X0079539Y0076920D01*
X0079393Y0076826D01*
X0079246Y0076736D01*
X0079096Y0076649D01*
X0078944Y0076566D01*
X0078791Y0076487D01*
X0078635Y0076411D01*
X0078477Y0076339D01*
X0078318Y0076271D01*
X0078157Y0076207D01*
X0077995Y0076147D01*
X0077831Y0076091D01*
X0077666Y0076039D01*
X0077500Y0075991D01*
X0077333Y0075947D01*
X0077164Y0075908D01*
X0076995Y0075872D01*
X0076825Y0075840D01*
X0076654Y0075813D01*
X0076482Y0075790D01*
X0076310Y0075771D01*
X0076138Y0075756D01*
X0075965Y0075745D01*
X0075792Y0075739D01*
X0075619Y0075737D01*
X0075446Y0075739D01*
X0075273Y0075745D01*
X0075100Y0075756D01*
X0074928Y0075771D01*
X0074756Y0075790D01*
X0074584Y0075813D01*
X0074413Y0075840D01*
X0074243Y0075872D01*
X0074074Y0075908D01*
X0073905Y0075947D01*
X0073738Y0075991D01*
X0073572Y0076039D01*
X0073407Y0076091D01*
X0073243Y0076147D01*
X0073081Y0076207D01*
X0072920Y0076271D01*
X0072761Y0076339D01*
X0072603Y0076411D01*
X0072447Y0076487D01*
X0072294Y0076566D01*
X0072142Y0076649D01*
X0071992Y0076736D01*
X0071845Y0076826D01*
X0071699Y0076920D01*
X0071556Y0077018D01*
X0071416Y0077119D01*
X0071278Y0077223D01*
X0071142Y0077331D01*
X0071009Y0077442D01*
X0070879Y0077556D01*
X0070752Y0077674D01*
X0070628Y0077794D01*
X0070507Y0077918D01*
X0070388Y0078044D01*
X0070273Y0078173D01*
X0070161Y0078305D01*
X0070053Y0078440D01*
X0069947Y0078577D01*
X0069845Y0078717D01*
X0069747Y0078859D01*
X0069652Y0079004D01*
X0069560Y0079151D01*
X0069473Y0079300D01*
X0069388Y0079451D01*
X0069308Y0079605D01*
X0069231Y0079760D01*
X0069158Y0079917D01*
X0069089Y0080075D01*
X0069024Y0080236D01*
X0068963Y0080398D01*
X0068906Y0080561D01*
X0068853Y0080726D01*
X0068804Y0080892D01*
X0068758Y0081059D01*
X0068717Y0081227D01*
X0068681Y0081396D01*
X0068648Y0081566D01*
X0068619Y0081737D01*
X0024005Y0080048D02*
X0024005Y0075048D01*
X0021505Y0072548D01*
X0016505Y0072548D01*
X0014005Y0075048D01*
X0014005Y0080048D01*
X0016505Y0082548D01*
X0014005Y0085048D01*
X0014005Y0090048D01*
X0016505Y0092548D01*
X0014005Y0095048D01*
X0014005Y0100048D01*
X0016505Y0102548D01*
X0014005Y0105048D01*
X0014005Y0110048D01*
X0016505Y0112548D01*
X0014005Y0115048D01*
X0014005Y0120048D01*
X0016505Y0122548D01*
X0014005Y0125048D01*
X0014005Y0130048D01*
X0016505Y0132548D01*
X0014005Y0135048D01*
X0014005Y0140048D01*
X0016505Y0142548D01*
X0014005Y0145048D01*
X0014005Y0150048D01*
X0016505Y0152548D01*
X0021505Y0152548D01*
X0024005Y0150048D01*
X0024005Y0145048D01*
X0021505Y0142548D01*
X0024005Y0140048D01*
X0024005Y0135048D01*
X0021505Y0132548D01*
X0024005Y0130048D01*
X0024005Y0125048D01*
X0021505Y0122548D01*
X0024005Y0120048D01*
X0024005Y0115048D01*
X0021505Y0112548D01*
X0024005Y0110048D01*
X0024005Y0105048D01*
X0021505Y0102548D01*
X0024005Y0100048D01*
X0024005Y0095048D01*
X0021505Y0092548D01*
X0024005Y0090048D01*
X0024005Y0085048D01*
X0021505Y0082548D01*
X0024005Y0080048D01*
X0082619Y0081737D02*
X0082800Y0083532D01*
X0082940Y0085330D01*
X0083041Y0087131D01*
X0083101Y0088933D01*
X0083121Y0090737D01*
X0083101Y0092541D01*
X0083041Y0094343D01*
X0082940Y0096144D01*
X0082800Y0097942D01*
X0082619Y0099737D01*
X0140150Y0038249D02*
X0157150Y0038249D01*
X0160650Y0030178D02*
X0160650Y0022249D01*
X0157150Y0014249D02*
X0140150Y0014249D01*
X0136650Y0022249D02*
X0136650Y0030296D01*
X0141650Y0026249D02*
X0141652Y0026421D01*
X0141658Y0026592D01*
X0141669Y0026764D01*
X0141684Y0026935D01*
X0141703Y0027106D01*
X0141726Y0027276D01*
X0141753Y0027446D01*
X0141785Y0027615D01*
X0141820Y0027783D01*
X0141860Y0027950D01*
X0141904Y0028116D01*
X0141951Y0028281D01*
X0142003Y0028445D01*
X0142059Y0028607D01*
X0142119Y0028768D01*
X0142183Y0028928D01*
X0142251Y0029086D01*
X0142322Y0029242D01*
X0142397Y0029396D01*
X0142477Y0029549D01*
X0142559Y0029699D01*
X0142646Y0029848D01*
X0142736Y0029994D01*
X0142830Y0030138D01*
X0142927Y0030280D01*
X0143028Y0030419D01*
X0143132Y0030556D01*
X0143239Y0030690D01*
X0143350Y0030821D01*
X0143463Y0030950D01*
X0143580Y0031076D01*
X0143700Y0031199D01*
X0143823Y0031319D01*
X0143949Y0031436D01*
X0144078Y0031549D01*
X0144209Y0031660D01*
X0144343Y0031767D01*
X0144480Y0031871D01*
X0144619Y0031972D01*
X0144761Y0032069D01*
X0144905Y0032163D01*
X0145051Y0032253D01*
X0145200Y0032340D01*
X0145350Y0032422D01*
X0145503Y0032502D01*
X0145657Y0032577D01*
X0145813Y0032648D01*
X0145971Y0032716D01*
X0146131Y0032780D01*
X0146292Y0032840D01*
X0146454Y0032896D01*
X0146618Y0032948D01*
X0146783Y0032995D01*
X0146949Y0033039D01*
X0147116Y0033079D01*
X0147284Y0033114D01*
X0147453Y0033146D01*
X0147623Y0033173D01*
X0147793Y0033196D01*
X0147964Y0033215D01*
X0148135Y0033230D01*
X0148307Y0033241D01*
X0148478Y0033247D01*
X0148650Y0033249D01*
X0148822Y0033247D01*
X0148993Y0033241D01*
X0149165Y0033230D01*
X0149336Y0033215D01*
X0149507Y0033196D01*
X0149677Y0033173D01*
X0149847Y0033146D01*
X0150016Y0033114D01*
X0150184Y0033079D01*
X0150351Y0033039D01*
X0150517Y0032995D01*
X0150682Y0032948D01*
X0150846Y0032896D01*
X0151008Y0032840D01*
X0151169Y0032780D01*
X0151329Y0032716D01*
X0151487Y0032648D01*
X0151643Y0032577D01*
X0151797Y0032502D01*
X0151950Y0032422D01*
X0152100Y0032340D01*
X0152249Y0032253D01*
X0152395Y0032163D01*
X0152539Y0032069D01*
X0152681Y0031972D01*
X0152820Y0031871D01*
X0152957Y0031767D01*
X0153091Y0031660D01*
X0153222Y0031549D01*
X0153351Y0031436D01*
X0153477Y0031319D01*
X0153600Y0031199D01*
X0153720Y0031076D01*
X0153837Y0030950D01*
X0153950Y0030821D01*
X0154061Y0030690D01*
X0154168Y0030556D01*
X0154272Y0030419D01*
X0154373Y0030280D01*
X0154470Y0030138D01*
X0154564Y0029994D01*
X0154654Y0029848D01*
X0154741Y0029699D01*
X0154823Y0029549D01*
X0154903Y0029396D01*
X0154978Y0029242D01*
X0155049Y0029086D01*
X0155117Y0028928D01*
X0155181Y0028768D01*
X0155241Y0028607D01*
X0155297Y0028445D01*
X0155349Y0028281D01*
X0155396Y0028116D01*
X0155440Y0027950D01*
X0155480Y0027783D01*
X0155515Y0027615D01*
X0155547Y0027446D01*
X0155574Y0027276D01*
X0155597Y0027106D01*
X0155616Y0026935D01*
X0155631Y0026764D01*
X0155642Y0026592D01*
X0155648Y0026421D01*
X0155650Y0026249D01*
X0155648Y0026077D01*
X0155642Y0025906D01*
X0155631Y0025734D01*
X0155616Y0025563D01*
X0155597Y0025392D01*
X0155574Y0025222D01*
X0155547Y0025052D01*
X0155515Y0024883D01*
X0155480Y0024715D01*
X0155440Y0024548D01*
X0155396Y0024382D01*
X0155349Y0024217D01*
X0155297Y0024053D01*
X0155241Y0023891D01*
X0155181Y0023730D01*
X0155117Y0023570D01*
X0155049Y0023412D01*
X0154978Y0023256D01*
X0154903Y0023102D01*
X0154823Y0022949D01*
X0154741Y0022799D01*
X0154654Y0022650D01*
X0154564Y0022504D01*
X0154470Y0022360D01*
X0154373Y0022218D01*
X0154272Y0022079D01*
X0154168Y0021942D01*
X0154061Y0021808D01*
X0153950Y0021677D01*
X0153837Y0021548D01*
X0153720Y0021422D01*
X0153600Y0021299D01*
X0153477Y0021179D01*
X0153351Y0021062D01*
X0153222Y0020949D01*
X0153091Y0020838D01*
X0152957Y0020731D01*
X0152820Y0020627D01*
X0152681Y0020526D01*
X0152539Y0020429D01*
X0152395Y0020335D01*
X0152249Y0020245D01*
X0152100Y0020158D01*
X0151950Y0020076D01*
X0151797Y0019996D01*
X0151643Y0019921D01*
X0151487Y0019850D01*
X0151329Y0019782D01*
X0151169Y0019718D01*
X0151008Y0019658D01*
X0150846Y0019602D01*
X0150682Y0019550D01*
X0150517Y0019503D01*
X0150351Y0019459D01*
X0150184Y0019419D01*
X0150016Y0019384D01*
X0149847Y0019352D01*
X0149677Y0019325D01*
X0149507Y0019302D01*
X0149336Y0019283D01*
X0149165Y0019268D01*
X0148993Y0019257D01*
X0148822Y0019251D01*
X0148650Y0019249D01*
X0148478Y0019251D01*
X0148307Y0019257D01*
X0148135Y0019268D01*
X0147964Y0019283D01*
X0147793Y0019302D01*
X0147623Y0019325D01*
X0147453Y0019352D01*
X0147284Y0019384D01*
X0147116Y0019419D01*
X0146949Y0019459D01*
X0146783Y0019503D01*
X0146618Y0019550D01*
X0146454Y0019602D01*
X0146292Y0019658D01*
X0146131Y0019718D01*
X0145971Y0019782D01*
X0145813Y0019850D01*
X0145657Y0019921D01*
X0145503Y0019996D01*
X0145350Y0020076D01*
X0145200Y0020158D01*
X0145051Y0020245D01*
X0144905Y0020335D01*
X0144761Y0020429D01*
X0144619Y0020526D01*
X0144480Y0020627D01*
X0144343Y0020731D01*
X0144209Y0020838D01*
X0144078Y0020949D01*
X0143949Y0021062D01*
X0143823Y0021179D01*
X0143700Y0021299D01*
X0143580Y0021422D01*
X0143463Y0021548D01*
X0143350Y0021677D01*
X0143239Y0021808D01*
X0143132Y0021942D01*
X0143028Y0022079D01*
X0142927Y0022218D01*
X0142830Y0022360D01*
X0142736Y0022504D01*
X0142646Y0022650D01*
X0142559Y0022799D01*
X0142477Y0022949D01*
X0142397Y0023102D01*
X0142322Y0023256D01*
X0142251Y0023412D01*
X0142183Y0023570D01*
X0142119Y0023730D01*
X0142059Y0023891D01*
X0142003Y0024053D01*
X0141951Y0024217D01*
X0141904Y0024382D01*
X0141860Y0024548D01*
X0141820Y0024715D01*
X0141785Y0024883D01*
X0141753Y0025052D01*
X0141726Y0025222D01*
X0141703Y0025392D01*
X0141684Y0025563D01*
X0141669Y0025734D01*
X0141658Y0025906D01*
X0141652Y0026077D01*
X0141650Y0026249D01*
X0171257Y0022643D02*
X0171257Y0030690D01*
X0174757Y0038643D02*
X0191757Y0038643D01*
X0195257Y0030572D02*
X0195257Y0022643D01*
X0191757Y0014643D02*
X0174757Y0014643D01*
X0176257Y0026643D02*
X0176259Y0026815D01*
X0176265Y0026986D01*
X0176276Y0027158D01*
X0176291Y0027329D01*
X0176310Y0027500D01*
X0176333Y0027670D01*
X0176360Y0027840D01*
X0176392Y0028009D01*
X0176427Y0028177D01*
X0176467Y0028344D01*
X0176511Y0028510D01*
X0176558Y0028675D01*
X0176610Y0028839D01*
X0176666Y0029001D01*
X0176726Y0029162D01*
X0176790Y0029322D01*
X0176858Y0029480D01*
X0176929Y0029636D01*
X0177004Y0029790D01*
X0177084Y0029943D01*
X0177166Y0030093D01*
X0177253Y0030242D01*
X0177343Y0030388D01*
X0177437Y0030532D01*
X0177534Y0030674D01*
X0177635Y0030813D01*
X0177739Y0030950D01*
X0177846Y0031084D01*
X0177957Y0031215D01*
X0178070Y0031344D01*
X0178187Y0031470D01*
X0178307Y0031593D01*
X0178430Y0031713D01*
X0178556Y0031830D01*
X0178685Y0031943D01*
X0178816Y0032054D01*
X0178950Y0032161D01*
X0179087Y0032265D01*
X0179226Y0032366D01*
X0179368Y0032463D01*
X0179512Y0032557D01*
X0179658Y0032647D01*
X0179807Y0032734D01*
X0179957Y0032816D01*
X0180110Y0032896D01*
X0180264Y0032971D01*
X0180420Y0033042D01*
X0180578Y0033110D01*
X0180738Y0033174D01*
X0180899Y0033234D01*
X0181061Y0033290D01*
X0181225Y0033342D01*
X0181390Y0033389D01*
X0181556Y0033433D01*
X0181723Y0033473D01*
X0181891Y0033508D01*
X0182060Y0033540D01*
X0182230Y0033567D01*
X0182400Y0033590D01*
X0182571Y0033609D01*
X0182742Y0033624D01*
X0182914Y0033635D01*
X0183085Y0033641D01*
X0183257Y0033643D01*
X0183429Y0033641D01*
X0183600Y0033635D01*
X0183772Y0033624D01*
X0183943Y0033609D01*
X0184114Y0033590D01*
X0184284Y0033567D01*
X0184454Y0033540D01*
X0184623Y0033508D01*
X0184791Y0033473D01*
X0184958Y0033433D01*
X0185124Y0033389D01*
X0185289Y0033342D01*
X0185453Y0033290D01*
X0185615Y0033234D01*
X0185776Y0033174D01*
X0185936Y0033110D01*
X0186094Y0033042D01*
X0186250Y0032971D01*
X0186404Y0032896D01*
X0186557Y0032816D01*
X0186707Y0032734D01*
X0186856Y0032647D01*
X0187002Y0032557D01*
X0187146Y0032463D01*
X0187288Y0032366D01*
X0187427Y0032265D01*
X0187564Y0032161D01*
X0187698Y0032054D01*
X0187829Y0031943D01*
X0187958Y0031830D01*
X0188084Y0031713D01*
X0188207Y0031593D01*
X0188327Y0031470D01*
X0188444Y0031344D01*
X0188557Y0031215D01*
X0188668Y0031084D01*
X0188775Y0030950D01*
X0188879Y0030813D01*
X0188980Y0030674D01*
X0189077Y0030532D01*
X0189171Y0030388D01*
X0189261Y0030242D01*
X0189348Y0030093D01*
X0189430Y0029943D01*
X0189510Y0029790D01*
X0189585Y0029636D01*
X0189656Y0029480D01*
X0189724Y0029322D01*
X0189788Y0029162D01*
X0189848Y0029001D01*
X0189904Y0028839D01*
X0189956Y0028675D01*
X0190003Y0028510D01*
X0190047Y0028344D01*
X0190087Y0028177D01*
X0190122Y0028009D01*
X0190154Y0027840D01*
X0190181Y0027670D01*
X0190204Y0027500D01*
X0190223Y0027329D01*
X0190238Y0027158D01*
X0190249Y0026986D01*
X0190255Y0026815D01*
X0190257Y0026643D01*
X0190255Y0026471D01*
X0190249Y0026300D01*
X0190238Y0026128D01*
X0190223Y0025957D01*
X0190204Y0025786D01*
X0190181Y0025616D01*
X0190154Y0025446D01*
X0190122Y0025277D01*
X0190087Y0025109D01*
X0190047Y0024942D01*
X0190003Y0024776D01*
X0189956Y0024611D01*
X0189904Y0024447D01*
X0189848Y0024285D01*
X0189788Y0024124D01*
X0189724Y0023964D01*
X0189656Y0023806D01*
X0189585Y0023650D01*
X0189510Y0023496D01*
X0189430Y0023343D01*
X0189348Y0023193D01*
X0189261Y0023044D01*
X0189171Y0022898D01*
X0189077Y0022754D01*
X0188980Y0022612D01*
X0188879Y0022473D01*
X0188775Y0022336D01*
X0188668Y0022202D01*
X0188557Y0022071D01*
X0188444Y0021942D01*
X0188327Y0021816D01*
X0188207Y0021693D01*
X0188084Y0021573D01*
X0187958Y0021456D01*
X0187829Y0021343D01*
X0187698Y0021232D01*
X0187564Y0021125D01*
X0187427Y0021021D01*
X0187288Y0020920D01*
X0187146Y0020823D01*
X0187002Y0020729D01*
X0186856Y0020639D01*
X0186707Y0020552D01*
X0186557Y0020470D01*
X0186404Y0020390D01*
X0186250Y0020315D01*
X0186094Y0020244D01*
X0185936Y0020176D01*
X0185776Y0020112D01*
X0185615Y0020052D01*
X0185453Y0019996D01*
X0185289Y0019944D01*
X0185124Y0019897D01*
X0184958Y0019853D01*
X0184791Y0019813D01*
X0184623Y0019778D01*
X0184454Y0019746D01*
X0184284Y0019719D01*
X0184114Y0019696D01*
X0183943Y0019677D01*
X0183772Y0019662D01*
X0183600Y0019651D01*
X0183429Y0019645D01*
X0183257Y0019643D01*
X0183085Y0019645D01*
X0182914Y0019651D01*
X0182742Y0019662D01*
X0182571Y0019677D01*
X0182400Y0019696D01*
X0182230Y0019719D01*
X0182060Y0019746D01*
X0181891Y0019778D01*
X0181723Y0019813D01*
X0181556Y0019853D01*
X0181390Y0019897D01*
X0181225Y0019944D01*
X0181061Y0019996D01*
X0180899Y0020052D01*
X0180738Y0020112D01*
X0180578Y0020176D01*
X0180420Y0020244D01*
X0180264Y0020315D01*
X0180110Y0020390D01*
X0179957Y0020470D01*
X0179807Y0020552D01*
X0179658Y0020639D01*
X0179512Y0020729D01*
X0179368Y0020823D01*
X0179226Y0020920D01*
X0179087Y0021021D01*
X0178950Y0021125D01*
X0178816Y0021232D01*
X0178685Y0021343D01*
X0178556Y0021456D01*
X0178430Y0021573D01*
X0178307Y0021693D01*
X0178187Y0021816D01*
X0178070Y0021942D01*
X0177957Y0022071D01*
X0177846Y0022202D01*
X0177739Y0022336D01*
X0177635Y0022473D01*
X0177534Y0022612D01*
X0177437Y0022754D01*
X0177343Y0022898D01*
X0177253Y0023044D01*
X0177166Y0023193D01*
X0177084Y0023343D01*
X0177004Y0023496D01*
X0176929Y0023650D01*
X0176858Y0023806D01*
X0176790Y0023964D01*
X0176726Y0024124D01*
X0176666Y0024285D01*
X0176610Y0024447D01*
X0176558Y0024611D01*
X0176511Y0024776D01*
X0176467Y0024942D01*
X0176427Y0025109D01*
X0176392Y0025277D01*
X0176360Y0025446D01*
X0176333Y0025616D01*
X0176310Y0025786D01*
X0176291Y0025957D01*
X0176276Y0026128D01*
X0176265Y0026300D01*
X0176259Y0026471D01*
X0176257Y0026643D01*
X0169713Y0089162D02*
X0170107Y0090737D01*
X0170107Y0101367D02*
X0169713Y0102942D01*
X0177391Y0103335D02*
X0148650Y0103335D01*
X0151052Y0170580D02*
X0151052Y0199320D01*
X0149083Y0192036D02*
X0150658Y0191643D01*
X0138454Y0192036D02*
X0136879Y0191643D01*
X0136485Y0199320D02*
X0136485Y0170580D01*
X0046761Y0173650D02*
X0046761Y0177194D01*
X0036918Y0170894D02*
X0028650Y0170894D01*
X0046761Y0194517D02*
X0046761Y0198060D01*
X0036918Y0200816D02*
X0028650Y0200816D01*
D16*
X0128965Y0177823D02*
X0128965Y0174754D01*
X0131267Y0174754D01*
X0130499Y0176288D01*
X0130499Y0177055D01*
X0131267Y0177823D01*
X0132801Y0177823D01*
X0133569Y0177055D01*
X0133569Y0175521D01*
X0132801Y0174754D01*
X0132801Y0173219D02*
X0133569Y0172452D01*
X0133569Y0170917D01*
X0132801Y0170150D01*
X0129732Y0170150D01*
X0128965Y0170917D01*
X0128965Y0172452D01*
X0129732Y0173219D01*
X0153965Y0171684D02*
X0158569Y0171684D01*
X0158569Y0170150D02*
X0158569Y0173219D01*
X0157801Y0174754D02*
X0154732Y0177823D01*
X0157801Y0177823D01*
X0158569Y0177055D01*
X0158569Y0175521D01*
X0157801Y0174754D01*
X0154732Y0174754D01*
X0153965Y0175521D01*
X0153965Y0177055D01*
X0154732Y0177823D01*
X0155499Y0179357D02*
X0157801Y0179357D01*
X0158569Y0180125D01*
X0158569Y0182427D01*
X0155499Y0182427D01*
X0156267Y0183961D02*
X0156267Y0185496D01*
X0158569Y0183961D02*
X0153965Y0183961D01*
X0153965Y0187031D01*
X0153965Y0171684D02*
X0155499Y0170150D01*
X0155126Y0110856D02*
X0153592Y0110856D01*
X0152824Y0110089D01*
X0151290Y0110089D02*
X0150522Y0110856D01*
X0148988Y0110856D01*
X0148220Y0110089D01*
X0148220Y0107019D01*
X0148988Y0106252D01*
X0150522Y0106252D01*
X0151290Y0107019D01*
X0152824Y0106252D02*
X0155894Y0109321D01*
X0155894Y0110089D01*
X0155126Y0110856D01*
X0155894Y0106252D02*
X0152824Y0106252D01*
X0153592Y0085856D02*
X0155126Y0085856D01*
X0155894Y0085089D01*
X0152824Y0082019D01*
X0153592Y0081252D01*
X0155126Y0081252D01*
X0155894Y0082019D01*
X0155894Y0085089D01*
X0157428Y0084321D02*
X0157428Y0082019D01*
X0158196Y0081252D01*
X0160498Y0081252D01*
X0160498Y0084321D01*
X0162032Y0083554D02*
X0163567Y0083554D01*
X0162032Y0085856D02*
X0165102Y0085856D01*
X0162032Y0085856D02*
X0162032Y0081252D01*
X0152824Y0082019D02*
X0152824Y0085089D01*
X0153592Y0085856D01*
X0149755Y0085856D02*
X0149755Y0081252D01*
X0148220Y0081252D02*
X0151290Y0081252D01*
X0148220Y0084321D02*
X0149755Y0085856D01*
D17*
X0037498Y0185905D02*
X0037498Y0187406D01*
X0036498Y0187406D02*
X0037498Y0185905D01*
X0036498Y0185905D02*
X0036498Y0187406D01*
X0036016Y0187406D02*
X0035515Y0187406D01*
X0035766Y0187406D02*
X0035766Y0185905D01*
X0036016Y0185905D02*
X0035515Y0185905D01*
X0034793Y0186406D02*
X0034042Y0186406D01*
X0034042Y0185905D02*
X0034042Y0187406D01*
X0034793Y0187406D01*
X0035043Y0187156D01*
X0035043Y0186656D01*
X0034793Y0186406D01*
X0033570Y0186656D02*
X0033570Y0186155D01*
X0033320Y0185905D01*
X0032819Y0185905D01*
X0032569Y0186155D01*
X0032569Y0186656D02*
X0033069Y0186906D01*
X0033320Y0186906D01*
X0033570Y0186656D01*
X0033570Y0187406D02*
X0032569Y0187406D01*
X0032569Y0186656D01*
X0032096Y0186656D02*
X0031096Y0186656D01*
X0030623Y0186906D02*
X0030373Y0186656D01*
X0029622Y0186656D01*
X0029622Y0187406D02*
X0030373Y0187406D01*
X0030623Y0187156D01*
X0030623Y0186906D01*
X0030373Y0186656D02*
X0030623Y0186406D01*
X0030623Y0186155D01*
X0030373Y0185905D01*
X0029622Y0185905D01*
X0029622Y0187406D01*
X0029141Y0187406D02*
X0028640Y0187406D01*
X0028890Y0187406D02*
X0028890Y0185905D01*
X0028640Y0185905D02*
X0029141Y0185905D01*
X0028168Y0185905D02*
X0028168Y0187406D01*
X0027167Y0187406D02*
X0028168Y0185905D01*
X0027167Y0185905D02*
X0027167Y0187406D01*
X0026685Y0187406D02*
X0026185Y0187406D01*
X0026435Y0187406D02*
X0026435Y0185905D01*
X0026185Y0185905D02*
X0026685Y0185905D01*
X0025712Y0185905D02*
X0025712Y0187406D01*
X0025212Y0186906D01*
X0024712Y0187406D01*
X0024712Y0185905D01*
X0024239Y0186656D02*
X0023238Y0186656D01*
X0022766Y0186906D02*
X0022516Y0186656D01*
X0021765Y0186656D01*
X0021293Y0186406D02*
X0021293Y0186155D01*
X0021042Y0185905D01*
X0020542Y0185905D01*
X0020292Y0186155D01*
X0019819Y0186155D02*
X0019819Y0187406D01*
X0020292Y0187156D02*
X0020292Y0186906D01*
X0020542Y0186656D01*
X0021042Y0186656D01*
X0021293Y0186406D01*
X0021765Y0185905D02*
X0022516Y0185905D01*
X0022766Y0186155D01*
X0022766Y0186406D01*
X0022516Y0186656D01*
X0022766Y0186906D02*
X0022766Y0187156D01*
X0022516Y0187406D01*
X0021765Y0187406D01*
X0021765Y0185905D01*
X0021293Y0187156D02*
X0021042Y0187406D01*
X0020542Y0187406D01*
X0020292Y0187156D01*
X0019819Y0186155D02*
X0019569Y0185905D01*
X0019069Y0185905D01*
X0018819Y0186155D01*
X0018819Y0187406D01*
X0019069Y0190905D02*
X0019319Y0190905D01*
X0019569Y0191155D01*
X0019569Y0192406D01*
X0019319Y0192406D02*
X0019819Y0192406D01*
X0020292Y0192156D02*
X0020542Y0192406D01*
X0021042Y0192406D01*
X0021293Y0192156D01*
X0021293Y0191906D01*
X0020292Y0190905D01*
X0021293Y0190905D01*
X0019069Y0190905D02*
X0018819Y0191155D01*
D18*
X0017216Y0049603D02*
X0017315Y0049434D01*
X0017419Y0049268D01*
X0017526Y0049104D01*
X0017637Y0048943D01*
X0017752Y0048785D01*
X0017871Y0048630D01*
X0017994Y0048477D01*
X0018120Y0048328D01*
X0018250Y0048182D01*
X0018384Y0048039D01*
X0018521Y0047899D01*
X0018661Y0047763D01*
X0018805Y0047630D01*
X0018952Y0047501D01*
X0019102Y0047375D01*
X0019255Y0047254D01*
X0019411Y0047135D01*
X0019570Y0047021D01*
X0019731Y0046911D01*
X0019896Y0046805D01*
X0020062Y0046702D01*
X0020232Y0046604D01*
X0020403Y0046510D01*
X0020577Y0046420D01*
X0020753Y0046335D01*
X0020931Y0046253D01*
X0021111Y0046177D01*
X0021293Y0046104D01*
X0021476Y0046036D01*
X0021661Y0045973D01*
X0021848Y0045914D01*
X0022036Y0045860D01*
X0022225Y0045810D01*
X0022415Y0045765D01*
X0022607Y0045725D01*
X0022799Y0045689D01*
X0022992Y0045658D01*
X0023186Y0045632D01*
X0023381Y0045610D01*
X0023576Y0045594D01*
X0023771Y0045582D01*
X0023967Y0045574D01*
X0024162Y0045572D01*
X0017103Y0057337D02*
X0017196Y0057505D01*
X0017292Y0057671D01*
X0017392Y0057835D01*
X0017497Y0057996D01*
X0017605Y0058155D01*
X0017717Y0058311D01*
X0017833Y0058465D01*
X0017952Y0058615D01*
X0018075Y0058763D01*
X0018201Y0058908D01*
X0018331Y0059049D01*
X0018464Y0059188D01*
X0018601Y0059323D01*
X0018741Y0059455D01*
X0018883Y0059583D01*
X0019029Y0059708D01*
X0019178Y0059830D01*
X0019330Y0059948D01*
X0019484Y0060062D01*
X0019642Y0060172D01*
X0019801Y0060279D01*
X0019964Y0060382D01*
X0020129Y0060481D01*
X0020296Y0060576D01*
X0020465Y0060666D01*
X0020636Y0060753D01*
X0020810Y0060836D01*
X0020985Y0060914D01*
X0021163Y0060988D01*
X0021342Y0061058D01*
X0021522Y0061124D01*
X0021704Y0061185D01*
X0021888Y0061242D01*
X0022073Y0061294D01*
X0022259Y0061342D01*
X0022446Y0061386D01*
X0022634Y0061425D01*
X0022823Y0061459D01*
X0023013Y0061489D01*
X0023203Y0061514D01*
X0023394Y0061535D01*
X0023586Y0061551D01*
X0023778Y0061563D01*
X0023970Y0061570D01*
X0024162Y0061572D01*
X0030269Y0048404D02*
X0030142Y0048258D01*
X0030013Y0048116D01*
X0029879Y0047976D01*
X0029743Y0047840D01*
X0029603Y0047707D01*
X0029460Y0047577D01*
X0029313Y0047451D01*
X0029164Y0047329D01*
X0029012Y0047210D01*
X0028857Y0047095D01*
X0028700Y0046983D01*
X0028540Y0046876D01*
X0028377Y0046772D01*
X0028211Y0046673D01*
X0028044Y0046577D01*
X0027874Y0046485D01*
X0027702Y0046398D01*
X0027528Y0046314D01*
X0027352Y0046235D01*
X0027174Y0046161D01*
X0026994Y0046090D01*
X0026813Y0046024D01*
X0026630Y0045962D01*
X0026446Y0045905D01*
X0026260Y0045852D01*
X0026073Y0045804D01*
X0025885Y0045760D01*
X0025696Y0045721D01*
X0025506Y0045686D01*
X0025316Y0045656D01*
X0025125Y0045630D01*
X0024933Y0045609D01*
X0024740Y0045593D01*
X0024548Y0045581D01*
X0024355Y0045574D01*
X0024162Y0045572D01*
X0030308Y0058694D02*
X0030181Y0058842D01*
X0030051Y0058987D01*
X0029918Y0059128D01*
X0029781Y0059267D01*
X0029641Y0059402D01*
X0029497Y0059533D01*
X0029350Y0059661D01*
X0029201Y0059786D01*
X0029048Y0059907D01*
X0028893Y0060024D01*
X0028734Y0060137D01*
X0028573Y0060246D01*
X0028409Y0060351D01*
X0028243Y0060453D01*
X0028074Y0060550D01*
X0027904Y0060643D01*
X0027730Y0060732D01*
X0027555Y0060817D01*
X0027378Y0060897D01*
X0027199Y0060973D01*
X0027018Y0061045D01*
X0026835Y0061112D01*
X0026651Y0061175D01*
X0026465Y0061233D01*
X0026278Y0061287D01*
X0026090Y0061336D01*
X0025900Y0061381D01*
X0025710Y0061421D01*
X0025518Y0061456D01*
X0025326Y0061487D01*
X0025133Y0061513D01*
X0024939Y0061534D01*
X0024745Y0061551D01*
X0024551Y0061563D01*
X0024357Y0061570D01*
X0024162Y0061572D01*
X0177059Y0194957D02*
X0177158Y0194788D01*
X0177262Y0194622D01*
X0177369Y0194458D01*
X0177480Y0194297D01*
X0177595Y0194139D01*
X0177714Y0193984D01*
X0177837Y0193831D01*
X0177963Y0193682D01*
X0178093Y0193536D01*
X0178227Y0193393D01*
X0178364Y0193253D01*
X0178504Y0193117D01*
X0178648Y0192984D01*
X0178795Y0192855D01*
X0178945Y0192729D01*
X0179098Y0192608D01*
X0179254Y0192489D01*
X0179413Y0192375D01*
X0179574Y0192265D01*
X0179739Y0192159D01*
X0179905Y0192056D01*
X0180075Y0191958D01*
X0180246Y0191864D01*
X0180420Y0191774D01*
X0180596Y0191689D01*
X0180774Y0191607D01*
X0180954Y0191531D01*
X0181136Y0191458D01*
X0181319Y0191390D01*
X0181504Y0191327D01*
X0181691Y0191268D01*
X0181879Y0191214D01*
X0182068Y0191164D01*
X0182258Y0191119D01*
X0182450Y0191079D01*
X0182642Y0191043D01*
X0182835Y0191012D01*
X0183029Y0190986D01*
X0183224Y0190964D01*
X0183419Y0190948D01*
X0183614Y0190936D01*
X0183810Y0190928D01*
X0184005Y0190926D01*
X0176946Y0202691D02*
X0177039Y0202859D01*
X0177135Y0203025D01*
X0177235Y0203189D01*
X0177340Y0203350D01*
X0177448Y0203509D01*
X0177560Y0203665D01*
X0177676Y0203819D01*
X0177795Y0203969D01*
X0177918Y0204117D01*
X0178044Y0204262D01*
X0178174Y0204403D01*
X0178307Y0204542D01*
X0178444Y0204677D01*
X0178584Y0204809D01*
X0178726Y0204937D01*
X0178872Y0205062D01*
X0179021Y0205184D01*
X0179173Y0205302D01*
X0179327Y0205416D01*
X0179485Y0205526D01*
X0179644Y0205633D01*
X0179807Y0205736D01*
X0179972Y0205835D01*
X0180139Y0205930D01*
X0180308Y0206020D01*
X0180479Y0206107D01*
X0180653Y0206190D01*
X0180828Y0206268D01*
X0181006Y0206342D01*
X0181185Y0206412D01*
X0181365Y0206478D01*
X0181547Y0206539D01*
X0181731Y0206596D01*
X0181916Y0206648D01*
X0182102Y0206696D01*
X0182289Y0206740D01*
X0182477Y0206779D01*
X0182666Y0206813D01*
X0182856Y0206843D01*
X0183046Y0206868D01*
X0183237Y0206889D01*
X0183429Y0206905D01*
X0183621Y0206917D01*
X0183813Y0206924D01*
X0184005Y0206926D01*
X0190112Y0193758D02*
X0189985Y0193612D01*
X0189856Y0193470D01*
X0189722Y0193330D01*
X0189586Y0193194D01*
X0189446Y0193061D01*
X0189303Y0192931D01*
X0189156Y0192805D01*
X0189007Y0192683D01*
X0188855Y0192564D01*
X0188700Y0192449D01*
X0188543Y0192337D01*
X0188383Y0192230D01*
X0188220Y0192126D01*
X0188054Y0192027D01*
X0187887Y0191931D01*
X0187717Y0191839D01*
X0187545Y0191752D01*
X0187371Y0191668D01*
X0187195Y0191589D01*
X0187017Y0191515D01*
X0186837Y0191444D01*
X0186656Y0191378D01*
X0186473Y0191316D01*
X0186289Y0191259D01*
X0186103Y0191206D01*
X0185916Y0191158D01*
X0185728Y0191114D01*
X0185539Y0191075D01*
X0185349Y0191040D01*
X0185159Y0191010D01*
X0184968Y0190984D01*
X0184776Y0190963D01*
X0184583Y0190947D01*
X0184391Y0190935D01*
X0184198Y0190928D01*
X0184005Y0190926D01*
X0190151Y0204048D02*
X0190024Y0204196D01*
X0189894Y0204341D01*
X0189761Y0204482D01*
X0189624Y0204621D01*
X0189484Y0204756D01*
X0189340Y0204887D01*
X0189193Y0205015D01*
X0189044Y0205140D01*
X0188891Y0205261D01*
X0188736Y0205378D01*
X0188577Y0205491D01*
X0188416Y0205600D01*
X0188252Y0205705D01*
X0188086Y0205807D01*
X0187917Y0205904D01*
X0187747Y0205997D01*
X0187573Y0206086D01*
X0187398Y0206171D01*
X0187221Y0206251D01*
X0187042Y0206327D01*
X0186861Y0206399D01*
X0186678Y0206466D01*
X0186494Y0206529D01*
X0186308Y0206587D01*
X0186121Y0206641D01*
X0185933Y0206690D01*
X0185743Y0206735D01*
X0185553Y0206775D01*
X0185361Y0206810D01*
X0185169Y0206841D01*
X0184976Y0206867D01*
X0184782Y0206888D01*
X0184588Y0206905D01*
X0184394Y0206917D01*
X0184200Y0206924D01*
X0184005Y0206926D01*
D19*
X0200816Y0195961D03*
X0200816Y0167561D03*
X0043335Y0055409D03*
X0043335Y0027009D03*
D20*
X0150002Y0060068D03*
X0150002Y0071879D03*
X0178402Y0071879D03*
X0178402Y0060068D03*
M02*
